<?xml version="1.0" standalone="no"?>
<!DOCTYPE svg PUBLIC "-//W3C//DTD SVG 1.1//EN" "http://www.w3.org/Graphics/SVG/1.1/DTD/svg11.dtd" >
<svg xmlns="http://www.w3.org/2000/svg" xmlns:xlink="http://www.w3.org/1999/xlink" version="1.1">
<metadata>
Created by FontForge 20170731 at Fri Feb 16 17:02:36 2018
 By Aleksey,,,
Copyright 2018 IBM Corp. All rights reserved.
</metadata>
<defs>
<font id="IBMPlexSans-Text" horiz-adv-x="600" >
  <font-face 
    font-family="IBM Plex Sans Text"
    font-weight="450"
    font-stretch="normal"
    units-per-em="1000"
    panose-1="2 11 5 3 5 2 3 0 2 3"
    ascent="780"
    descent="-220"
    x-height="518"
    cap-height="698"
    bbox="-269 -251 1262 1125"
    underline-thickness="68"
    underline-position="-259"
    unicode-range="U+0020-FB02"
  />
<missing-glyph horiz-adv-x="472" 
d="M32 0v780h408v-780h-408zM100 68h272v644h-272v-644z" />
    <glyph glyph-name="fi" unicode="fi" horiz-adv-x="582" 
d="M110 0v439h-83v79h83v96q0 59 31 92.5t90 33.5h81v-79h-109v-143h297v-518h-93v439h-204v-439h-93zM454 626q-56 0 -56 51v14q0 51 56 51t56 -51v-14q0 -51 -56 -51z" />
    <glyph glyph-name=".notdef" horiz-adv-x="472" 
d="M32 0v780h408v-780h-408zM100 68h272v644h-272v-644z" />
    <glyph glyph-name=".null" horiz-adv-x="0" 
 />
    <glyph glyph-name="nonmarkingreturn" horiz-adv-x="333" 
 />
    <glyph glyph-name="space" unicode=" " horiz-adv-x="236" 
 />
    <glyph glyph-name="exclam" unicode="!" horiz-adv-x="290" 
d="M167 192h-44l-28 305v201h100v-201zM145 -12q-33 0 -49.5 17t-16.5 45v15q0 28 16.5 45t49.5 17t49.5 -17t16.5 -45v-15q0 -28 -16.5 -45t-49.5 -17z" />
    <glyph glyph-name="quotedbl" unicode="&#x22;" horiz-adv-x="432" 
d="M350 451h-83v289h83v-289zM165 451h-83v289h83v-289z" />
    <glyph glyph-name="numbersign" unicode="#" horiz-adv-x="698" 
d="M366 0l34 199h-154l-34 -199h-70l34 199h-123v66h135l28 168h-123v66h135l34 199h70l-34 -199h154l34 199h70l-34 -199h123v-66h-135l-28 -168h123v-66h-135l-34 -199h-70zM258 265h154l28 168h-154z" />
    <glyph glyph-name="dollar" unicode="$" horiz-adv-x="599" 
d="M338 -82h-72v84q-135 9 -218 116l65 59q65 -83 156 -96v242q-104 23 -152 69t-48 122q0 78 53 125.5t144 56.5v84h72v-83q127 -13 199 -109l-66 -53q-52 68 -136 82v-221q111 -25 159.5 -70t48.5 -123q0 -83 -54.5 -136t-150.5 -64v-85zM453 197q0 45 -27 71t-91 42v-229
q55 8 86.5 39t31.5 77zM159 519q0 -45 26 -68.5t84 -40.5v207q-52 -7 -81 -32t-29 -66z" />
    <glyph glyph-name="percent" unicode="%" horiz-adv-x="938" 
d="M271 0h-88l484 698h88zM225 314q-78 0 -120.5 51t-42.5 147t42.5 147t120.5 51t120.5 -51t42.5 -147t-42.5 -147t-120.5 -51zM225 373q80 0 80 110v58q0 110 -80 110t-80 -110v-58q0 -110 80 -110zM713 -12q-78 0 -120.5 51t-42.5 147t42.5 147t120.5 51t120.5 -51
t42.5 -147t-42.5 -147t-120.5 -51zM713 47q80 0 80 110v58q0 110 -80 110t-80 -110v-58q0 -110 80 -110z" />
    <glyph glyph-name="ampersand" unicode="&#x26;" horiz-adv-x="699" 
d="M559 0l-70 77q-79 -89 -203 -89q-102 0 -160 54.5t-58 138.5q0 70 38 115t104 82q-78 83 -78 164q0 72 51.5 120t134.5 48q77 0 125.5 -42t48.5 -110q0 -63 -40.5 -106.5t-115.5 -85.5l148 -159q27 71 32 163h142v-78h-69q-15 -83 -48 -146l137 -146h-119zM314 634
q-40 0 -66 -24.5t-26 -62.5v-10q0 -47 66 -119q115 64 115 126v11q0 36 -25.5 57.5t-63.5 21.5zM296 68q86 0 142 64l-180 193q-46 -25 -70 -53.5t-24 -76.5v-14q0 -52 35.5 -82.5t96.5 -30.5z" />
    <glyph glyph-name="quotesingle" unicode="'" horiz-adv-x="247" 
d="M165 451h-83v289h83v-289z" />
    <glyph glyph-name="parenleft" unicode="(" horiz-adv-x="338" 
d="M74 312q0 140 51 261t129 187h90q-81 -72 -132 -185t-51 -222v-82q0 -109 51 -222t132 -185h-90q-78 66 -129 187t-51 261z" />
    <glyph glyph-name="parenright" unicode=")" horiz-adv-x="338" 
d="M264 312q0 -140 -51 -261t-129 -187h-90q81 72 132 185t51 222v82q0 109 -51 222t-132 185h90q78 -66 129 -187t51 -261z" />
    <glyph glyph-name="asterisk" unicode="*" horiz-adv-x="479" 
d="M240 490l-87 -131l-66 47l98 123l-150 42l26 76l145 -55l-7 155h81l-6 -155l145 55l25 -76l-150 -42l98 -123l-65 -46z" />
    <glyph glyph-name="plus" unicode="+" 
d="M343 62h-86v204h-190v78h190v204h86v-204h190v-78h-190v-204z" />
    <glyph glyph-name="comma" unicode="," horiz-adv-x="279" 
d="M140 127q66 0 66 -63v-15q0 -45 -25.5 -96t-68.5 -87h-73q64 65 79 125q-44 9 -44 58v15q0 63 66 63z" />
    <glyph glyph-name="hyphen" unicode="-" horiz-adv-x="400" 
d="M334 256h-268v97h268v-97z" />
    <glyph glyph-name="period" unicode="." horiz-adv-x="278" 
d="M139 -12q-33 0 -49.5 17t-16.5 45v15q0 28 16.5 45t49.5 17t49.5 -17t16.5 -45v-15q0 -28 -16.5 -45t-49.5 -17z" />
    <glyph glyph-name="slash" unicode="/" horiz-adv-x="399" 
d="M91 -151h-82l269 891h82z" />
    <glyph glyph-name="zero" unicode="0" 
d="M300 -12q-246 0 -246 361t246 361t246 -361t-246 -361zM300 73q144 0 144 217v118q0 217 -144 217t-144 -217v-118q0 -217 144 -217z" />
    <glyph glyph-name="one" unicode="1" 
d="M549 0h-463v86h191v541h-7l-169 -168l-58 57l181 182h150v-612h175v-86z" />
    <glyph glyph-name="two" unicode="2" 
d="M536 86v-86h-464v96l225 205q113 101 113 191v12q0 55 -32 87t-90 32q-106 0 -138 -113l-86 33q55 167 230 167q102 0 161 -56.5t59 -147.5q0 -76 -40.5 -136t-120.5 -130l-173 -154h356z" />
    <glyph glyph-name="three" unicode="3" 
d="M188 406h74q65 0 100 30t35 78v7q0 51 -32 78t-87 27q-95 0 -144 -86l-68 55q76 115 214 115q96 0 157.5 -47.5t61.5 -130.5q0 -64 -37.5 -106t-96.5 -56v-4q63 -12 105 -56.5t42 -117.5q0 -91 -67 -147.5t-175 -56.5q-85 0 -139 33t-94 89l73 55q28 -46 64.5 -69.5
t94.5 -23.5q69 0 105.5 31.5t36.5 89.5v9q0 58 -36.5 89.5t-105.5 31.5h-81v83z" />
    <glyph glyph-name="four" unicode="4" 
d="M460 0h-92v136h-332v85l289 477h135v-483h98v-79h-98v-136zM362 616l-239 -401h245v401h-6z" />
    <glyph glyph-name="five" unicode="5" 
d="M503 698v-85h-309l-19 -257h8q27 42 59 62.5t85 20.5q92 0 150.5 -58.5t58.5 -158.5q0 -105 -64.5 -169.5t-176.5 -64.5q-141 0 -224 122l72 55q30 -47 62.5 -70t89.5 -23q67 0 103 36t36 102v10q0 66 -36 102t-103 36q-68 0 -121 -57l-81 11l25 386h385z" />
    <glyph glyph-name="six" unicode="6" 
d="M301 -12q-112 0 -176 72.5t-64 197.5q0 141 75 257.5t174 182.5h127q-122 -89 -185.5 -168.5t-89.5 -191.5l5 -2q58 101 166 101q91 0 148.5 -58.5t57.5 -156.5q0 -104 -65.5 -169t-172.5 -65zM300 69q66 0 102.5 36.5t36.5 103.5v9q0 67 -36.5 103.5t-102.5 36.5
t-102.5 -36.5t-36.5 -103.5v-9q0 -67 36.5 -103.5t102.5 -36.5z" />
    <glyph glyph-name="seven" unicode="7" 
d="M276 0h-103l261 616h-283v-129h-85v211h465v-85z" />
    <glyph glyph-name="eight" unicode="8" 
d="M300 -12q-116 0 -180.5 56.5t-64.5 145.5q0 134 140 172v8q-55 19 -87 61.5t-32 101.5q0 81 59.5 129t164.5 48t164.5 -48t59.5 -129q0 -59 -32 -101.5t-87 -61.5v-8q140 -38 140 -172q0 -89 -64.5 -145.5t-180.5 -56.5zM300 69q68 0 105.5 31t37.5 87v21q0 56 -37.5 87
t-105.5 31t-105.5 -31t-37.5 -87v-21q0 -56 37.5 -87t105.5 -31zM300 404q62 0 94.5 27t32.5 78v15q0 51 -32.5 78t-94.5 27t-94.5 -27t-32.5 -78v-15q0 -51 32.5 -78t94.5 -27z" />
    <glyph glyph-name="nine" unicode="9" 
d="M539 440q0 -141 -75 -257.5t-174 -182.5h-127q122 89 185.5 168.5t89.5 191.5l-5 2q-58 -101 -166 -101q-91 0 -148.5 58.5t-57.5 156.5q0 104 65.5 169t172.5 65q112 0 176 -72.5t64 -197.5zM300 340q66 0 102.5 36.5t36.5 103.5v9q0 67 -36.5 103.5t-102.5 36.5
t-102.5 -36.5t-36.5 -103.5v-9q0 -67 36.5 -103.5t102.5 -36.5z" />
    <glyph glyph-name="colon" unicode=":" horiz-adv-x="298" 
d="M149 387q-33 0 -49.5 17t-16.5 45v15q0 28 16.5 45t49.5 17t49.5 -17t16.5 -45v-15q0 -28 -16.5 -45t-49.5 -17zM149 -12q-33 0 -49.5 17t-16.5 45v15q0 28 16.5 45t49.5 17t49.5 -17t16.5 -45v-15q0 -28 -16.5 -45t-49.5 -17z" />
    <glyph glyph-name="semicolon" unicode=";" horiz-adv-x="299" 
d="M149 387q-33 0 -49.5 17t-16.5 45v15q0 28 16.5 45t49.5 17t49.5 -17t16.5 -45v-15q0 -28 -16.5 -45t-49.5 -17zM150 127q66 0 66 -63v-15q0 -45 -25.5 -96t-68.5 -87h-73q64 65 79 125q-44 9 -44 58v15q0 63 66 63z" />
    <glyph glyph-name="less" unicode="&#x3c;" 
d="M508 -9l-416 249v82l416 251v-96l-325 -192v-8l325 -190v-96z" />
    <glyph glyph-name="equal" unicode="=" 
d="M533 370h-466v78h466v-78zM533 164h-466v78h466v-78z" />
    <glyph glyph-name="greater" unicode="&#x3e;" 
d="M92 -9v96l325 190v8l-325 192v96l416 -251v-82z" />
    <glyph glyph-name="question" unicode="?" horiz-adv-x="481" 
d="M264 213h-89v162q82 3 127 37t45 95v14q0 48 -30.5 77t-80.5 29q-52 0 -85.5 -30.5t-46.5 -80.5l-83 32q21 71 75 116.5t143 45.5q94 0 150.5 -52.5t56.5 -139.5t-53 -138.5t-129 -65.5v-101zM218 -12q-33 0 -49.5 17t-16.5 45v15q0 28 16.5 45t49.5 17t49.5 -17
t16.5 -45v-15q0 -28 -16.5 -45t-49.5 -17z" />
    <glyph glyph-name="at" unicode="@" horiz-adv-x="893" 
d="M678 -55v-66h-228q-176 0 -281 112t-105 298t108 302.5t285 116.5q76 0 141.5 -23t118 -68t83 -120t30.5 -172q0 -114 -44 -184.5t-133 -70.5q-47 0 -74 24t-31 64h-4q-39 -88 -123 -88q-73 0 -121.5 56.5t-48.5 162.5t48.5 163t121.5 57q81 0 112 -79h4v70h77v-300
q0 -35 12.5 -49t40.5 -14q44 0 68 46.5t24 128.5v42q0 130 -86 209.5t-217 79.5q-141 0 -230.5 -92.5t-89.5 -231.5v-55q0 -141 87 -230t228 -89h227zM440 141q47 0 72 23.5t25 66.5v122q0 38 -25 61.5t-72 23.5q-48 0 -73.5 -29.5t-25.5 -80.5v-78q0 -51 25.5 -80t73.5 -29
z" />
    <glyph glyph-name="A" unicode="A" horiz-adv-x="649" 
d="M627 0h-102l-66 197h-272l-67 -197h-98l242 698h122zM435 283l-110 326h-5l-110 -326h225z" />
    <glyph glyph-name="B" unicode="B" horiz-adv-x="657" 
d="M90 0v698h297q86 0 136.5 -49t50.5 -131q0 -71 -35.5 -107t-82.5 -41v-6q22 -1 45 -10.5t45.5 -27.5t37 -51t14.5 -74q0 -86 -52 -143.5t-129 -57.5h-327zM187 317v-233h201q50 0 78 25.5t28 73.5v35q0 48 -28 73.5t-78 25.5h-201zM187 614v-215h185q46 0 72 24t26 67v33
q0 43 -26 67t-72 24h-185z" />
    <glyph glyph-name="C" unicode="C" horiz-adv-x="627" 
d="M343 -12q-135 0 -211 94t-76 267t76 267t211 94q174 0 244 -155l-80 -46q-43 114 -164 114q-85 0 -134 -59.5t-49 -161.5v-106q0 -102 49 -161.5t134 -59.5q63 0 106.5 32.5t63.5 88.5l78 -47q-34 -77 -97.5 -119t-150.5 -42z" />
    <glyph glyph-name="D" unicode="D" horiz-adv-x="676" 
d="M90 0v698h239q136 0 213.5 -89t77.5 -260t-77.5 -260t-213.5 -89h-239zM187 86h142q85 0 136 54.5t51 152.5v112q0 98 -51 152.5t-136 54.5h-142v-526z" />
    <glyph glyph-name="E" unicode="E" horiz-adv-x="588" 
d="M525 0h-435v698h435v-86h-338v-216h313v-86h-313v-224h338v-86z" />
    <glyph glyph-name="F" unicode="F" horiz-adv-x="564" 
d="M187 0h-97v698h425v-86h-328v-216h296v-86h-296v-310z" />
    <glyph glyph-name="G" unicode="G" horiz-adv-x="699" 
d="M540 0v104h-4q-12 -51 -63 -83.5t-128 -32.5q-130 0 -209.5 94.5t-79.5 265.5q0 172 81.5 267t219.5 95q179 0 257 -155l-80 -47q-23 54 -68.5 84.5t-108.5 30.5q-89 0 -143 -58.5t-54 -158.5v-113q0 -101 54.5 -159.5t148.5 -58.5q74 0 122 37t48 106v63h-149v84h243
v-365h-87z" />
    <glyph glyph-name="H" unicode="H" horiz-adv-x="710" 
d="M523 0v310h-336v-310h-97v698h97v-302h336v302h97v-698h-97z" />
    <glyph glyph-name="I" unicode="I" horiz-adv-x="407" 
d="M349 0h-291v82h97v534h-97v82h291v-82h-97v-534h97v-82z" />
    <glyph glyph-name="J" unicode="J" horiz-adv-x="519" 
d="M103 698h331v-513q0 -90 -56.5 -143.5t-148.5 -53.5q-83 0 -134.5 44.5t-67.5 121.5l89 20q21 -99 114 -99q51 0 79 31t28 92v414h-234v86z" />
    <glyph glyph-name="K" unicode="K" horiz-adv-x="646" 
d="M507 0l-223 336l-97 -110v-226h-97v698h97v-364h4l99 124l201 240h116l-255 -297l274 -401h-119z" />
    <glyph glyph-name="L" unicode="L" horiz-adv-x="507" 
d="M478 0h-388v698h97v-612h291v-86z" />
    <glyph glyph-name="M" unicode="M" horiz-adv-x="812" 
d="M90 0v698h122l194 -367h4l194 367h118v-698h-94v564h-5l-57 -115l-160 -293l-160 293l-57 115h-5v-564h-94z" />
    <glyph glyph-name="N" unicode="N" horiz-adv-x="710" 
d="M512 0l-229 382l-96 175h-3v-557h-94v698h108l229 -382l96 -175h3v557h94v-698h-108z" />
    <glyph glyph-name="O" unicode="O" horiz-adv-x="708" 
d="M354 -12q-138 0 -218 94t-80 267t80 267t218 94t218 -94t80 -267t-80 -267t-218 -94zM354 75q88 0 141 59t53 158v114q0 99 -53 158t-141 59t-141 -59t-53 -158v-114q0 -99 53 -158t141 -59z" />
    <glyph glyph-name="P" unicode="P" horiz-adv-x="616" 
d="M187 0h-97v698h288q93 0 145.5 -55.5t52.5 -149.5t-52.5 -149.5t-145.5 -55.5h-191v-288zM187 612v-238h187q47 0 73 24.5t26 69.5v50q0 45 -26 69.5t-73 24.5h-187z" />
    <glyph glyph-name="Q" unicode="Q" horiz-adv-x="708" 
d="M514 -88v-80h-101q-48 0 -73 25.5t-25 69.5v63q-121 13 -190 105.5t-69 253.5q0 173 80 267t218 94t218 -94t80 -267q0 -156 -65.5 -248t-181.5 -109v-80h109zM354 75q88 0 141 59t53 158v114q0 99 -53 158t-141 59t-141 -59t-53 -158v-114q0 -99 53 -158t141 -59z" />
    <glyph glyph-name="R" unicode="R" horiz-adv-x="647" 
d="M187 290v-290h-97v698h288q92 0 145 -54.5t53 -150.5q0 -76 -35 -126t-102 -67l155 -300h-109l-145 290h-153zM187 374h187q47 0 73 24.5t26 69.5v50q0 45 -26 69.5t-73 24.5h-187v-238z" />
    <glyph glyph-name="S" unicode="S" horiz-adv-x="588" 
d="M291 -12q-159 0 -250 120l69 62q75 -97 185 -97q70 0 108 33t38 90q0 46 -27.5 72t-92.5 40l-59 12q-100 21 -150 68t-50 127q0 92 64 143.5t173 51.5q151 0 233 -111l-71 -57q-60 83 -167 83q-64 0 -100 -27.5t-36 -78.5q0 -45 29 -69.5t93 -38.5l59 -12
q103 -23 150.5 -70.5t47.5 -127.5q0 -98 -65.5 -155.5t-180.5 -57.5z" />
    <glyph glyph-name="T" unicode="T" horiz-adv-x="575" 
d="M239 0v612h-216v86h529v-86h-216v-612h-97z" />
    <glyph glyph-name="U" unicode="U" horiz-adv-x="682" 
d="M85 698h97v-431q0 -98 36.5 -145t122.5 -47t122.5 47t36.5 145v431h97v-412q0 -156 -59.5 -227t-199.5 -71q-139 0 -196 70.5t-57 227.5v412z" />
    <glyph glyph-name="V" unicode="V" horiz-adv-x="617" 
d="M365 0h-115l-231 698h102l113 -349l73 -254h5l74 254l113 349h99z" />
    <glyph glyph-name="W" unicode="W" horiz-adv-x="907" 
d="M298 0h-109l-167 698h100l74 -336l54 -248h2l61 248l86 336h109l84 -336l61 -247h3l55 247l77 336h97l-176 -698h-108l-91 354l-58 236h-2l-60 -236z" />
    <glyph glyph-name="X" unicode="X" horiz-adv-x="624" 
d="M22 0l228 357l-221 341h116l167 -270h3l171 270h109l-222 -340l229 -358h-116l-176 286h-3l-176 -286h-109z" />
    <glyph glyph-name="Y" unicode="Y" horiz-adv-x="603" 
d="M349 0h-97v275l-240 423h111l179 -325h3l178 325h108l-242 -420v-278z" />
    <glyph glyph-name="Z" unicode="Z" horiz-adv-x="586" 
d="M549 86v-86h-512v87l390 525h-370v86h479v-87l-392 -525h405z" />
    <glyph glyph-name="bracketleft" unicode="[" horiz-adv-x="320" 
d="M262 -138h-172v898h172v-71h-90v-756h90v-71z" />
    <glyph glyph-name="backslash" unicode="\" horiz-adv-x="399" 
d="M390 -151h-82l-269 891h82z" />
    <glyph glyph-name="bracketright" unicode="]" horiz-adv-x="320" 
d="M58 760h172v-898h-172v71h90v756h-90v71z" />
    <glyph glyph-name="asciicircum" unicode="^" 
d="M552 329l-71 -37l-179 315h-4l-179 -315l-71 37l206 369h92z" />
    <glyph glyph-name="underscore" unicode="_" horiz-adv-x="563" 
d="M533 -170h-503v80h503v-80z" />
    <glyph glyph-name="grave" unicode="`" 
d="M291 584l-111 162l82 40l88 -175z" />
    <glyph glyph-name="a" unicode="a" horiz-adv-x="541" 
d="M512 0h-53q-79 0 -91 86h-5q-16 -48 -55 -73t-95 -25q-80 0 -125.5 41.5t-45.5 113.5q0 154 221 154h98v47q0 108 -115 108q-82 0 -127 -74l-56 51q56 101 188 101q97 0 150 -47t53 -131v-273h58v-79zM234 63q55 0 91 25t36 64v80h-99q-123 0 -123 -74v-20
q0 -36 25.5 -55.5t69.5 -19.5z" />
    <glyph glyph-name="b" unicode="b" horiz-adv-x="585" 
d="M82 0v740h93v-307h4q36 97 149 97q97 0 152.5 -72.5t55.5 -198.5t-55.5 -198.5t-152.5 -72.5q-113 0 -149 97h-4v-85h-93zM301 69q62 0 99 40t37 106v88q0 66 -37 106t-99 40q-53 0 -89.5 -27t-36.5 -68v-190q0 -41 36.5 -68t89.5 -27z" />
    <glyph glyph-name="c" unicode="c" horiz-adv-x="505" 
d="M278 -12q-110 0 -171.5 72.5t-61.5 198.5t61.5 198.5t171.5 72.5q146 0 196 -124l-77 -38q-13 39 -44 60.5t-75 21.5q-65 0 -99.5 -40t-34.5 -106v-90q0 -66 34.5 -106t99.5 -40q91 0 132 88l68 -42q-25 -60 -76 -93t-124 -33z" />
    <glyph glyph-name="d" unicode="d" horiz-adv-x="585" 
d="M410 0v85h-4q-36 -97 -149 -97q-97 0 -152.5 72.5t-55.5 198.5t55.5 198.5t152.5 72.5q113 0 149 -97h4v307h93v-740h-93zM284 69q53 0 89.5 27t36.5 68v190q0 41 -36.5 68t-89.5 27q-62 0 -99 -40t-37 -106v-88q0 -66 37 -106t99 -40z" />
    <glyph glyph-name="e" unicode="e" horiz-adv-x="552" 
d="M280 -12q-108 0 -171.5 74t-63.5 197t63.5 197t171.5 74q106 0 166.5 -71.5t60.5 -183.5v-39h-365v-21q0 -66 39 -107t107 -41q96 0 140 84l60 -51q-28 -51 -82.5 -81.5t-125.5 -30.5zM280 455q-61 0 -99.5 -41.5t-38.5 -105.5v-7h266v10q0 65 -35 104.5t-93 39.5z" />
    <glyph glyph-name="f" unicode="f" horiz-adv-x="331" 
d="M110 0v439h-83v79h83v96q0 59 31 92.5t90 33.5h81v-79h-109v-143h109v-79h-109v-439h-93z" />
    <glyph glyph-name="g" unicode="g" horiz-adv-x="533" 
d="M527 -53q0 -159 -257 -159q-231 0 -231 126q0 79 85 100v11q-51 20 -51 76q0 69 90 90v4q-96 46 -96 157q0 80 54 129t146 49q50 0 96 -18v11q0 71 63 71h79v-78h-102v-28q65 -48 65 -136q0 -80 -54 -128.5t-147 -48.5q-33 0 -58 6q-59 -18 -59 -55q0 -39 76 -39h118
q183 0 183 -140zM440 -62q0 64 -102 64h-174q-42 -22 -42 -66q0 -35 27 -56t85 -21h70q136 0 136 79zM268 245q51 0 79 24t28 70v26q0 46 -28 70t-79 24t-79 -24t-28 -70v-26q0 -46 28 -70t79 -24z" />
    <glyph glyph-name="h" unicode="h" horiz-adv-x="573" 
d="M82 0v740h93v-307h5q41 97 146 97q80 0 125.5 -52.5t45.5 -146.5v-331h-93v317q0 132 -109 132q-49 0 -84.5 -24.5t-35.5 -69.5v-355h-93z" />
    <glyph glyph-name="i" unicode="i" horiz-adv-x="257" 
d="M129 626q-56 0 -56 51v14q0 51 56 51t56 -51v-14q0 -51 -56 -51zM82 0v518h93v-518h-93z" />
    <glyph glyph-name="j" unicode="j" horiz-adv-x="257" 
d="M82 -121v639h93v-593q0 -59 -29.5 -92t-89.5 -33h-57v79h83zM129 626q-56 0 -56 51v14q0 51 56 51t56 -51v-14q0 -51 -56 -51z" />
    <glyph glyph-name="k" unicode="k" horiz-adv-x="537" 
d="M82 0v740h93v-461h5l74 91l135 148h110l-184 -200l208 -318h-112l-162 258l-74 -79v-179h-93z" />
    <glyph glyph-name="l" unicode="l" horiz-adv-x="278" 
d="M249 0h-70q-47 0 -72 25.5t-25 69.5v645h93v-661h74v-79z" />
    <glyph glyph-name="m" unicode="m" horiz-adv-x="877" 
d="M175 0h-93v518h93v-85h5q18 43 53.5 70t84.5 27q118 0 157 -105h2q15 46 55.5 75.5t102.5 29.5q78 0 122 -52.5t44 -146.5v-331h-93v317q0 132 -105 132q-48 0 -81.5 -24.5t-33.5 -69.5v-355h-93v317q0 132 -104 132q-48 0 -82 -24.5t-34 -69.5v-355z" />
    <glyph glyph-name="n" unicode="n" horiz-adv-x="573" 
d="M175 0h-93v518h93v-85h5q41 97 146 97q80 0 125.5 -52.5t45.5 -146.5v-331h-93v317q0 132 -109 132q-49 0 -84.5 -24.5t-35.5 -69.5v-355z" />
    <glyph glyph-name="o" unicode="o" horiz-adv-x="562" 
d="M281 -12q-106 0 -171 74t-65 197t65 197t171 74t171 -74t65 -197t-65 -197t-171 -74zM281 68q63 0 100 39t37 113v78q0 74 -37 113t-100 39t-100 -39t-37 -113v-78q0 -74 37 -113t100 -39z" />
    <glyph glyph-name="p" unicode="p" horiz-adv-x="585" 
d="M82 -200v718h93v-85h4q36 97 149 97q97 0 152.5 -72.5t55.5 -198.5t-55.5 -198.5t-152.5 -72.5q-113 0 -149 97h-4v-285h-93zM301 69q62 0 99 40t37 106v88q0 66 -37 106t-99 40q-53 0 -89.5 -27t-36.5 -68v-190q0 -41 36.5 -68t89.5 -27z" />
    <glyph glyph-name="q" unicode="q" horiz-adv-x="585" 
d="M410 -200v285h-4q-36 -97 -149 -97q-97 0 -152.5 72.5t-55.5 198.5t55.5 198.5t152.5 72.5q113 0 149 -97h4v85h93v-718h-93zM284 69q53 0 89.5 27t36.5 68v190q0 41 -36.5 68t-89.5 27q-62 0 -99 -40t-37 -106v-88q0 -66 37 -106t99 -40z" />
    <glyph glyph-name="r" unicode="r" horiz-adv-x="375" 
d="M175 0h-93v518h93v-99h5q14 43 51 71t95 28h31v-93h-46q-64 0 -100 -23t-36 -62v-340z" />
    <glyph glyph-name="s" unicode="s" horiz-adv-x="490" 
d="M241 -12q-128 0 -207 100l63 54q61 -77 150 -77q49 0 75.5 20.5t26.5 56.5q0 62 -83 74l-44 7q-168 24 -168 151q0 74 52 115t136 41q117 0 187 -83l-59 -56q-47 62 -131 62q-46 0 -70.5 -19.5t-24.5 -53.5q0 -33 21.5 -50t68.5 -24l44 -7q161 -24 161 -147
q0 -76 -53.5 -120t-144.5 -44z" />
    <glyph glyph-name="t" unicode="t" horiz-adv-x="357" 
d="M307 0h-98q-47 0 -72.5 26t-25.5 72v341h-83v79h46q26 0 36 10.5t10 37.5v95h84v-143h111v-79h-111v-360h103v-79z" />
    <glyph glyph-name="u" unicode="u" horiz-adv-x="574" 
d="M399 0v85h-5q-37 -97 -145 -97q-80 0 -126 52.5t-46 146.5v331h93v-317q0 -132 110 -132q49 0 84 24.5t35 70.5v354h93v-518h-93z" />
    <glyph glyph-name="v" unicode="v" horiz-adv-x="500" 
d="M304 0h-109l-179 518h93l85 -248l54 -179h6l55 179l86 248h89z" />
    <glyph glyph-name="w" unicode="w" horiz-adv-x="782" 
d="M168 0l-139 518h90l54 -221l52 -213h2l59 213l64 221h83l66 -221l60 -213h3l49 213l55 221h87l-138 -518h-110l-70 243l-44 152h-2l-43 -152l-70 -243h-108z" />
    <glyph glyph-name="x" unicode="x" horiz-adv-x="518" 
d="M21 0l188 261l-181 257h108l125 -187h3l128 187h102l-181 -253l184 -265h-108l-128 196h-3l-135 -196h-102z" />
    <glyph glyph-name="y" unicode="y" horiz-adv-x="506" 
d="M285 187l116 331h90l-225 -631q-19 -50 -44.5 -68.5t-83.5 -18.5h-51v79h85l35 100l-192 539h93l115 -331l27 -97h5z" />
    <glyph glyph-name="z" unicode="z" horiz-adv-x="474" 
d="M440 0h-406v77l287 362h-278v79h389v-71l-292 -368h300v-79z" />
    <glyph glyph-name="braceleft" unicode="{" horiz-adv-x="349" 
d="M291 -138h-86q-40 0 -63 24t-23 62v232q0 42 -27 65.5t-70 23.5v84q43 0 70 23t27 65v233q0 38 23 62t63 24h86v-71h-90v-243q0 -48 -26.5 -84t-69.5 -44v-14q43 -8 69.5 -44t26.5 -84v-243h90v-71z" />
    <glyph glyph-name="bar" unicode="|" horiz-adv-x="332" 
d="M206 -138h-80v898h80v-898z" />
    <glyph glyph-name="braceright" unicode="}" horiz-adv-x="349" 
d="M58 760h86q40 0 63 -24t23 -62v-232q0 -42 27 -65.5t70 -23.5v-84q-43 0 -70 -23t-27 -65v-233q0 -38 -23 -62t-63 -24h-86v71h90v243q0 48 26.5 84t69.5 44v14q-43 8 -69.5 44t-26.5 84v243h-90v71z" />
    <glyph glyph-name="asciitilde" unicode="~" 
d="M418 231q-51 0 -128 37q-70 34 -112 34q-39 0 -82 -31l-37 52q46 56 123 56q51 0 128 -37q70 -34 112 -34q39 0 82 31l37 -52q-46 -56 -123 -56z" />
    <glyph glyph-name="uni00A0" unicode="&#xa0;" horiz-adv-x="236" 
 />
    <glyph glyph-name="exclamdown" unicode="&#xa1;" horiz-adv-x="290" 
d="M195 -180h-100v201l28 305h44l28 -305v-201zM145 391q-33 0 -49.5 17t-16.5 45v15q0 28 16.5 45t49.5 17t49.5 -17t16.5 -45v-15q0 -28 -16.5 -45t-49.5 -17z" />
    <glyph glyph-name="cent" unicode="&#xa2;" horiz-adv-x="521" 
d="M313 -114h-77v105q-90 13 -140 84t-50 183t50 183t140 84v105h77v-104q117 -11 164 -118l-72 -40q-26 67 -94 79v-379q73 12 106 85l67 -43q-48 -108 -171 -120v-104zM143 214q0 -55 24.5 -93t70.5 -50v374q-46 -11 -70.5 -49.5t-24.5 -93.5v-88z" />
    <glyph glyph-name="sterling" unicode="&#xa3;" horiz-adv-x="592" 
d="M530 0h-451v107q74 32 74 134q0 18 -4 46h-94v80h70q-29 85 -29 133q0 94 63 152t171 58q145 0 218 -115l-72 -52q-54 82 -147 82q-63 0 -98 -35t-35 -101q0 -43 25 -122h212v-80h-188q2 -24 2 -38q0 -53 -22 -95.5t-53 -62.5v-6h358v-85z" />
    <glyph glyph-name="yen" unicode="&#xa5;" horiz-adv-x="614" 
d="M528 143h-174v-143h-96v143h-175v71h175v91h-175v71h131l-183 322h109l168 -307h5l163 307h106l-185 -322h131v-71h-174v-91h174v-71z" />
    <glyph glyph-name="brokenbar" unicode="&#xa6;" horiz-adv-x="332" 
d="M206 405h-80v355h80v-355zM206 -138h-80v355h80v-355z" />
    <glyph glyph-name="section" unicode="&#xa7;" horiz-adv-x="576" 
d="M474 6q0 -74 -55.5 -118t-145.5 -44q-108 0 -174 59l51 62q53 -45 124 -45q53 0 83 22t30 61q0 34 -25 55.5t-76 36.5l-66 19q-152 45 -152 152q0 98 108 142v9q-74 50 -74 133q0 73 55 116.5t145 43.5q108 0 175 -59l-52 -62q-53 45 -124 45q-52 0 -82 -22t-30 -60
q0 -34 25 -55.5t75 -36.5l66 -19q153 -45 153 -153q0 -97 -109 -142v-8q75 -47 75 -132zM421 263q0 39 -26.5 64.5t-83.5 41.5l-65 18q-7 2 -32 11q-59 -46 -59 -106q0 -39 26 -64.5t83 -41.5l65 -18q14 -4 32 -11q60 48 60 106z" />
    <glyph glyph-name="dieresis" unicode="&#xa8;" 
d="M204 615q-55 0 -55 49v14q0 49 55 49t55 -49v-14q0 -49 -55 -49zM396 615q-55 0 -55 49v14q0 49 55 49t55 -49v-14q0 -49 -55 -49z" />
    <glyph glyph-name="copyright" unicode="&#xa9;" horiz-adv-x="777" 
d="M389 -12q-146 0 -241.5 98.5t-95.5 261.5t95.5 261.5t241.5 98.5t241 -98.5t95 -261.5t-95 -261.5t-241 -98.5zM389 49q116 0 191.5 76.5t75.5 191.5v62q0 115 -75.5 191.5t-191.5 76.5q-117 0 -192.5 -76.5t-75.5 -191.5v-62q0 -115 75.5 -191.5t192.5 -76.5zM396 150
q-81 0 -127 53.5t-46 144.5t46 144.5t127 53.5q104 0 142 -92l-65 -35q-24 57 -77 57q-40 0 -62.5 -26t-22.5 -68v-68q0 -42 22.5 -68t62.5 -26q53 0 86 60l63 -37q-42 -93 -149 -93z" />
    <glyph glyph-name="ordfeminine" unicode="&#xaa;" horiz-adv-x="409" 
d="M369 404v-60h-39q-61 0 -64 55h-4q-28 -63 -111 -63q-52 0 -81 27.5t-29 73.5q0 105 151 105h68v26q0 76 -72 76q-65 0 -91 -51l-44 37q39 70 139 70q65 0 102 -33.5t37 -95.5v-167h38zM260 494h-69q-80 0 -80 -46v-11q0 -47 59 -47q37 0 63.5 17.5t26.5 45.5v41z" />
    <glyph glyph-name="guillemotleft" unicode="&#xab;" horiz-adv-x="521" 
d="M469 136l-28 -61l-191 165v84l191 165l28 -61l-134 -146zM255 136l-28 -61l-191 165v84l191 165l28 -61l-134 -146z" />
    <glyph glyph-name="logicalnot" unicode="&#xac;" horiz-adv-x="616" 
d="M549 78h-80v188h-405v78h485v-266z" />
    <glyph glyph-name="uni00AD" unicode="&#xad;" horiz-adv-x="400" 
d="M334 256h-268v97h268v-97z" />
    <glyph glyph-name="registered" unicode="&#xae;" horiz-adv-x="474" 
d="M237 298q-82 0 -140.5 59.5t-58.5 146.5t58.5 146.5t140.5 59.5t140.5 -59.5t58.5 -146.5t-58.5 -146.5t-140.5 -59.5zM237 339q66 0 110 45t44 108v24q0 63 -44 108t-110 45t-110 -45t-44 -108v-24q0 -63 44 -108t110 -45zM204 473v-76h-44v209h92q32 0 49.5 -18
t17.5 -47q0 -44 -39 -62l48 -82h-49l-42 76h-33zM204 508h44q24 0 24 21v20q0 21 -24 21h-44v-62z" />
    <glyph glyph-name="macron" unicode="&#xaf;" 
d="M158 635v74h284v-74h-284z" />
    <glyph glyph-name="degree" unicode="&#xb0;" horiz-adv-x="468" 
d="M234 360q-73 0 -122 50t-49 125t49 125t122 50t122 -50t49 -125t-49 -125t-122 -50zM234 430q43 0 69 30t26 75t-26 75t-69 30t-69 -30t-26 -75t26 -75t69 -30z" />
    <glyph glyph-name="plusminus" unicode="&#xb1;" 
d="M343 159h-86v192h-190v78h190v192h86v-192h190v-78h-190v-192zM533 0h-466v78h466v-78z" />
    <glyph glyph-name="twosuperior" unicode="&#xb2;" horiz-adv-x="346" 
d="M313 385v-56h-275v63l128 102q61 50 61 94v6q0 24 -16.5 37.5t-44.5 13.5q-54 0 -74 -55l-60 22q30 92 139 92q62 0 96.5 -30.5t34.5 -79.5q0 -41 -25 -74t-74 -68l-89 -67h199z" />
    <glyph glyph-name="threesuperior" unicode="&#xb3;" horiz-adv-x="347" 
d="M116 548h38q71 0 71 48v4q0 22 -16 35t-45 13q-53 0 -83 -44l-46 39q45 61 131 61q60 0 97 -26t37 -70q0 -34 -22 -56t-56 -28v-4q37 -6 60.5 -29t23.5 -60q0 -49 -40 -78.5t-106 -29.5q-91 0 -140 68l53 38q31 -50 87 -50q34 0 53 15t19 42v5q0 50 -74 50h-42v57z" />
    <glyph glyph-name="acute" unicode="&#xb4;" 
d="M420 746l-111 -162l-59 27l88 175z" />
    <glyph glyph-name="mu" unicode="&#xb5;" horiz-adv-x="579" 
d="M175 -200h-93v718h93v-318q0 -131 109 -131q50 0 85 25t35 71v353h93v-518h-93v85h-4q-39 -97 -137 -97q-69 0 -96 50h-3l11 -95v-143z" />
    <glyph glyph-name="paragraph" unicode="&#xb6;" horiz-adv-x="657" 
d="M245 -149v441q-82 0 -139.5 60t-57.5 143t57.5 143t139.5 60h335v-76h-66v-771h-80v771h-109v-771h-80z" />
    <glyph glyph-name="periodcentered" unicode="&#xb7;" horiz-adv-x="338" 
d="M169 235q-33 0 -49.5 17t-16.5 45v15q0 28 16.5 45t49.5 17t49.5 -17t16.5 -45v-15q0 -28 -16.5 -45t-49.5 -17z" />
    <glyph glyph-name="cedilla" unicode="&#xb8;" 
d="M312 -208q-74 0 -103 42l39 43q22 -28 62 -28q44 0 44 30q0 31 -69 41l-27 4l20 98h53l-16 -82l3 -3q20 6 40 6q31 0 50 -17t19 -49q0 -42 -32.5 -63.5t-82.5 -21.5z" />
    <glyph glyph-name="onesuperior" unicode="&#xb9;" horiz-adv-x="355" 
d="M324 329h-271v56h106v252l-101 -52l-27 50l123 63h75v-313h95v-56z" />
    <glyph glyph-name="ordmasculine" unicode="&#xba;" horiz-adv-x="406" 
d="M203 336q-75 0 -117.5 48.5t-42.5 133.5t42.5 133.5t117.5 48.5t117.5 -48.5t42.5 -133.5t-42.5 -133.5t-117.5 -48.5zM203 393q41 0 63 25t22 69v62q0 44 -22 69t-63 25t-63 -25t-22 -69v-62q0 -44 22 -69t63 -25z" />
    <glyph glyph-name="guillemotright" unicode="&#xbb;" horiz-adv-x="521" 
d="M294 75l-28 61l134 146l-134 146l28 61l191 -165v-84zM80 75l-28 61l134 146l-134 146l28 61l191 -165v-84z" />
    <glyph glyph-name="onequarter" unicode="&#xbc;" horiz-adv-x="849" 
d="M774 0h-67v72h-185v58l161 239h91v-244h54v-53h-54v-72zM707 125v177h-5l-120 -177h125zM239 0h-80l494 698h80zM324 329h-271v56h106v252l-101 -52l-27 50l123 63h75v-313h95v-56z" />
    <glyph glyph-name="onehalf" unicode="&#xbd;" horiz-adv-x="873" 
d="M840 56v-56h-275v63l128 102q61 50 61 94v6q0 24 -16.5 37.5t-44.5 13.5q-54 0 -74 -55l-60 22q30 92 139 92q62 0 96.5 -30.5t34.5 -79.5q0 -41 -25 -74t-74 -68l-89 -67h199zM239 0h-80l494 698h80zM324 329h-271v56h106v252l-101 -52l-27 50l123 63h75v-313h95v-56z
" />
    <glyph glyph-name="threequarters" unicode="&#xbe;" horiz-adv-x="831" 
d="M756 0h-67v72h-185v58l161 239h91v-244h54v-53h-54v-72zM689 125v177h-5l-120 -177h125zM221 0h-80l494 698h80zM116 548h38q71 0 71 48v4q0 22 -16 35t-45 13q-53 0 -83 -44l-46 39q45 61 131 61q60 0 97 -26t37 -70q0 -34 -22 -56t-56 -28v-4q37 -6 60.5 -29t23.5 -60
q0 -49 -40 -78.5t-106 -29.5q-91 0 -140 68l53 38q31 -50 87 -50q34 0 53 15t19 42v5q0 50 -74 50h-42v57z" />
    <glyph glyph-name="questiondown" unicode="&#xbf;" horiz-adv-x="472" 
d="M242 -192q-95 0 -151 52.5t-56 139.5t53 138.5t129 65.5v101h89v-162q-82 -4 -127 -38t-45 -95v-14q0 -48 30.5 -76.5t80.5 -28.5q52 0 85.5 30.5t45.5 80.5l84 -33q-21 -71 -75 -116t-143 -45zM263 391q-33 0 -49.5 17t-16.5 45v15q0 28 16.5 45t49.5 17t49.5 -17
t16.5 -45v-15q0 -28 -16.5 -45t-49.5 -17z" />
    <glyph glyph-name="Agrave" unicode="&#xc0;" horiz-adv-x="649" 
d="M316 752l-111 162l82 40l88 -174zM627 0h-102l-66 197h-272l-67 -197h-98l242 698h122zM435 283l-110 326h-5l-110 -326h225z" />
    <glyph glyph-name="Aacute" unicode="&#xc1;" horiz-adv-x="649" 
d="M445 914l-111 -162l-59 28l88 174zM627 0h-102l-66 197h-272l-67 -197h-98l242 698h122zM435 283l-110 326h-5l-110 -326h225z" />
    <glyph glyph-name="Acircumflex" unicode="&#xc2;" horiz-adv-x="649" 
d="M273 939h104l115 -146l-49 -36l-118 116l-118 -116l-49 36zM627 0h-102l-66 197h-272l-67 -197h-98l242 698h122zM435 283l-110 326h-5l-110 -326h225z" />
    <glyph glyph-name="Atilde" unicode="&#xc3;" horiz-adv-x="649" 
d="M399 778q-30 0 -80 25q-45 23 -71 23q-27 0 -59 -26l-36 45q36 55 98 55q30 0 80 -25q45 -23 71 -23q27 0 59 26l36 -45q-36 -55 -98 -55zM627 0h-102l-66 197h-272l-67 -197h-98l242 698h122zM435 283l-110 326h-5l-110 -326h225z" />
    <glyph glyph-name="Adieresis" unicode="&#xc4;" horiz-adv-x="649" 
d="M229 783q-55 0 -55 49v16q0 49 55 49t55 -49v-16q0 -49 -55 -49zM421 783q-55 0 -55 49v16q0 49 55 49t55 -49v-16q0 -49 -55 -49zM627 0h-102l-66 197h-272l-67 -197h-98l242 698h122zM435 283l-110 326h-5l-110 -326h225z" />
    <glyph glyph-name="Aring" unicode="&#xc5;" horiz-adv-x="649" 
d="M325 742q-51 0 -86.5 34.5t-35.5 85.5t35.5 85.5t86.5 34.5t86.5 -34.5t35.5 -85.5t-35.5 -85.5t-86.5 -34.5zM325 796q27 0 42 14t15 40v24q0 26 -15 40t-42 14t-42 -14t-15 -40v-24q0 -26 15 -40t42 -14zM627 0h-102l-66 197h-272l-67 -197h-98l242 698h122zM435 283
l-110 326h-5l-110 -326h225z" />
    <glyph glyph-name="AE" unicode="&#xc6;" horiz-adv-x="919" 
d="M421 0v198h-222l-97 -198h-99l354 698h499v-86h-338v-216h313v-86h-313v-224h338v-86h-435zM421 612h-15l-167 -330h182v330z" />
    <glyph glyph-name="Ccedilla" unicode="&#xc7;" horiz-adv-x="627" 
d="M343 623q-85 0 -134 -59.5t-49 -161.5v-106q0 -102 49 -161.5t134 -59.5q63 0 106.5 32.5t63.5 88.5l78 -47q-68 -151 -229 -160l-10 -49l3 -3q21 6 41 6q31 0 50 -17t19 -49q0 -42 -33 -63.5t-82 -21.5q-75 0 -104 42l39 43q24 -28 62 -28q44 0 44 30q0 31 -69 41l-27 4
l14 66q-120 11 -186.5 104t-66.5 255q0 173 76 267t211 94q174 0 244 -155l-80 -46q-43 114 -164 114z" />
    <glyph glyph-name="Egrave" unicode="&#xc8;" horiz-adv-x="588" 
d="M297 752l-111 162l82 40l88 -174zM525 0h-435v698h435v-86h-338v-216h313v-86h-313v-224h338v-86z" />
    <glyph glyph-name="Eacute" unicode="&#xc9;" horiz-adv-x="588" 
d="M426 914l-111 -162l-59 28l88 174zM525 0h-435v698h435v-86h-338v-216h313v-86h-313v-224h338v-86z" />
    <glyph glyph-name="Ecircumflex" unicode="&#xca;" horiz-adv-x="588" 
d="M254 939h104l115 -146l-49 -36l-118 116l-118 -116l-49 36zM525 0h-435v698h435v-86h-338v-216h313v-86h-313v-224h338v-86z" />
    <glyph glyph-name="Edieresis" unicode="&#xcb;" horiz-adv-x="588" 
d="M210 783q-55 0 -55 49v16q0 49 55 49t55 -49v-16q0 -49 -55 -49zM402 783q-55 0 -55 49v16q0 49 55 49t55 -49v-16q0 -49 -55 -49zM525 0h-435v698h435v-86h-338v-216h313v-86h-313v-224h338v-86z" />
    <glyph glyph-name="Igrave" unicode="&#xcc;" horiz-adv-x="407" 
d="M194 752l-111 162l82 40l88 -174zM349 0h-291v82h97v534h-97v82h291v-82h-97v-534h97v-82z" />
    <glyph glyph-name="Iacute" unicode="&#xcd;" horiz-adv-x="407" 
d="M323 914l-111 -162l-59 28l88 174zM349 0h-291v82h97v534h-97v82h291v-82h-97v-534h97v-82z" />
    <glyph glyph-name="Icircumflex" unicode="&#xce;" horiz-adv-x="407" 
d="M151 939h104l115 -146l-49 -36l-118 116l-118 -116l-49 36zM349 0h-291v82h97v534h-97v82h291v-82h-97v-534h97v-82z" />
    <glyph glyph-name="Idieresis" unicode="&#xcf;" horiz-adv-x="407" 
d="M107 783q-55 0 -55 49v16q0 49 55 49t55 -49v-16q0 -49 -55 -49zM299 783q-55 0 -55 49v16q0 49 55 49t55 -49v-16q0 -49 -55 -49zM349 0h-291v82h97v534h-97v82h291v-82h-97v-534h97v-82z" />
    <glyph glyph-name="Eth" unicode="&#xd0;" horiz-adv-x="679" 
d="M93 0v329h-78v74h78v295h239q136 0 213.5 -89t77.5 -260t-77.5 -260t-213.5 -89h-239zM190 86h142q85 0 136 54.5t51 152.5v112q0 98 -51 152.5t-136 54.5h-142v-209h134v-74h-134v-243z" />
    <glyph glyph-name="Ntilde" unicode="&#xd1;" horiz-adv-x="710" 
d="M429 778q-30 0 -80 25q-45 23 -71 23q-27 0 -59 -26l-36 45q36 55 98 55q30 0 80 -25q45 -23 71 -23q27 0 59 26l36 -45q-36 -55 -98 -55zM512 0l-229 382l-96 175h-3v-557h-94v698h108l229 -382l96 -175h3v557h94v-698h-108z" />
    <glyph glyph-name="Ograve" unicode="&#xd2;" horiz-adv-x="708" 
d="M345 752l-111 162l82 40l88 -174zM354 -12q-138 0 -218 94t-80 267t80 267t218 94t218 -94t80 -267t-80 -267t-218 -94zM354 75q88 0 141 59t53 158v114q0 99 -53 158t-141 59t-141 -59t-53 -158v-114q0 -99 53 -158t141 -59z" />
    <glyph glyph-name="Oacute" unicode="&#xd3;" horiz-adv-x="708" 
d="M474 914l-111 -162l-59 28l88 174zM354 -12q-138 0 -218 94t-80 267t80 267t218 94t218 -94t80 -267t-80 -267t-218 -94zM354 75q88 0 141 59t53 158v114q0 99 -53 158t-141 59t-141 -59t-53 -158v-114q0 -99 53 -158t141 -59z" />
    <glyph glyph-name="Ocircumflex" unicode="&#xd4;" horiz-adv-x="708" 
d="M302 939h104l115 -146l-49 -36l-118 116l-118 -116l-49 36zM354 -12q-138 0 -218 94t-80 267t80 267t218 94t218 -94t80 -267t-80 -267t-218 -94zM354 75q88 0 141 59t53 158v114q0 99 -53 158t-141 59t-141 -59t-53 -158v-114q0 -99 53 -158t141 -59z" />
    <glyph glyph-name="Otilde" unicode="&#xd5;" horiz-adv-x="708" 
d="M428 778q-30 0 -80 25q-45 23 -71 23q-27 0 -59 -26l-36 45q36 55 98 55q30 0 80 -25q45 -23 71 -23q27 0 59 26l36 -45q-36 -55 -98 -55zM354 -12q-138 0 -218 94t-80 267t80 267t218 94t218 -94t80 -267t-80 -267t-218 -94zM354 75q88 0 141 59t53 158v114
q0 99 -53 158t-141 59t-141 -59t-53 -158v-114q0 -99 53 -158t141 -59z" />
    <glyph glyph-name="Odieresis" unicode="&#xd6;" horiz-adv-x="708" 
d="M258 783q-55 0 -55 49v16q0 49 55 49t55 -49v-16q0 -49 -55 -49zM450 783q-55 0 -55 49v16q0 49 55 49t55 -49v-16q0 -49 -55 -49zM354 -12q-138 0 -218 94t-80 267t80 267t218 94t218 -94t80 -267t-80 -267t-218 -94zM354 75q88 0 141 59t53 158v114q0 99 -53 158
t-141 59t-141 -59t-53 -158v-114q0 -99 53 -158t141 -59z" />
    <glyph glyph-name="multiply" unicode="&#xd7;" 
d="M455 89l-155 160l-155 -160l-55 55l155 160l-155 160l55 55l155 -160l155 160l55 -55l-155 -160l155 -160z" />
    <glyph glyph-name="Oslash" unicode="&#xd8;" horiz-adv-x="708" 
d="M354 -12q-99 0 -169 49l-59 -84l-63 41l66 97q-73 93 -73 258q0 173 80 267t218 94q99 0 169 -49l59 84l63 -41l-66 -97q73 -93 73 -258q0 -173 -80 -267t-218 -94zM160 292q0 -69 27 -121l285 414q-49 38 -118 38q-88 0 -141 -59t-53 -158v-114zM548 406q0 69 -27 121
l-285 -414q49 -38 118 -38q88 0 141 59t53 158v114z" />
    <glyph glyph-name="Ugrave" unicode="&#xd9;" horiz-adv-x="682" 
d="M330 752l-111 162l82 40l88 -174zM85 698h97v-431q0 -98 36.5 -145t122.5 -47t122.5 47t36.5 145v431h97v-412q0 -156 -59.5 -227t-199.5 -71q-139 0 -196 70.5t-57 227.5v412z" />
    <glyph glyph-name="Uacute" unicode="&#xda;" horiz-adv-x="682" 
d="M459 914l-111 -162l-59 28l88 174zM85 698h97v-431q0 -98 36.5 -145t122.5 -47t122.5 47t36.5 145v431h97v-412q0 -156 -59.5 -227t-199.5 -71q-139 0 -196 70.5t-57 227.5v412z" />
    <glyph glyph-name="Ucircumflex" unicode="&#xdb;" horiz-adv-x="682" 
d="M287 939h104l115 -146l-49 -36l-118 116l-118 -116l-49 36zM85 698h97v-431q0 -98 36.5 -145t122.5 -47t122.5 47t36.5 145v431h97v-412q0 -156 -59.5 -227t-199.5 -71q-139 0 -196 70.5t-57 227.5v412z" />
    <glyph glyph-name="Udieresis" unicode="&#xdc;" horiz-adv-x="682" 
d="M243 783q-55 0 -55 49v16q0 49 55 49t55 -49v-16q0 -49 -55 -49zM435 783q-55 0 -55 49v16q0 49 55 49t55 -49v-16q0 -49 -55 -49zM85 698h97v-431q0 -98 36.5 -145t122.5 -47t122.5 47t36.5 145v431h97v-412q0 -156 -59.5 -227t-199.5 -71q-139 0 -196 70.5t-57 227.5
v412z" />
    <glyph glyph-name="Yacute" unicode="&#xdd;" horiz-adv-x="603" 
d="M422 914l-111 -162l-59 28l88 174zM349 0h-97v275l-240 423h111l179 -325h3l178 325h108l-242 -420v-278z" />
    <glyph glyph-name="Thorn" unicode="&#xde;" horiz-adv-x="617" 
d="M187 0h-97v698h97v-139h191q93 0 146 -55.5t53 -149.5t-53 -149.5t-146 -55.5h-191v-149zM187 473v-238h187q47 0 73 24.5t26 69.5v50q0 45 -26 69.5t-73 24.5h-187z" />
    <glyph glyph-name="germandbls" unicode="&#xdf;" horiz-adv-x="650" 
d="M623 154q0 -77 -49.5 -121.5t-133.5 -44.5q-116 0 -179 82l60 56q50 -62 123 -62q43 0 67 21t24 58q0 31 -15.5 50t-53.5 28l-31 7q-68 17 -104 50t-36 98q0 66 45.5 104.5t125.5 42.5v5q0 148 -132 148q-67 0 -99 -36.5t-32 -111.5v-528h-93v439h-83v79h83v5
q0 106 59.5 167.5t163.5 61.5t163 -61.5t59 -167.5v-68h-48q-123 0 -123 -74q0 -33 18 -49.5t57 -26.5l31 -7q70 -17 101.5 -51.5t31.5 -92.5z" />
    <glyph glyph-name="agrave" unicode="&#xe0;" horiz-adv-x="541" 
d="M246 584l-111 162l82 40l88 -175zM512 0h-53q-79 0 -91 86h-5q-16 -48 -55 -73t-95 -25q-80 0 -125.5 41.5t-45.5 113.5q0 154 221 154h98v47q0 108 -115 108q-82 0 -127 -74l-56 51q56 101 188 101q97 0 150 -47t53 -131v-273h58v-79zM234 63q55 0 91 25t36 64v80h-99
q-123 0 -123 -74v-20q0 -36 25.5 -55.5t69.5 -19.5z" />
    <glyph glyph-name="aacute" unicode="&#xe1;" horiz-adv-x="541" 
d="M375 746l-111 -162l-59 27l88 175zM512 0h-53q-79 0 -91 86h-5q-16 -48 -55 -73t-95 -25q-80 0 -125.5 41.5t-45.5 113.5q0 154 221 154h98v47q0 108 -115 108q-82 0 -127 -74l-56 51q56 101 188 101q97 0 150 -47t53 -131v-273h58v-79zM234 63q55 0 91 25t36 64v80h-99
q-123 0 -123 -74v-20q0 -36 25.5 -55.5t69.5 -19.5z" />
    <glyph glyph-name="acircumflex" unicode="&#xe2;" horiz-adv-x="541" 
d="M203 771h104l115 -146l-49 -36l-118 116l-118 -116l-49 36zM512 0h-53q-79 0 -91 86h-5q-16 -48 -55 -73t-95 -25q-80 0 -125.5 41.5t-45.5 113.5q0 154 221 154h98v47q0 108 -115 108q-82 0 -127 -74l-56 51q56 101 188 101q97 0 150 -47t53 -131v-273h58v-79zM234 63
q55 0 91 25t36 64v80h-99q-123 0 -123 -74v-20q0 -36 25.5 -55.5t69.5 -19.5z" />
    <glyph glyph-name="atilde" unicode="&#xe3;" horiz-adv-x="541" 
d="M329 610q-30 0 -80 25q-45 23 -71 23q-27 0 -59 -26l-36 45q36 55 98 55q30 0 80 -25q45 -23 71 -23q27 0 59 26l36 -45q-36 -55 -98 -55zM512 0h-53q-79 0 -91 86h-5q-16 -48 -55 -73t-95 -25q-80 0 -125.5 41.5t-45.5 113.5q0 154 221 154h98v47q0 108 -115 108
q-82 0 -127 -74l-56 51q56 101 188 101q97 0 150 -47t53 -131v-273h58v-79zM234 63q55 0 91 25t36 64v80h-99q-123 0 -123 -74v-20q0 -36 25.5 -55.5t69.5 -19.5z" />
    <glyph glyph-name="adieresis" unicode="&#xe4;" horiz-adv-x="541" 
d="M159 615q-55 0 -55 49v14q0 49 55 49t55 -49v-14q0 -49 -55 -49zM351 615q-55 0 -55 49v14q0 49 55 49t55 -49v-14q0 -49 -55 -49zM512 0h-53q-79 0 -91 86h-5q-16 -48 -55 -73t-95 -25q-80 0 -125.5 41.5t-45.5 113.5q0 154 221 154h98v47q0 108 -115 108
q-82 0 -127 -74l-56 51q56 101 188 101q97 0 150 -47t53 -131v-273h58v-79zM234 63q55 0 91 25t36 64v80h-99q-123 0 -123 -74v-20q0 -36 25.5 -55.5t69.5 -19.5z" />
    <glyph glyph-name="aring" unicode="&#xe5;" horiz-adv-x="541" 
d="M255 573q-51 0 -86.5 34.5t-35.5 85.5t35.5 85.5t86.5 34.5t86.5 -34.5t35.5 -85.5t-35.5 -85.5t-86.5 -34.5zM255 627q27 0 42 14t15 40v24q0 26 -15 40t-42 14t-42 -14t-15 -40v-24q0 -26 15 -40t42 -14zM512 0h-53q-79 0 -91 86h-5q-16 -48 -55 -73t-95 -25
q-80 0 -125.5 41.5t-45.5 113.5q0 154 221 154h98v47q0 108 -115 108q-82 0 -127 -74l-56 51q56 101 188 101q97 0 150 -47t53 -131v-273h58v-79zM234 63q55 0 91 25t36 64v80h-99q-123 0 -123 -74v-20q0 -36 25.5 -55.5t69.5 -19.5z" />
    <glyph glyph-name="ae" unicode="&#xe6;" horiz-adv-x="864" 
d="M361 236h-99q-123 -4 -123 -77v-20q0 -37 25 -56.5t71 -19.5q54 0 90 25t36 64v84zM455 301h265v10q0 65 -34.5 104.5t-92.5 39.5q-61 0 -99.5 -41.5t-38.5 -105.5v-7zM601 67q94 0 140 83l60 -50q-27 -52 -80 -82t-120 -30q-74 0 -127.5 36t-65.5 78h-6
q-11 -42 -61.5 -78t-128.5 -36t-124 42t-46 112q0 77 57 118t164 41h98v43q0 52 -28.5 80t-83.5 28q-86 0 -130 -74l-56 51q24 45 72 73t117 28q122 0 160 -107h6q13 39 63 73t119 34q102 0 160.5 -71.5t58.5 -183.5v-39h-365v-21q0 -65 39.5 -106.5t107.5 -41.5z" />
    <glyph glyph-name="ccedilla" unicode="&#xe7;" horiz-adv-x="505" 
d="M278 530q146 0 196 -124l-77 -38q-13 39 -44 60.5t-75 21.5q-65 0 -99.5 -40t-34.5 -106v-90q0 -66 34.5 -106t99.5 -40q91 0 132 88l68 -42q-50 -118 -181 -125l-10 -49l4 -3q19 6 40 6q31 0 50 -17t19 -49q0 -42 -32.5 -63.5t-82.5 -21.5q-74 0 -103 42l39 43
q22 -28 62 -28q44 0 44 30q0 31 -69 41l-27 4l13 66q-95 11 -147 82.5t-52 186.5q0 126 61.5 198.5t171.5 72.5z" />
    <glyph glyph-name="egrave" unicode="&#xe8;" horiz-adv-x="552" 
d="M272 584l-111 162l82 40l88 -175zM280 -12q-108 0 -171.5 74t-63.5 197t63.5 197t171.5 74q106 0 166.5 -71.5t60.5 -183.5v-39h-365v-21q0 -66 39 -107t107 -41q96 0 140 84l60 -51q-28 -51 -82.5 -81.5t-125.5 -30.5zM280 455q-61 0 -99.5 -41.5t-38.5 -105.5v-7h266
v10q0 65 -35 104.5t-93 39.5z" />
    <glyph glyph-name="eacute" unicode="&#xe9;" horiz-adv-x="552" 
d="M401 746l-111 -162l-59 27l88 175zM280 -12q-108 0 -171.5 74t-63.5 197t63.5 197t171.5 74q106 0 166.5 -71.5t60.5 -183.5v-39h-365v-21q0 -66 39 -107t107 -41q96 0 140 84l60 -51q-28 -51 -82.5 -81.5t-125.5 -30.5zM280 455q-61 0 -99.5 -41.5t-38.5 -105.5v-7h266
v10q0 65 -35 104.5t-93 39.5z" />
    <glyph glyph-name="ecircumflex" unicode="&#xea;" horiz-adv-x="552" 
d="M229 771h104l115 -146l-49 -36l-118 116l-118 -116l-49 36zM280 -12q-108 0 -171.5 74t-63.5 197t63.5 197t171.5 74q106 0 166.5 -71.5t60.5 -183.5v-39h-365v-21q0 -66 39 -107t107 -41q96 0 140 84l60 -51q-28 -51 -82.5 -81.5t-125.5 -30.5zM280 455
q-61 0 -99.5 -41.5t-38.5 -105.5v-7h266v10q0 65 -35 104.5t-93 39.5z" />
    <glyph glyph-name="edieresis" unicode="&#xeb;" horiz-adv-x="552" 
d="M185 615q-55 0 -55 49v14q0 49 55 49t55 -49v-14q0 -49 -55 -49zM377 615q-55 0 -55 49v14q0 49 55 49t55 -49v-14q0 -49 -55 -49zM280 -12q-108 0 -171.5 74t-63.5 197t63.5 197t171.5 74q106 0 166.5 -71.5t60.5 -183.5v-39h-365v-21q0 -66 39 -107t107 -41
q96 0 140 84l60 -51q-28 -51 -82.5 -81.5t-125.5 -30.5zM280 455q-61 0 -99.5 -41.5t-38.5 -105.5v-7h266v10q0 65 -35 104.5t-93 39.5z" />
    <glyph glyph-name="igrave" unicode="&#xec;" horiz-adv-x="257" 
d="M120 584l-111 162l82 40l88 -175zM175 0h-93v518h93v-518z" />
    <glyph glyph-name="iacute" unicode="&#xed;" horiz-adv-x="257" 
d="M249 746l-111 -162l-59 27l88 175zM175 0h-93v518h93v-518z" />
    <glyph glyph-name="icircumflex" unicode="&#xee;" horiz-adv-x="257" 
d="M77 771h104l115 -146l-49 -36l-118 116l-118 -116l-49 36zM175 0h-93v518h93v-518z" />
    <glyph glyph-name="idieresis" unicode="&#xef;" horiz-adv-x="257" 
d="M33 615q-55 0 -55 49v14q0 49 55 49t55 -49v-14q0 -49 -55 -49zM225 615q-55 0 -55 49v14q0 49 55 49t55 -49v-14q0 -49 -55 -49zM175 0h-93v518h93v-518z" />
    <glyph glyph-name="eth" unicode="&#xf0;" horiz-adv-x="565" 
d="M395 753l36 -45l-77 -53q162 -160 162 -383q0 -139 -63.5 -211.5t-170.5 -72.5q-108 0 -172 71.5t-64 187.5q0 115 61.5 185.5t163.5 70.5q98 0 135 -98l4 2q-21 104 -125 201l-81 -55l-35 45l72 49q-58 47 -136 93h143q37 -23 62 -46zM281 65q62 0 99 40t37 109v63
q0 69 -37 109t-99 40t-99 -40t-37 -109v-63q0 -69 37 -109t99 -40z" />
    <glyph glyph-name="ntilde" unicode="&#xf1;" horiz-adv-x="573" 
d="M364 610q-30 0 -80 25q-45 23 -71 23q-27 0 -59 -26l-36 45q36 55 98 55q30 0 80 -25q45 -23 71 -23q27 0 59 26l36 -45q-36 -55 -98 -55zM175 0h-93v518h93v-85h5q41 97 146 97q80 0 125.5 -52.5t45.5 -146.5v-331h-93v317q0 132 -109 132q-49 0 -84.5 -24.5
t-35.5 -69.5v-355z" />
    <glyph glyph-name="ograve" unicode="&#xf2;" horiz-adv-x="562" 
d="M272 584l-111 162l82 40l88 -175zM281 -12q-106 0 -171 74t-65 197t65 197t171 74t171 -74t65 -197t-65 -197t-171 -74zM281 68q63 0 100 39t37 113v78q0 74 -37 113t-100 39t-100 -39t-37 -113v-78q0 -74 37 -113t100 -39z" />
    <glyph glyph-name="oacute" unicode="&#xf3;" horiz-adv-x="562" 
d="M401 746l-111 -162l-59 27l88 175zM281 -12q-106 0 -171 74t-65 197t65 197t171 74t171 -74t65 -197t-65 -197t-171 -74zM281 68q63 0 100 39t37 113v78q0 74 -37 113t-100 39t-100 -39t-37 -113v-78q0 -74 37 -113t100 -39z" />
    <glyph glyph-name="ocircumflex" unicode="&#xf4;" horiz-adv-x="562" 
d="M229 771h104l115 -146l-49 -36l-118 116l-118 -116l-49 36zM281 -12q-106 0 -171 74t-65 197t65 197t171 74t171 -74t65 -197t-65 -197t-171 -74zM281 68q63 0 100 39t37 113v78q0 74 -37 113t-100 39t-100 -39t-37 -113v-78q0 -74 37 -113t100 -39z" />
    <glyph glyph-name="otilde" unicode="&#xf5;" horiz-adv-x="562" 
d="M355 610q-30 0 -80 25q-45 23 -71 23q-27 0 -59 -26l-36 45q36 55 98 55q30 0 80 -25q45 -23 71 -23q27 0 59 26l36 -45q-36 -55 -98 -55zM281 -12q-106 0 -171 74t-65 197t65 197t171 74t171 -74t65 -197t-65 -197t-171 -74zM281 68q63 0 100 39t37 113v78q0 74 -37 113
t-100 39t-100 -39t-37 -113v-78q0 -74 37 -113t100 -39z" />
    <glyph glyph-name="odieresis" unicode="&#xf6;" horiz-adv-x="562" 
d="M185 615q-55 0 -55 49v14q0 49 55 49t55 -49v-14q0 -49 -55 -49zM377 615q-55 0 -55 49v14q0 49 55 49t55 -49v-14q0 -49 -55 -49zM281 -12q-106 0 -171 74t-65 197t65 197t171 74t171 -74t65 -197t-65 -197t-171 -74zM281 68q63 0 100 39t37 113v78q0 74 -37 113
t-100 39t-100 -39t-37 -113v-78q0 -74 37 -113t100 -39z" />
    <glyph glyph-name="divide" unicode="&#xf7;" 
d="M533 266h-466v78h466v-78zM300 47q-67 0 -67 52v23q0 52 67 52t67 -52v-23q0 -52 -67 -52zM300 436q-67 0 -67 52v23q0 52 67 52t67 -52v-23q0 -52 -67 -52z" />
    <glyph glyph-name="oslash" unicode="&#xf8;" horiz-adv-x="568" 
d="M83 -42l-52 39l67 83q-50 72 -50 179q0 123 65 197t171 74q81 0 140 -45l61 75l52 -39l-67 -84q50 -70 50 -178q0 -123 -65 -197t-171 -74q-82 0 -140 44zM284 68q63 0 100 39t37 113v78q0 37 -11 68l-216 -268q34 -30 90 -30zM147 220q0 -41 10 -68l217 268
q-36 30 -90 30q-63 0 -100 -39t-37 -113v-78z" />
    <glyph glyph-name="ugrave" unicode="&#xf9;" horiz-adv-x="574" 
d="M276 584l-111 162l82 40l88 -175zM399 0v85h-5q-37 -97 -145 -97q-80 0 -126 52.5t-46 146.5v331h93v-317q0 -132 110 -132q49 0 84 24.5t35 70.5v354h93v-518h-93z" />
    <glyph glyph-name="uacute" unicode="&#xfa;" horiz-adv-x="574" 
d="M405 746l-111 -162l-59 27l88 175zM399 0v85h-5q-37 -97 -145 -97q-80 0 -126 52.5t-46 146.5v331h93v-317q0 -132 110 -132q49 0 84 24.5t35 70.5v354h93v-518h-93z" />
    <glyph glyph-name="ucircumflex" unicode="&#xfb;" horiz-adv-x="574" 
d="M233 771h104l115 -146l-49 -36l-118 116l-118 -116l-49 36zM399 0v85h-5q-37 -97 -145 -97q-80 0 -126 52.5t-46 146.5v331h93v-317q0 -132 110 -132q49 0 84 24.5t35 70.5v354h93v-518h-93z" />
    <glyph glyph-name="udieresis" unicode="&#xfc;" horiz-adv-x="574" 
d="M189 615q-55 0 -55 49v14q0 49 55 49t55 -49v-14q0 -49 -55 -49zM381 615q-55 0 -55 49v14q0 49 55 49t55 -49v-14q0 -49 -55 -49zM399 0v85h-5q-37 -97 -145 -97q-80 0 -126 52.5t-46 146.5v331h93v-317q0 -132 110 -132q49 0 84 24.5t35 70.5v354h93v-518h-93z" />
    <glyph glyph-name="yacute" unicode="&#xfd;" horiz-adv-x="506" 
d="M374 746l-111 -162l-59 27l88 175zM285 187l116 331h90l-225 -631q-19 -50 -44.5 -68.5t-83.5 -18.5h-51v79h85l35 100l-192 539h93l115 -331l27 -97h5z" />
    <glyph glyph-name="thorn" unicode="&#xfe;" horiz-adv-x="585" 
d="M82 -200v940h93v-307h4q36 97 149 97q97 0 152.5 -72.5t55.5 -198.5t-55.5 -198.5t-152.5 -72.5q-113 0 -149 97h-4v-285h-93zM301 69q62 0 99 40t37 106v88q0 66 -37 106t-99 40q-53 0 -89.5 -27t-36.5 -68v-190q0 -41 36.5 -68t89.5 -27z" />
    <glyph glyph-name="ydieresis" unicode="&#xff;" horiz-adv-x="506" 
d="M158 615q-55 0 -55 49v14q0 49 55 49t55 -49v-14q0 -49 -55 -49zM350 615q-55 0 -55 49v14q0 49 55 49t55 -49v-14q0 -49 -55 -49zM285 187l116 331h90l-225 -631q-19 -50 -44.5 -68.5t-83.5 -18.5h-51v79h85l35 100l-192 539h93l115 -331l27 -97h5z" />
    <glyph glyph-name="Amacron" unicode="&#x100;" horiz-adv-x="649" 
d="M183 803v74h284v-74h-284zM627 0h-102l-66 197h-272l-67 -197h-98l242 698h122zM435 283l-110 326h-5l-110 -326h225z" />
    <glyph glyph-name="amacron" unicode="&#x101;" horiz-adv-x="541" 
d="M113 635v74h284v-74h-284zM512 0h-53q-79 0 -91 86h-5q-16 -48 -55 -73t-95 -25q-80 0 -125.5 41.5t-45.5 113.5q0 154 221 154h98v47q0 108 -115 108q-82 0 -127 -74l-56 51q56 101 188 101q97 0 150 -47t53 -131v-273h58v-79zM234 63q55 0 91 25t36 64v80h-99
q-123 0 -123 -74v-20q0 -36 25.5 -55.5t69.5 -19.5z" />
    <glyph glyph-name="Abreve" unicode="&#x102;" horiz-adv-x="649" 
d="M325 761q-39 0 -67.5 12t-46.5 34.5t-27 41t-18 46.5l52 25l20 -33q18 -28 36 -41.5t51 -13.5t51 13.5t36 41.5l20 33l52 -25q-9 -28 -18 -46.5t-27 -41t-46.5 -34.5t-67.5 -12zM627 0h-102l-66 197h-272l-67 -197h-98l242 698h122zM435 283l-110 326h-5l-110 -326h225z
" />
    <glyph glyph-name="abreve" unicode="&#x103;" horiz-adv-x="541" 
d="M255 593q-39 0 -67.5 11.5t-46.5 34t-27 41.5t-18 46l52 26l20 -33q18 -29 36 -42.5t51 -13.5t51 13.5t36 42.5l20 33l52 -26q-9 -27 -18 -46t-27 -41.5t-46.5 -34t-67.5 -11.5zM512 0h-53q-79 0 -91 86h-5q-16 -48 -55 -73t-95 -25q-80 0 -125.5 41.5t-45.5 113.5
q0 154 221 154h98v47q0 108 -115 108q-82 0 -127 -74l-56 51q56 101 188 101q97 0 150 -47t53 -131v-273h58v-79zM234 63q55 0 91 25t36 64v80h-99q-123 0 -123 -74v-20q0 -36 25.5 -55.5t69.5 -19.5z" />
    <glyph glyph-name="Aogonek" unicode="&#x104;" horiz-adv-x="649" 
d="M22 0l242 698h122l241 -698q-62 -53 -81.5 -77t-19.5 -43q0 -30 32 -30q30 0 49 25l43 -42q-23 -41 -95 -41q-44 0 -72 19.5t-28 58.5q0 36 26 64t78 62l-1 4h-33l-66 197h-272l-67 -197h-98zM435 283l-110 326h-5l-110 -326h225z" />
    <glyph glyph-name="aogonek" unicode="&#x105;" horiz-adv-x="541" 
d="M512 79v-79q-63 -53 -82.5 -77.5t-19.5 -42.5q0 -30 33 -30q30 0 49 25l43 -42q-23 -41 -95 -41q-44 0 -72 19.5t-28 58.5q0 36 26.5 65t78.5 63l-1 3q-66 8 -76 85h-5q-16 -48 -55 -73t-95 -25q-80 0 -125.5 41.5t-45.5 113.5q0 154 221 154h98v47q0 108 -115 108
q-82 0 -127 -74l-56 51q56 101 188 101q97 0 150 -47t53 -131v-273h58zM361 232h-99q-123 0 -123 -74v-20q0 -36 25.5 -55.5t69.5 -19.5q55 0 91 25t36 64v80z" />
    <glyph glyph-name="Cacute" unicode="&#x106;" horiz-adv-x="627" 
d="M461 914l-111 -162l-59 28l88 174zM343 -12q-135 0 -211 94t-76 267t76 267t211 94q174 0 244 -155l-80 -46q-43 114 -164 114q-85 0 -134 -59.5t-49 -161.5v-106q0 -102 49 -161.5t134 -59.5q63 0 106.5 32.5t63.5 88.5l78 -47q-34 -77 -97.5 -119t-150.5 -42z" />
    <glyph glyph-name="cacute" unicode="&#x107;" horiz-adv-x="505" 
d="M395 746l-111 -162l-59 27l88 175zM278 -12q-110 0 -171.5 72.5t-61.5 198.5t61.5 198.5t171.5 72.5q146 0 196 -124l-77 -38q-13 39 -44 60.5t-75 21.5q-65 0 -99.5 -40t-34.5 -106v-90q0 -66 34.5 -106t99.5 -40q91 0 132 88l68 -42q-25 -60 -76 -93t-124 -33z" />
    <glyph glyph-name="Ccircumflex" unicode="&#x108;" horiz-adv-x="627" 
d="M289 939h104l115 -146l-49 -36l-118 116l-118 -116l-49 36zM343 -12q-135 0 -211 94t-76 267t76 267t211 94q174 0 244 -155l-80 -46q-43 114 -164 114q-85 0 -134 -59.5t-49 -161.5v-106q0 -102 49 -161.5t134 -59.5q63 0 106.5 32.5t63.5 88.5l78 -47
q-34 -77 -97.5 -119t-150.5 -42z" />
    <glyph glyph-name="ccircumflex" unicode="&#x109;" horiz-adv-x="505" 
d="M223 771h104l115 -146l-49 -36l-118 116l-118 -116l-49 36zM278 -12q-110 0 -171.5 72.5t-61.5 198.5t61.5 198.5t171.5 72.5q146 0 196 -124l-77 -38q-13 39 -44 60.5t-75 21.5q-65 0 -99.5 -40t-34.5 -106v-90q0 -66 34.5 -106t99.5 -40q91 0 132 88l68 -42
q-25 -60 -76 -93t-124 -33z" />
    <glyph glyph-name="Cdotaccent" unicode="&#x10a;" horiz-adv-x="627" 
d="M341 775q-62 0 -62 56v17q0 56 62 56t62 -56v-17q0 -56 -62 -56zM343 -12q-135 0 -211 94t-76 267t76 267t211 94q174 0 244 -155l-80 -46q-43 114 -164 114q-85 0 -134 -59.5t-49 -161.5v-106q0 -102 49 -161.5t134 -59.5q63 0 106.5 32.5t63.5 88.5l78 -47
q-34 -77 -97.5 -119t-150.5 -42z" />
    <glyph glyph-name="cdotaccent" unicode="&#x10b;" horiz-adv-x="505" 
d="M275 611q-58 0 -58 51v14q0 51 58 51t58 -51v-14q0 -51 -58 -51zM278 -12q-110 0 -171.5 72.5t-61.5 198.5t61.5 198.5t171.5 72.5q146 0 196 -124l-77 -38q-13 39 -44 60.5t-75 21.5q-65 0 -99.5 -40t-34.5 -106v-90q0 -66 34.5 -106t99.5 -40q91 0 132 88l68 -42
q-25 -60 -76 -93t-124 -33z" />
    <glyph glyph-name="Ccaron" unicode="&#x10c;" horiz-adv-x="627" 
d="M393 765h-104l-115 146l49 36l118 -116l118 116l49 -36zM343 -12q-135 0 -211 94t-76 267t76 267t211 94q174 0 244 -155l-80 -46q-43 114 -164 114q-85 0 -134 -59.5t-49 -161.5v-106q0 -102 49 -161.5t134 -59.5q63 0 106.5 32.5t63.5 88.5l78 -47q-34 -77 -97.5 -119
t-150.5 -42z" />
    <glyph glyph-name="ccaron" unicode="&#x10d;" horiz-adv-x="505" 
d="M327 597h-104l-115 146l49 36l118 -117l118 117l49 -36zM278 -12q-110 0 -171.5 72.5t-61.5 198.5t61.5 198.5t171.5 72.5q146 0 196 -124l-77 -38q-13 39 -44 60.5t-75 21.5q-65 0 -99.5 -40t-34.5 -106v-90q0 -66 34.5 -106t99.5 -40q91 0 132 88l68 -42
q-25 -60 -76 -93t-124 -33z" />
    <glyph glyph-name="Dcaron" unicode="&#x10e;" horiz-adv-x="676" 
d="M362 765h-104l-115 146l49 36l118 -116l118 116l49 -36zM90 0v698h239q136 0 213.5 -89t77.5 -260t-77.5 -260t-213.5 -89h-239zM187 86h142q85 0 136 54.5t51 152.5v112q0 98 -51 152.5t-136 54.5h-142v-526z" />
    <glyph glyph-name="dcaron" unicode="&#x10f;" horiz-adv-x="618" 
d="M410 0v85h-4q-36 -97 -149 -97q-97 0 -152.5 72.5t-55.5 198.5t55.5 198.5t152.5 72.5q113 0 149 -97h4v307h93v-740h-93zM284 69q53 0 89.5 27t36.5 68v190q0 41 -36.5 68t-89.5 27q-62 0 -99 -40t-37 -106v-88q0 -66 37 -106t99 -40zM676 740l-55 -191h-61l11 191h105z
" />
    <glyph glyph-name="Dcroat" unicode="&#x110;" horiz-adv-x="679" 
d="M93 0v329h-78v74h78v295h239q136 0 213.5 -89t77.5 -260t-77.5 -260t-213.5 -89h-239zM190 86h142q85 0 136 54.5t51 152.5v112q0 98 -51 152.5t-136 54.5h-142v-209h134v-74h-134v-243z" />
    <glyph glyph-name="dcroat" unicode="&#x111;" horiz-adv-x="585" 
d="M410 0v85h-4q-36 -97 -149 -97q-97 0 -152.5 72.5t-55.5 198.5t55.5 198.5t152.5 72.5q113 0 149 -97h4v173h-148v68h148v66h93v-66h64v-68h-64v-606h-93zM284 69q53 0 89.5 27t36.5 68v190q0 41 -36.5 68t-89.5 27q-62 0 -99 -40t-37 -106v-88q0 -66 37 -106t99 -40z
" />
    <glyph glyph-name="Emacron" unicode="&#x112;" horiz-adv-x="588" 
d="M164 803v74h284v-74h-284zM525 0h-435v698h435v-86h-338v-216h313v-86h-313v-224h338v-86z" />
    <glyph glyph-name="emacron" unicode="&#x113;" horiz-adv-x="552" 
d="M139 635v74h284v-74h-284zM280 -12q-108 0 -171.5 74t-63.5 197t63.5 197t171.5 74q106 0 166.5 -71.5t60.5 -183.5v-39h-365v-21q0 -66 39 -107t107 -41q96 0 140 84l60 -51q-28 -51 -82.5 -81.5t-125.5 -30.5zM280 455q-61 0 -99.5 -41.5t-38.5 -105.5v-7h266v10
q0 65 -35 104.5t-93 39.5z" />
    <glyph glyph-name="Ebreve" unicode="&#x114;" horiz-adv-x="588" 
d="M306 761q-39 0 -67.5 12t-46.5 34.5t-27 41t-18 46.5l52 25l20 -33q18 -28 36 -41.5t51 -13.5t51 13.5t36 41.5l20 33l52 -25q-9 -28 -18 -46.5t-27 -41t-46.5 -34.5t-67.5 -12zM525 0h-435v698h435v-86h-338v-216h313v-86h-313v-224h338v-86z" />
    <glyph glyph-name="ebreve" unicode="&#x115;" horiz-adv-x="552" 
d="M281 593q-39 0 -67.5 11.5t-46.5 34t-27 41.5t-18 46l52 26l20 -33q18 -29 36 -42.5t51 -13.5t51 13.5t36 42.5l20 33l52 -26q-9 -27 -18 -46t-27 -41.5t-46.5 -34t-67.5 -11.5zM280 -12q-108 0 -171.5 74t-63.5 197t63.5 197t171.5 74q106 0 166.5 -71.5t60.5 -183.5
v-39h-365v-21q0 -66 39 -107t107 -41q96 0 140 84l60 -51q-28 -51 -82.5 -81.5t-125.5 -30.5zM280 455q-61 0 -99.5 -41.5t-38.5 -105.5v-7h266v10q0 65 -35 104.5t-93 39.5z" />
    <glyph glyph-name="Edotaccent" unicode="&#x116;" horiz-adv-x="588" 
d="M306 775q-62 0 -62 56v17q0 56 62 56t62 -56v-17q0 -56 -62 -56zM525 0h-435v698h435v-86h-338v-216h313v-86h-313v-224h338v-86z" />
    <glyph glyph-name="edotaccent" unicode="&#x117;" horiz-adv-x="552" 
d="M281 611q-58 0 -58 51v14q0 51 58 51t58 -51v-14q0 -51 -58 -51zM280 -12q-108 0 -171.5 74t-63.5 197t63.5 197t171.5 74q106 0 166.5 -71.5t60.5 -183.5v-39h-365v-21q0 -66 39 -107t107 -41q96 0 140 84l60 -51q-28 -51 -82.5 -81.5t-125.5 -30.5zM280 455
q-61 0 -99.5 -41.5t-38.5 -105.5v-7h266v10q0 65 -35 104.5t-93 39.5z" />
    <glyph glyph-name="Eogonek" unicode="&#x118;" horiz-adv-x="588" 
d="M90 0v698h435v-86h-338v-216h313v-86h-313v-224h338v-86q-62 -54 -81.5 -78t-19.5 -42q0 -30 32 -30q30 0 49 25l43 -42q-23 -41 -95 -41q-44 0 -72 19.5t-28 58.5q0 36 27 65t78 60l-1 5h-367z" />
    <glyph glyph-name="eogonek" unicode="&#x119;" horiz-adv-x="550" 
d="M352 -208q-44 0 -72 19.5t-28 58.5q0 40 27.5 69.5t76.5 58.5l-3 5q-28 -15 -74 -15q-107 0 -170.5 74t-63.5 197t63.5 197t170.5 74q106 0 166 -71.5t60 -183.5v-39h-364v-21q0 -66 39.5 -107t107.5 -41q96 0 139 83l60 -50q-14 -26 -48 -59q-8 -9 -45 -46.5t-54 -63.5
t-17 -50q0 -31 32 -31q30 0 49 25l42 -42q-23 -41 -94 -41zM141 301h266v10q0 65 -34.5 104.5t-92.5 39.5q-61 0 -100 -41.5t-39 -105.5v-7z" />
    <glyph glyph-name="Ecaron" unicode="&#x11a;" horiz-adv-x="588" 
d="M358 765h-104l-115 146l49 36l118 -116l118 116l49 -36zM525 0h-435v698h435v-86h-338v-216h313v-86h-313v-224h338v-86z" />
    <glyph glyph-name="ecaron" unicode="&#x11b;" horiz-adv-x="552" 
d="M333 597h-104l-115 146l49 36l118 -117l118 117l49 -36zM280 -12q-108 0 -171.5 74t-63.5 197t63.5 197t171.5 74q106 0 166.5 -71.5t60.5 -183.5v-39h-365v-21q0 -66 39 -107t107 -41q96 0 140 84l60 -51q-28 -51 -82.5 -81.5t-125.5 -30.5zM280 455q-61 0 -99.5 -41.5
t-38.5 -105.5v-7h266v10q0 65 -35 104.5t-93 39.5z" />
    <glyph glyph-name="Gcircumflex" unicode="&#x11c;" horiz-adv-x="699" 
d="M303 939h104l115 -146l-49 -36l-118 116l-118 -116l-49 36zM540 0v104h-4q-12 -51 -63 -83.5t-128 -32.5q-130 0 -209.5 94.5t-79.5 265.5q0 172 81.5 267t219.5 95q179 0 257 -155l-80 -47q-23 54 -68.5 84.5t-108.5 30.5q-89 0 -143 -58.5t-54 -158.5v-113
q0 -101 54.5 -159.5t148.5 -58.5q74 0 122 37t48 106v63h-149v84h243v-365h-87z" />
    <glyph glyph-name="gcircumflex" unicode="&#x11d;" horiz-adv-x="537" 
d="M527 -53q0 -159 -257 -159q-231 0 -231 126q0 79 85 100v11q-51 20 -51 76q0 69 90 90v4q-96 46 -96 157q0 80 54 129t146 49q45 0 82 -12h163v-71h-77q34 -40 34 -95q0 -80 -54.5 -128.5t-147.5 -48.5q-33 0 -58 6q-59 -18 -59 -55q0 -39 76 -39h118q183 0 183 -140z
M268 245q51 0 79 24t28 70v26q0 46 -28 70t-79 24t-79 -24t-28 -70v-26q0 -46 28 -70t79 -24zM440 -62q0 64 -102 64h-174q-42 -22 -42 -66q0 -35 27 -56t85 -21h70q136 0 136 79zM216 771h104l115 -146l-49 -36l-118 116l-118 -116l-49 36z" />
    <glyph glyph-name="Gbreve" unicode="&#x11e;" horiz-adv-x="699" 
d="M355 761q-39 0 -67.5 12t-46.5 34.5t-27 41t-18 46.5l52 25l20 -33q18 -28 36 -41.5t51 -13.5t51 13.5t36 41.5l20 33l52 -25q-9 -28 -18 -46.5t-27 -41t-46.5 -34.5t-67.5 -12zM540 0v104h-4q-12 -51 -63 -83.5t-128 -32.5q-130 0 -209.5 94.5t-79.5 265.5
q0 172 81.5 267t219.5 95q179 0 257 -155l-80 -47q-23 54 -68.5 84.5t-108.5 30.5q-89 0 -143 -58.5t-54 -158.5v-113q0 -101 54.5 -159.5t148.5 -58.5q74 0 122 37t48 106v63h-149v84h243v-365h-87z" />
    <glyph glyph-name="gbreve" unicode="&#x11f;" horiz-adv-x="537" 
d="M527 -53q0 -159 -257 -159q-231 0 -231 126q0 79 85 100v11q-51 20 -51 76q0 69 90 90v4q-96 46 -96 157q0 80 54 129t146 49q45 0 82 -12h163v-71h-77q34 -40 34 -95q0 -80 -54.5 -128.5t-147.5 -48.5q-33 0 -58 6q-59 -18 -59 -55q0 -39 76 -39h118q183 0 183 -140z
M268 245q51 0 79 24t28 70v26q0 46 -28 70t-79 24t-79 -24t-28 -70v-26q0 -46 28 -70t79 -24zM440 -62q0 64 -102 64h-174q-42 -22 -42 -66q0 -35 27 -56t85 -21h70q136 0 136 79zM266 593q-39 0 -67.5 11.5t-46.5 34t-27 41.5t-18 46l52 26l20 -33q18 -29 36 -42.5
t51 -13.5t51 13.5t36 42.5l20 33l52 -26q-9 -27 -18 -46t-27 -41.5t-46.5 -34t-67.5 -11.5z" />
    <glyph glyph-name="Gdotaccent" unicode="&#x120;" horiz-adv-x="699" 
d="M355 775q-62 0 -62 56v17q0 56 62 56t62 -56v-17q0 -56 -62 -56zM540 0v104h-4q-12 -51 -63 -83.5t-128 -32.5q-130 0 -209.5 94.5t-79.5 265.5q0 172 81.5 267t219.5 95q179 0 257 -155l-80 -47q-23 54 -68.5 84.5t-108.5 30.5q-89 0 -143 -58.5t-54 -158.5v-113
q0 -101 54.5 -159.5t148.5 -58.5q74 0 122 37t48 106v63h-149v84h243v-365h-87z" />
    <glyph glyph-name="gdotaccent" unicode="&#x121;" horiz-adv-x="533" 
d="M268 611q-58 0 -58 51v14q0 51 58 51t58 -51v-14q0 -51 -58 -51zM527 -53q0 -159 -257 -159q-231 0 -231 126q0 79 85 100v11q-51 20 -51 76q0 69 90 90v4q-96 46 -96 157q0 80 54 129t146 49q50 0 96 -18v11q0 71 63 71h79v-78h-102v-28q65 -48 65 -136
q0 -80 -54 -128.5t-147 -48.5q-33 0 -58 6q-59 -18 -59 -55q0 -39 76 -39h118q183 0 183 -140zM440 -62q0 64 -102 64h-174q-42 -22 -42 -66q0 -35 27 -56t85 -21h70q136 0 136 79zM268 245q51 0 79 24t28 70v26q0 46 -28 70t-79 24t-79 -24t-28 -70v-26q0 -46 28 -70
t79 -24z" />
    <glyph glyph-name="Gcommaaccent" unicode="&#x122;" horiz-adv-x="699" 
d="M348 -61q26 0 40.5 -13.5t14.5 -36.5v-12q0 -70 -62 -128h-63q42 42 53 82q-38 7 -38 48v10q0 23 14.5 36.5t40.5 13.5zM540 0v104h-4q-12 -51 -63 -83.5t-128 -32.5q-130 0 -209.5 94.5t-79.5 265.5q0 172 81.5 267t219.5 95q179 0 257 -155l-80 -47q-23 54 -68.5 84.5
t-108.5 30.5q-89 0 -143 -58.5t-54 -158.5v-113q0 -101 54.5 -159.5t148.5 -58.5q74 0 122 37t48 106v63h-149v84h243v-365h-87z" />
    <glyph glyph-name="gcommaaccent" unicode="&#x123;" horiz-adv-x="533" 
d="M268 591q-26 0 -40.5 13.5t-14.5 36.5v12q0 70 62 128h63q-42 -42 -53 -82q38 -7 38 -48v-10q0 -23 -14.5 -36.5t-40.5 -13.5zM527 -53q0 -159 -257 -159q-231 0 -231 126q0 79 85 100v11q-51 20 -51 76q0 69 90 90v4q-96 46 -96 157q0 80 54 129t146 49q50 0 96 -18v11
q0 71 63 71h79v-78h-102v-28q65 -48 65 -136q0 -80 -54 -128.5t-147 -48.5q-33 0 -58 6q-59 -18 -59 -55q0 -39 76 -39h118q183 0 183 -140zM440 -62q0 64 -102 64h-174q-42 -22 -42 -66q0 -35 27 -56t85 -21h70q136 0 136 79zM268 245q51 0 79 24t28 70v26q0 46 -28 70
t-79 24t-79 -24t-28 -70v-26q0 -46 28 -70t79 -24z" />
    <glyph glyph-name="Hcircumflex" unicode="&#x124;" horiz-adv-x="710" 
d="M304 939h104l115 -146l-49 -36l-118 116l-118 -116l-49 36zM523 0v310h-336v-310h-97v698h97v-302h336v302h97v-698h-97z" />
    <glyph glyph-name="hcircumflex" unicode="&#x125;" horiz-adv-x="573" 
d="M78 929h104l115 -146l-49 -36l-118 116l-118 -116l-49 36zM82 0v740h93v-307h5q41 97 146 97q80 0 125.5 -52.5t45.5 -146.5v-331h-93v317q0 132 -109 132q-49 0 -84.5 -24.5t-35.5 -69.5v-355h-93z" />
    <glyph glyph-name="Hbar" unicode="&#x126;" horiz-adv-x="718" 
d="M527 0v310h-336v-310h-97v518h-71v72h71v108h97v-108h336v108h97v-108h71v-72h-71v-518h-97zM191 396h336v122h-336v-122z" />
    <glyph glyph-name="hbar" unicode="&#x127;" horiz-adv-x="572" 
d="M175 0h-93v606h-64v68h64v66h93v-66h148v-68h-148v-173h4q41 97 146 97q80 0 125.5 -52.5t45.5 -146.5v-331h-93v317q0 132 -108 132q-49 0 -84.5 -24.5t-35.5 -69.5v-355z" />
    <glyph glyph-name="Itilde" unicode="&#x128;" horiz-adv-x="407" 
d="M277 778q-30 0 -80 25q-45 23 -71 23q-27 0 -59 -26l-36 45q36 55 98 55q30 0 80 -25q45 -23 71 -23q27 0 59 26l36 -45q-36 -55 -98 -55zM349 0h-291v82h97v534h-97v82h291v-82h-97v-534h97v-82z" />
    <glyph glyph-name="itilde" unicode="&#x129;" horiz-adv-x="257" 
d="M203 610q-30 0 -80 25q-45 23 -71 23q-27 0 -59 -26l-36 45q36 55 98 55q30 0 80 -25q45 -23 71 -23q27 0 59 26l36 -45q-36 -55 -98 -55zM175 0h-93v518h93v-518z" />
    <glyph glyph-name="Imacron" unicode="&#x12a;" horiz-adv-x="407" 
d="M61 803v74h284v-74h-284zM349 0h-291v82h97v534h-97v82h291v-82h-97v-534h97v-82z" />
    <glyph glyph-name="imacron" unicode="&#x12b;" horiz-adv-x="257" 
d="M-13 635v74h284v-74h-284zM175 0h-93v518h93v-518z" />
    <glyph glyph-name="Ibreve" unicode="&#x12c;" horiz-adv-x="407" 
d="M203 761q-39 0 -67.5 12t-46.5 34.5t-27 41t-18 46.5l52 25l20 -33q18 -28 36 -41.5t51 -13.5t51 13.5t36 41.5l20 33l52 -25q-9 -28 -18 -46.5t-27 -41t-46.5 -34.5t-67.5 -12zM349 0h-291v82h97v534h-97v82h291v-82h-97v-534h97v-82z" />
    <glyph glyph-name="ibreve" unicode="&#x12d;" horiz-adv-x="257" 
d="M129 593q-39 0 -67.5 11.5t-46.5 34t-27 41.5t-18 46l52 26l20 -33q18 -29 36 -42.5t51 -13.5t51 13.5t36 42.5l20 33l52 -26q-9 -27 -18 -46t-27 -41.5t-46.5 -34t-67.5 -11.5zM175 0h-93v518h93v-518z" />
    <glyph glyph-name="Iogonek" unicode="&#x12e;" horiz-adv-x="407" 
d="M58 0v82h97v534h-97v82h291v-82h-97v-534h97v-82q-62 -53 -81.5 -77t-19.5 -43q0 -30 32 -30q30 0 49 25l43 -42q-23 -41 -95 -41q-44 0 -72 19.5t-28 58.5q0 36 25.5 64t79.5 61l-1 5h-223z" />
    <glyph glyph-name="iogonek" unicode="&#x12f;" horiz-adv-x="257" 
d="M82 0v518h93v-518q-62 -53 -81.5 -77t-19.5 -43q0 -30 32 -30q29 0 49 25l43 -42q-23 -41 -94 -41q-44 0 -72.5 19.5t-28.5 58.5q0 35 26.5 63.5t78.5 62.5l-2 4h-24zM129 626q-56 0 -56 51v14q0 51 56 51t56 -51v-14q0 -51 -56 -51z" />
    <glyph glyph-name="Idotaccent" unicode="&#x130;" horiz-adv-x="407" 
d="M203 775q-62 0 -62 56v17q0 56 62 56t62 -56v-17q0 -56 -62 -56zM349 0h-291v82h97v534h-97v82h291v-82h-97v-534h97v-82z" />
    <glyph glyph-name="dotlessi" unicode="&#x131;" horiz-adv-x="257" 
d="M175 0h-93v518h93v-518z" />
    <glyph glyph-name="IJ" unicode="&#x132;" horiz-adv-x="647" 
d="M321 -12q-97 0 -156 47t-75 125l89 20q24 -105 145 -105q66 0 103.5 33.5t37.5 101.5v402h-140v86h237v-476q0 -109 -64.5 -171.5t-176.5 -62.5zM85 294v404h97v-404h-97z" />
    <glyph glyph-name="ij" unicode="&#x133;" horiz-adv-x="509" 
d="M334 -121v639h93v-593q0 -59 -29.5 -92t-89.5 -33h-57v79h83zM381 626q-56 0 -56 51v14q0 51 56 51t56 -51v-14q0 -51 -56 -51zM129 626q-56 0 -56 51v14q0 51 56 51t56 -51v-14q0 -51 -56 -51zM82 0v518h93v-518h-93z" />
    <glyph glyph-name="Jcircumflex" unicode="&#x134;" horiz-adv-x="519" 
d="M219 939h104l115 -146l-49 -36l-118 116l-118 -116l-49 36zM103 698h331v-513q0 -90 -56.5 -143.5t-148.5 -53.5q-83 0 -134.5 44.5t-67.5 121.5l89 20q21 -99 114 -99q51 0 79 31t28 92v414h-234v86z" />
    <glyph glyph-name="jcircumflex" unicode="&#x135;" horiz-adv-x="257" 
d="M77 771h104l115 -146l-49 -36l-118 116l-118 -116l-49 36zM-1 -200v79h83v639h93v-593q0 -59 -29.5 -92t-89.5 -33h-57z" />
    <glyph glyph-name="Kcommaaccent" unicode="&#x136;" horiz-adv-x="646" 
d="M342 -61q26 0 40.5 -13.5t14.5 -36.5v-12q0 -70 -62 -128h-63q42 42 53 82q-38 7 -38 48v10q0 23 14.5 36.5t40.5 13.5zM507 0l-223 336l-97 -110v-226h-97v698h97v-364h4l99 124l201 240h116l-255 -297l274 -401h-119z" />
    <glyph glyph-name="kcommaaccent" unicode="&#x137;" horiz-adv-x="537" 
d="M299 -61q26 0 40.5 -13.5t14.5 -36.5v-12q0 -70 -62 -128h-63q42 42 53 82q-38 7 -38 48v10q0 23 14.5 36.5t40.5 13.5zM82 0v740h93v-461h5l74 91l135 148h110l-184 -200l208 -318h-112l-162 258l-74 -79v-179h-93z" />
    <glyph glyph-name="kgreenlandic" unicode="&#x138;" horiz-adv-x="537" 
d="M412 0l-162 256l-75 -77v-179h-93v518h93v-239h5l78 89l140 150h111l-192 -203l206 -315h-111z" />
    <glyph glyph-name="Lacute" unicode="&#x139;" horiz-adv-x="507" 
d="M258 914l-111 -162l-59 28l88 174zM478 0h-388v698h97v-612h291v-86z" />
    <glyph glyph-name="lacute" unicode="&#x13a;" horiz-adv-x="278" 
d="M249 946l-111 -162l-59 27l88 175zM249 0h-70q-47 0 -72 25.5t-25 69.5v645h93v-661h74v-79z" />
    <glyph glyph-name="Lcommaaccent" unicode="&#x13b;" horiz-adv-x="507" 
d="M296 -61q26 0 40.5 -13.5t14.5 -36.5v-12q0 -70 -62 -128h-63q42 42 53 82q-38 7 -38 48v10q0 23 14.5 36.5t40.5 13.5zM478 0h-388v698h97v-612h291v-86z" />
    <glyph glyph-name="lcommaaccent" unicode="&#x13c;" horiz-adv-x="278" 
d="M166 -61q26 0 40.5 -13.5t14.5 -36.5v-12q0 -70 -62 -128h-63q42 42 53 82q-38 7 -38 48v10q0 23 14.5 36.5t40.5 13.5zM249 0h-70q-47 0 -72 25.5t-25 69.5v645h93v-661h74v-79z" />
    <glyph glyph-name="Lcaron" unicode="&#x13d;" horiz-adv-x="507" 
d="M380 740l-55 -191h-61l11 191h105zM478 0h-388v698h97v-612h291v-86z" />
    <glyph glyph-name="lcaron" unicode="&#x13e;" horiz-adv-x="290" 
d="M249 0h-70q-47 0 -72 25.5t-25 69.5v645h93v-661h74v-79zM348 740l-55 -191h-61l11 191h105z" />
    <glyph glyph-name="Ldot" unicode="&#x13f;" horiz-adv-x="507" 
d="M390 296q-58 0 -58 51v14q0 51 58 51t58 -51v-14q0 -51 -58 -51zM478 0h-388v698h97v-612h291v-86z" />
    <glyph glyph-name="ldot" unicode="&#x140;" horiz-adv-x="374" 
d="M314 255q-58 0 -58 51v14q0 51 58 51t58 -51v-14q0 -51 -58 -51zM249 0h-70q-47 0 -72 25.5t-25 69.5v645h93v-661h74v-79z" />
    <glyph glyph-name="Lslash" unicode="&#x141;" horiz-adv-x="514" 
d="M481 86v-86h-388v266l-100 -34v76l100 34v356h97v-325l177 59v-76l-177 -59v-211h291z" />
    <glyph glyph-name="lslash" unicode="&#x142;" horiz-adv-x="284" 
d="M252 79v-79h-70q-47 0 -72 25.5t-25 69.5v224l-71 -23v76l71 23v345h93v-314l103 34v-76l-103 -34v-271h74z" />
    <glyph glyph-name="Nacute" unicode="&#x143;" horiz-adv-x="710" 
d="M475 914l-111 -162l-59 28l88 174zM512 0l-229 382l-96 175h-3v-557h-94v698h108l229 -382l96 -175h3v557h94v-698h-108z" />
    <glyph glyph-name="nacute" unicode="&#x144;" horiz-adv-x="573" 
d="M410 746l-111 -162l-59 27l88 175zM175 0h-93v518h93v-85h5q41 97 146 97q80 0 125.5 -52.5t45.5 -146.5v-331h-93v317q0 132 -109 132q-49 0 -84.5 -24.5t-35.5 -69.5v-355z" />
    <glyph glyph-name="Ncommaaccent" unicode="&#x145;" horiz-adv-x="710" 
d="M355 -61q26 0 40.5 -13.5t14.5 -36.5v-12q0 -70 -62 -128h-63q42 42 53 82q-38 7 -38 48v10q0 23 14.5 36.5t40.5 13.5zM512 0l-229 382l-96 175h-3v-557h-94v698h108l229 -382l96 -175h3v557h94v-698h-108z" />
    <glyph glyph-name="ncommaaccent" unicode="&#x146;" horiz-adv-x="573" 
d="M290 -61q26 0 40.5 -13.5t14.5 -36.5v-12q0 -70 -62 -128h-63q42 42 53 82q-38 7 -38 48v10q0 23 14.5 36.5t40.5 13.5zM175 0h-93v518h93v-85h5q41 97 146 97q80 0 125.5 -52.5t45.5 -146.5v-331h-93v317q0 132 -109 132q-49 0 -84.5 -24.5t-35.5 -69.5v-355z" />
    <glyph glyph-name="Ncaron" unicode="&#x147;" horiz-adv-x="710" 
d="M407 765h-104l-115 146l49 36l118 -116l118 116l49 -36zM512 0l-229 382l-96 175h-3v-557h-94v698h108l229 -382l96 -175h3v557h94v-698h-108z" />
    <glyph glyph-name="ncaron" unicode="&#x148;" horiz-adv-x="573" 
d="M342 597h-104l-115 146l49 36l118 -117l118 117l49 -36zM175 0h-93v518h93v-85h5q41 97 146 97q80 0 125.5 -52.5t45.5 -146.5v-331h-93v317q0 132 -109 132q-49 0 -84.5 -24.5t-35.5 -69.5v-355z" />
    <glyph glyph-name="napostrophe" unicode="&#x149;" horiz-adv-x="825" 
d="M427 0h-93v518h93v-85h5q41 97 146 97q80 0 125.5 -52.5t45.5 -146.5v-331h-93v317q0 132 -109 132q-49 0 -84.5 -24.5t-35.5 -69.5v-355zM143 750q66 0 66 -63v-15q0 -46 -25.5 -96.5t-68.5 -86.5h-73q64 65 79 125q-44 9 -44 58v15q0 63 66 63z" />
    <glyph glyph-name="Eng" unicode="&#x14a;" horiz-adv-x="710" 
d="M184 0h-94v698h108l229 -382l96 -175h3v557h94v-769q0 -60 -30 -94.5t-90 -34.5h-60v82h86v118h-14l-229 382l-96 175h-3v-557z" />
    <glyph glyph-name="eng" unicode="&#x14b;" horiz-adv-x="573" 
d="M321 -200v79h83v438q0 132 -109 132q-49 0 -84.5 -24.5t-35.5 -69.5v-355h-93v518h93v-85h5q41 97 146 97q80 0 125.5 -52.5t45.5 -146.5v-408q0 -58 -29.5 -90.5t-88.5 -32.5h-58z" />
    <glyph glyph-name="Omacron" unicode="&#x14c;" horiz-adv-x="708" 
d="M212 803v74h284v-74h-284zM354 -12q-138 0 -218 94t-80 267t80 267t218 94t218 -94t80 -267t-80 -267t-218 -94zM354 75q88 0 141 59t53 158v114q0 99 -53 158t-141 59t-141 -59t-53 -158v-114q0 -99 53 -158t141 -59z" />
    <glyph glyph-name="omacron" unicode="&#x14d;" horiz-adv-x="562" 
d="M139 635v74h284v-74h-284zM281 -12q-106 0 -171 74t-65 197t65 197t171 74t171 -74t65 -197t-65 -197t-171 -74zM281 68q63 0 100 39t37 113v78q0 74 -37 113t-100 39t-100 -39t-37 -113v-78q0 -74 37 -113t100 -39z" />
    <glyph glyph-name="Obreve" unicode="&#x14e;" horiz-adv-x="708" 
d="M354 761q-39 0 -67.5 12t-46.5 34.5t-27 41t-18 46.5l52 25l20 -33q18 -28 36 -41.5t51 -13.5t51 13.5t36 41.5l20 33l52 -25q-9 -28 -18 -46.5t-27 -41t-46.5 -34.5t-67.5 -12zM354 -12q-138 0 -218 94t-80 267t80 267t218 94t218 -94t80 -267t-80 -267t-218 -94z
M354 75q88 0 141 59t53 158v114q0 99 -53 158t-141 59t-141 -59t-53 -158v-114q0 -99 53 -158t141 -59z" />
    <glyph glyph-name="obreve" unicode="&#x14f;" horiz-adv-x="562" 
d="M281 593q-39 0 -67.5 11.5t-46.5 34t-27 41.5t-18 46l52 26l20 -33q18 -29 36 -42.5t51 -13.5t51 13.5t36 42.5l20 33l52 -26q-9 -27 -18 -46t-27 -41.5t-46.5 -34t-67.5 -11.5zM281 -12q-106 0 -171 74t-65 197t65 197t171 74t171 -74t65 -197t-65 -197t-171 -74z
M281 68q63 0 100 39t37 113v78q0 74 -37 113t-100 39t-100 -39t-37 -113v-78q0 -74 37 -113t100 -39z" />
    <glyph glyph-name="Ohungarumlaut" unicode="&#x150;" horiz-adv-x="708" 
d="M389 915l-111 -162l-55 25l88 175zM558 915l-112 -162l-54 25l88 175zM354 -12q-138 0 -218 94t-80 267t80 267t218 94t218 -94t80 -267t-80 -267t-218 -94zM354 75q88 0 141 59t53 158v114q0 99 -53 158t-141 59t-141 -59t-53 -158v-114q0 -99 53 -158t141 -59z" />
    <glyph glyph-name="ohungarumlaut" unicode="&#x151;" horiz-adv-x="562" 
d="M316 747l-111 -162l-55 25l88 175zM485 747l-112 -162l-54 25l88 175zM281 -12q-106 0 -171 74t-65 197t65 197t171 74t171 -74t65 -197t-65 -197t-171 -74zM281 68q63 0 100 39t37 113v78q0 74 -37 113t-100 39t-100 -39t-37 -113v-78q0 -74 37 -113t100 -39z" />
    <glyph glyph-name="OE" unicode="&#x152;" horiz-adv-x="987" 
d="M925 0h-435q-60 -12 -125 -12q-146 0 -227.5 93.5t-81.5 267.5t81.5 267.5t227.5 93.5q64 0 127 -12h433v-86h-339v-216h314v-86h-314v-224h339v-86zM373 75q64 0 116 16v516q-52 16 -116 16q-105 0 -159 -57.5t-54 -159.5v-114q0 -102 54 -159.5t159 -57.5z" />
    <glyph glyph-name="oe" unicode="&#x153;" horiz-adv-x="925" 
d="M281 68q63 0 100 39t37 113v78q0 74 -37 113t-100 39t-100 -39t-37 -113v-78q0 -74 37 -113t100 -39zM516 301h265v10q0 65 -34.5 104.5t-92.5 39.5q-61 0 -99.5 -41.5t-38.5 -105.5v-7zM660 -12q-69 0 -118 30t-73 77h-5q-22 -48 -71 -77.5t-112 -29.5q-106 0 -171 74
t-65 197t65 197t171 74q133 0 183 -107h6q22 50 70 78.5t114 28.5q104 0 165 -70.5t61 -184.5v-39h-364v-21q0 -66 39 -107t107 -41q95 0 141 84l59 -51q-28 -52 -80.5 -82t-121.5 -30z" />
    <glyph glyph-name="Racute" unicode="&#x154;" horiz-adv-x="647" 
d="M430 914l-111 -162l-59 28l88 174zM187 290v-290h-97v698h288q92 0 145 -54.5t53 -150.5q0 -76 -35 -126t-102 -67l155 -300h-109l-145 290h-153zM187 374h187q47 0 73 24.5t26 69.5v50q0 45 -26 69.5t-73 24.5h-187v-238z" />
    <glyph glyph-name="racute" unicode="&#x155;" horiz-adv-x="375" 
d="M340 746l-111 -162l-59 27l88 175zM175 0h-93v518h93v-99h5q14 43 51 71t95 28h31v-93h-46q-64 0 -100 -23t-36 -62v-340z" />
    <glyph glyph-name="Rcommaaccent" unicode="&#x156;" horiz-adv-x="647" 
d="M330 -61q26 0 40.5 -13.5t14.5 -36.5v-12q0 -70 -62 -128h-63q42 42 53 82q-38 7 -38 48v10q0 23 14.5 36.5t40.5 13.5zM187 290v-290h-97v698h288q92 0 145 -54.5t53 -150.5q0 -76 -35 -126t-102 -67l155 -300h-109l-145 290h-153zM187 374h187q47 0 73 24.5t26 69.5v50
q0 45 -26 69.5t-73 24.5h-187v-238z" />
    <glyph glyph-name="rcommaaccent" unicode="&#x157;" horiz-adv-x="375" 
d="M130 -61q26 0 40.5 -13.5t14.5 -36.5v-12q0 -70 -62 -128h-63q42 42 53 82q-38 7 -38 48v10q0 23 14.5 36.5t40.5 13.5zM175 0h-93v518h93v-99h5q14 43 51 71t95 28h31v-93h-46q-64 0 -100 -23t-36 -62v-340z" />
    <glyph glyph-name="Rcaron" unicode="&#x158;" horiz-adv-x="647" 
d="M362 765h-104l-115 146l49 36l118 -116l118 116l49 -36zM187 290v-290h-97v698h288q92 0 145 -54.5t53 -150.5q0 -76 -35 -126t-102 -67l155 -300h-109l-145 290h-153zM187 374h187q47 0 73 24.5t26 69.5v50q0 45 -26 69.5t-73 24.5h-187v-238z" />
    <glyph glyph-name="rcaron" unicode="&#x159;" horiz-adv-x="375" 
d="M272 597h-104l-115 146l49 36l118 -117l118 117l49 -36zM175 0h-93v518h93v-99h5q14 43 51 71t95 28h31v-93h-46q-64 0 -100 -23t-36 -62v-340z" />
    <glyph glyph-name="Sacute" unicode="&#x15a;" horiz-adv-x="588" 
d="M411 914l-111 -162l-59 28l88 174zM291 -12q-159 0 -250 120l69 62q75 -97 185 -97q70 0 108 33t38 90q0 46 -27.5 72t-92.5 40l-59 12q-100 21 -150 68t-50 127q0 92 64 143.5t173 51.5q151 0 233 -111l-71 -57q-60 83 -167 83q-64 0 -100 -27.5t-36 -78.5
q0 -45 29 -69.5t93 -38.5l59 -12q103 -23 150.5 -70.5t47.5 -127.5q0 -98 -65.5 -155.5t-180.5 -57.5z" />
    <glyph glyph-name="sacute" unicode="&#x15b;" horiz-adv-x="490" 
d="M360 746l-111 -162l-59 27l88 175zM241 -12q-128 0 -207 100l63 54q61 -77 150 -77q49 0 75.5 20.5t26.5 56.5q0 62 -83 74l-44 7q-168 24 -168 151q0 74 52 115t136 41q117 0 187 -83l-59 -56q-47 62 -131 62q-46 0 -70.5 -19.5t-24.5 -53.5q0 -33 21.5 -50t68.5 -24
l44 -7q161 -24 161 -147q0 -76 -53.5 -120t-144.5 -44z" />
    <glyph glyph-name="Scircumflex" unicode="&#x15c;" horiz-adv-x="588" 
d="M239 939h104l115 -146l-49 -36l-118 116l-118 -116l-49 36zM291 -12q-159 0 -250 120l69 62q75 -97 185 -97q70 0 108 33t38 90q0 46 -27.5 72t-92.5 40l-59 12q-100 21 -150 68t-50 127q0 92 64 143.5t173 51.5q151 0 233 -111l-71 -57q-60 83 -167 83q-64 0 -100 -27.5
t-36 -78.5q0 -45 29 -69.5t93 -38.5l59 -12q103 -23 150.5 -70.5t47.5 -127.5q0 -98 -65.5 -155.5t-180.5 -57.5z" />
    <glyph glyph-name="scircumflex" unicode="&#x15d;" horiz-adv-x="490" 
d="M188 771h104l115 -146l-49 -36l-118 116l-118 -116l-49 36zM241 -12q-128 0 -207 100l63 54q61 -77 150 -77q49 0 75.5 20.5t26.5 56.5q0 62 -83 74l-44 7q-168 24 -168 151q0 74 52 115t136 41q117 0 187 -83l-59 -56q-47 62 -131 62q-46 0 -70.5 -19.5t-24.5 -53.5
q0 -33 21.5 -50t68.5 -24l44 -7q161 -24 161 -147q0 -76 -53.5 -120t-144.5 -44z" />
    <glyph glyph-name="Scedilla" unicode="&#x15e;" horiz-adv-x="588" 
d="M294 625q-64 0 -100 -27.5t-36 -78.5q0 -45 29 -69.5t93 -38.5l59 -12q103 -23 150.5 -70.5t47.5 -127.5q0 -92 -59.5 -149t-163.5 -63l-9 -49l3 -3q20 6 40 6q31 0 50 -17t19 -49q0 -42 -32.5 -63.5t-82.5 -21.5q-72 0 -103 42l39 43q22 -28 62 -28q44 0 44 30
q0 31 -69 41l-27 4l13 65q-137 10 -220 119l69 62q75 -97 185 -97q70 0 108 33t38 90q0 46 -27.5 72t-92.5 40l-59 12q-100 21 -150 68t-50 127q0 92 64 143.5t173 51.5q151 0 233 -111l-71 -57q-60 83 -167 83z" />
    <glyph glyph-name="scedilla" unicode="&#x15f;" horiz-adv-x="490" 
d="M254 -208q-72 0 -104 42l39 43q22 -28 63 -28q43 0 43 30q0 31 -69 41l-27 4l13 65q-110 10 -178 99l63 54q61 -77 150 -77q49 0 75.5 20.5t26.5 56.5q0 62 -83 74l-44 7q-168 24 -168 151q0 74 52 115t136 41q117 0 187 -83l-59 -56q-47 62 -131 62q-46 0 -70.5 -19.5
t-24.5 -53.5q0 -33 21.5 -50t68.5 -24l44 -7q161 -23 161 -147q0 -70 -46.5 -113.5t-126.5 -49.5l-10 -49l3 -3q21 6 41 6q30 0 49 -17t19 -49q0 -43 -32 -64t-82 -21z" />
    <glyph glyph-name="Scaron" unicode="&#x160;" horiz-adv-x="588" 
d="M343 765h-104l-115 146l49 36l118 -116l118 116l49 -36zM291 -12q-159 0 -250 120l69 62q75 -97 185 -97q70 0 108 33t38 90q0 46 -27.5 72t-92.5 40l-59 12q-100 21 -150 68t-50 127q0 92 64 143.5t173 51.5q151 0 233 -111l-71 -57q-60 83 -167 83q-64 0 -100 -27.5
t-36 -78.5q0 -45 29 -69.5t93 -38.5l59 -12q103 -23 150.5 -70.5t47.5 -127.5q0 -98 -65.5 -155.5t-180.5 -57.5z" />
    <glyph glyph-name="scaron" unicode="&#x161;" horiz-adv-x="490" 
d="M292 597h-104l-115 146l49 36l118 -117l118 117l49 -36zM241 -12q-128 0 -207 100l63 54q61 -77 150 -77q49 0 75.5 20.5t26.5 56.5q0 62 -83 74l-44 7q-168 24 -168 151q0 74 52 115t136 41q117 0 187 -83l-59 -56q-47 62 -131 62q-46 0 -70.5 -19.5t-24.5 -53.5
q0 -33 21.5 -50t68.5 -24l44 -7q161 -24 161 -147q0 -76 -53.5 -120t-144.5 -44z" />
    <glyph glyph-name="Tcommaaccent" unicode="&#x162;" horiz-adv-x="575" 
d="M288 -61q26 0 40.5 -13.5t14.5 -36.5v-12q0 -70 -62 -128h-63q42 42 53 82q-38 7 -38 48v10q0 23 14.5 36.5t40.5 13.5zM239 0v612h-216v86h529v-86h-216v-612h-97z" />
    <glyph glyph-name="tcommaaccent" unicode="&#x163;" horiz-adv-x="357" 
d="M216 -61q26 0 40.5 -13.5t14.5 -36.5v-12q0 -70 -62 -128h-63q42 42 53 82q-38 7 -38 48v10q0 23 14.5 36.5t40.5 13.5zM307 0h-98q-47 0 -72.5 26t-25.5 72v341h-83v79h46q26 0 36 10.5t10 37.5v95h84v-143h111v-79h-111v-360h103v-79z" />
    <glyph glyph-name="Tcaron" unicode="&#x164;" horiz-adv-x="575" 
d="M340 765h-104l-115 146l49 36l118 -116l118 116l49 -36zM239 0v612h-216v86h529v-86h-216v-612h-97z" />
    <glyph glyph-name="tcaron" unicode="&#x165;" horiz-adv-x="358" 
d="M307 0h-98q-47 0 -72.5 26t-25.5 72v341h-83v79h46q26 0 36 10.5t10 37.5v95h84v-143h111v-79h-111v-360h103v-79zM387 758l-55 -191h-61l11 191h105z" />
    <glyph glyph-name="Tbar" unicode="&#x166;" horiz-adv-x="585" 
d="M501 327h-160v-327h-97v327h-160v74h160v211h-216v86h529v-86h-216v-211h160v-74z" />
    <glyph glyph-name="tbar" unicode="&#x167;" horiz-adv-x="364" 
d="M310 79v-79h-97q-47 0 -73 26t-26 71v146h-64v69h64v127h-83v79h46q26 0 36 10.5t10 37.5v95h84v-143h111v-79h-111v-127h90v-69h-90v-164h103z" />
    <glyph glyph-name="Utilde" unicode="&#x168;" horiz-adv-x="682" 
d="M413 778q-30 0 -80 25q-45 23 -71 23q-27 0 -59 -26l-36 45q36 55 98 55q30 0 80 -25q45 -23 71 -23q27 0 59 26l36 -45q-36 -55 -98 -55zM85 698h97v-431q0 -98 36.5 -145t122.5 -47t122.5 47t36.5 145v431h97v-412q0 -156 -59.5 -227t-199.5 -71q-139 0 -196 70.5
t-57 227.5v412z" />
    <glyph glyph-name="utilde" unicode="&#x169;" horiz-adv-x="574" 
d="M359 610q-30 0 -80 25q-45 23 -71 23q-27 0 -59 -26l-36 45q36 55 98 55q30 0 80 -25q45 -23 71 -23q27 0 59 26l36 -45q-36 -55 -98 -55zM399 0v85h-5q-37 -97 -145 -97q-80 0 -126 52.5t-46 146.5v331h93v-317q0 -132 110 -132q49 0 84 24.5t35 70.5v354h93v-518h-93z
" />
    <glyph glyph-name="Umacron" unicode="&#x16a;" horiz-adv-x="682" 
d="M197 803v74h284v-74h-284zM85 698h97v-431q0 -98 36.5 -145t122.5 -47t122.5 47t36.5 145v431h97v-412q0 -156 -59.5 -227t-199.5 -71q-139 0 -196 70.5t-57 227.5v412z" />
    <glyph glyph-name="umacron" unicode="&#x16b;" horiz-adv-x="574" 
d="M143 635v74h284v-74h-284zM399 0v85h-5q-37 -97 -145 -97q-80 0 -126 52.5t-46 146.5v331h93v-317q0 -132 110 -132q49 0 84 24.5t35 70.5v354h93v-518h-93z" />
    <glyph glyph-name="Ubreve" unicode="&#x16c;" horiz-adv-x="682" 
d="M339 761q-39 0 -67.5 12t-46.5 34.5t-27 41t-18 46.5l52 25l20 -33q18 -28 36 -41.5t51 -13.5t51 13.5t36 41.5l20 33l52 -25q-9 -28 -18 -46.5t-27 -41t-46.5 -34.5t-67.5 -12zM85 698h97v-431q0 -98 36.5 -145t122.5 -47t122.5 47t36.5 145v431h97v-412
q0 -156 -59.5 -227t-199.5 -71q-139 0 -196 70.5t-57 227.5v412z" />
    <glyph glyph-name="ubreve" unicode="&#x16d;" horiz-adv-x="574" 
d="M285 593q-39 0 -67.5 11.5t-46.5 34t-27 41.5t-18 46l52 26l20 -33q18 -29 36 -42.5t51 -13.5t51 13.5t36 42.5l20 33l52 -26q-9 -27 -18 -46t-27 -41.5t-46.5 -34t-67.5 -11.5zM399 0v85h-5q-37 -97 -145 -97q-80 0 -126 52.5t-46 146.5v331h93v-317q0 -132 110 -132
q49 0 84 24.5t35 70.5v354h93v-518h-93z" />
    <glyph glyph-name="Uring" unicode="&#x16e;" horiz-adv-x="682" 
d="M339 742q-51 0 -86.5 34.5t-35.5 85.5t35.5 85.5t86.5 34.5t86.5 -34.5t35.5 -85.5t-35.5 -85.5t-86.5 -34.5zM339 796q27 0 42 14t15 40v24q0 26 -15 40t-42 14t-42 -14t-15 -40v-24q0 -26 15 -40t42 -14zM85 698h97v-431q0 -98 36.5 -145t122.5 -47t122.5 47t36.5 145
v431h97v-412q0 -156 -59.5 -227t-199.5 -71q-139 0 -196 70.5t-57 227.5v412z" />
    <glyph glyph-name="uring" unicode="&#x16f;" horiz-adv-x="574" 
d="M285 573q-51 0 -86.5 34.5t-35.5 85.5t35.5 85.5t86.5 34.5t86.5 -34.5t35.5 -85.5t-35.5 -85.5t-86.5 -34.5zM285 627q27 0 42 14t15 40v24q0 26 -15 40t-42 14t-42 -14t-15 -40v-24q0 -26 15 -40t42 -14zM399 0v85h-5q-37 -97 -145 -97q-80 0 -126 52.5t-46 146.5v331
h93v-317q0 -132 110 -132q49 0 84 24.5t35 70.5v354h93v-518h-93z" />
    <glyph glyph-name="Uhungarumlaut" unicode="&#x170;" horiz-adv-x="682" 
d="M374 915l-111 -162l-55 25l88 175zM543 915l-112 -162l-54 25l88 175zM85 698h97v-431q0 -98 36.5 -145t122.5 -47t122.5 47t36.5 145v431h97v-412q0 -156 -59.5 -227t-199.5 -71q-139 0 -196 70.5t-57 227.5v412z" />
    <glyph glyph-name="uhungarumlaut" unicode="&#x171;" horiz-adv-x="574" 
d="M320 747l-111 -162l-55 25l88 175zM489 747l-112 -162l-54 25l88 175zM399 0v85h-5q-37 -97 -145 -97q-80 0 -126 52.5t-46 146.5v331h93v-317q0 -132 110 -132q49 0 84 24.5t35 70.5v354h93v-518h-93z" />
    <glyph glyph-name="Uogonek" unicode="&#x172;" horiz-adv-x="682" 
d="M85 698h97v-431q0 -98 36.5 -145t122.5 -47t122.5 47t36.5 145v431h97v-412q0 -102 -25 -167.5t-93 -129.5q-10 -10 -24 -23t-20.5 -19.5l-15.5 -15.5t-13.5 -14.5t-8.5 -12t-5.5 -12.5t-1.5 -12q0 -30 33 -30q29 0 48 25l43 -42q-23 -41 -95 -41q-44 0 -72 19t-28 57
q0 37 28 64t89 65l-3 6q-36 -15 -95 -15q-139 0 -196 70.5t-57 227.5v412z" />
    <glyph glyph-name="uogonek" unicode="&#x173;" horiz-adv-x="573" 
d="M491 518v-518q-62 -54 -81.5 -78t-19.5 -42q0 -30 32 -30q30 0 49 25l43 -42q-23 -41 -95 -41q-44 0 -72 19.5t-28 58.5q0 36 26.5 65t77.5 62l-1 3h-24v85h-5q-37 -97 -145 -97q-80 0 -126 52.5t-46 146.5v331h93v-317q0 -132 110 -132q49 0 84 24.5t35 70.5v354h93z
" />
    <glyph glyph-name="Wcircumflex" unicode="&#x174;" horiz-adv-x="907" 
d="M402 939h104l115 -146l-49 -36l-118 116l-118 -116l-49 36zM298 0h-109l-167 698h100l74 -336l54 -248h2l61 248l86 336h109l84 -336l61 -247h3l55 247l77 336h97l-176 -698h-108l-91 354l-58 236h-2l-60 -236z" />
    <glyph glyph-name="wcircumflex" unicode="&#x175;" horiz-adv-x="782" 
d="M339 771h104l115 -146l-49 -36l-118 116l-118 -116l-49 36zM168 0l-139 518h90l54 -221l52 -213h2l59 213l64 221h83l66 -221l60 -213h3l49 213l55 221h87l-138 -518h-110l-70 243l-44 152h-2l-43 -152l-70 -243h-108z" />
    <glyph glyph-name="Ycircumflex" unicode="&#x176;" horiz-adv-x="603" 
d="M250 939h104l115 -146l-49 -36l-118 116l-118 -116l-49 36zM349 0h-97v275l-240 423h111l179 -325h3l178 325h108l-242 -420v-278z" />
    <glyph glyph-name="ycircumflex" unicode="&#x177;" horiz-adv-x="506" 
d="M202 771h104l115 -146l-49 -36l-118 116l-118 -116l-49 36zM285 187l116 331h90l-225 -631q-19 -50 -44.5 -68.5t-83.5 -18.5h-51v79h85l35 100l-192 539h93l115 -331l27 -97h5z" />
    <glyph glyph-name="Ydieresis" unicode="&#x178;" horiz-adv-x="603" 
d="M206 783q-55 0 -55 49v16q0 49 55 49t55 -49v-16q0 -49 -55 -49zM398 783q-55 0 -55 49v16q0 49 55 49t55 -49v-16q0 -49 -55 -49zM349 0h-97v275l-240 423h111l179 -325h3l178 325h108l-242 -420v-278z" />
    <glyph glyph-name="Zacute" unicode="&#x179;" horiz-adv-x="586" 
d="M418 914l-111 -162l-59 28l88 174zM549 86v-86h-512v87l390 525h-370v86h479v-87l-392 -525h405z" />
    <glyph glyph-name="zacute" unicode="&#x17a;" horiz-adv-x="474" 
d="M357 746l-111 -162l-59 27l88 175zM440 0h-406v77l287 362h-278v79h389v-71l-292 -368h300v-79z" />
    <glyph glyph-name="Zdotaccent" unicode="&#x17b;" horiz-adv-x="586" 
d="M298 775q-62 0 -62 56v17q0 56 62 56t62 -56v-17q0 -56 -62 -56zM549 86v-86h-512v87l390 525h-370v86h479v-87l-392 -525h405z" />
    <glyph glyph-name="zdotaccent" unicode="&#x17c;" horiz-adv-x="474" 
d="M237 611q-58 0 -58 51v14q0 51 58 51t58 -51v-14q0 -51 -58 -51zM440 0h-406v77l287 362h-278v79h389v-71l-292 -368h300v-79z" />
    <glyph glyph-name="Zcaron" unicode="&#x17d;" horiz-adv-x="586" 
d="M350 765h-104l-115 146l49 36l118 -116l118 116l49 -36zM549 86v-86h-512v87l390 525h-370v86h479v-87l-392 -525h405z" />
    <glyph glyph-name="zcaron" unicode="&#x17e;" horiz-adv-x="474" 
d="M289 597h-104l-115 146l49 36l118 -117l118 117l49 -36zM440 0h-406v77l287 362h-278v79h389v-71l-292 -368h300v-79z" />
    <glyph glyph-name="uni018F" unicode="&#x18f;" horiz-adv-x="712" 
d="M56 349v27h497v25q0 100 -56 161t-141 61q-133 0 -185 -132l-83 37q31 81 100 131.5t168 50.5q140 0 220 -95.5t80 -265.5t-80 -265.5t-220 -95.5t-220 95.5t-80 265.5zM356 75q85 0 141 61t56 161h-394q3 -100 58 -161t139 -61z" />
    <glyph glyph-name="florin" unicode="&#x192;" horiz-adv-x="486" 
d="M-1 -134l8 79h140l35 346h-136l9 82h135l20 200q6 57 40.5 91t94.5 34h119l-9 -79h-146l-25 -246h160l-7 -82h-161l-31 -301q-5 -56 -39.5 -90t-95.5 -34h-111z" />
    <glyph glyph-name="Ohorn" unicode="&#x1a0;" horiz-adv-x="708" 
d="M580 811h81v-101q0 -34 -15.5 -52t-54.5 -18h-41q102 -99 102 -291q0 -173 -80 -267t-218 -94t-218 94t-80 267t80 267t218 94q49 0 91 -12h135v113zM354 75q88 0 141 59t53 158v114q0 99 -53 158t-141 59t-141 -59t-53 -158v-114q0 -99 53 -158t141 -59z" />
    <glyph glyph-name="ohorn" unicode="&#x1a1;" horiz-adv-x="562" 
d="M444 631h81v-100q0 -35 -15 -52.5t-53 -17.5h-10q70 -77 70 -202q0 -123 -65 -197t-171 -74t-171 74t-65 197t65 197t171 74q42 0 78 -12h85v113zM281 68q63 0 100 39t37 113v78q0 74 -37 113t-100 39t-100 -39t-37 -113v-78q0 -74 37 -113t100 -39z" />
    <glyph glyph-name="Uhorn" unicode="&#x1af;" horiz-adv-x="682" 
d="M85 698h97v-431q0 -98 36.5 -145t122.5 -47t122.5 47t36.5 145v431h89v113h81v-103q0 -34 -16 -52t-55 -18h-2v-352q0 -156 -59.5 -227t-199.5 -71q-139 0 -196 70.5t-57 227.5v412z" />
    <glyph glyph-name="uhorn" unicode="&#x1b0;" horiz-adv-x="573" 
d="M571 631v-103q0 -34 -15.5 -52t-54.5 -18h-10v-458h-93v85h-5q-37 -97 -145 -97q-80 0 -126 52.5t-46 146.5v331h93v-317q0 -132 110 -132q49 0 84 24.5t35 70.5v354h92v113h81z" />
    <glyph glyph-name="Aringacute" unicode="&#x1fa;" horiz-adv-x="649" 
d="M441 1089l-106 -104l-48 26l84 114zM325 734q-52 0 -87.5 33t-35.5 83t35.5 83t87.5 33t87.5 -33t35.5 -83t-35.5 -83t-87.5 -33zM325 787q57 0 57 53v20q0 53 -57 53t-57 -53v-20q0 -53 57 -53zM627 0h-102l-66 197h-272l-67 -197h-98l242 698h122zM435 283l-110 326h-5
l-110 -326h225z" />
    <glyph glyph-name="aringacute" unicode="&#x1fb;" horiz-adv-x="541" 
d="M367 917l-104 -103l-44 32l86 116zM255 566q-52 0 -87.5 33t-35.5 83t35.5 83t87.5 33t87.5 -33t35.5 -83t-35.5 -83t-87.5 -33zM255 619q57 0 57 53v20q0 53 -57 53t-57 -53v-20q0 -53 57 -53zM512 0h-53q-79 0 -91 86h-5q-16 -48 -55 -73t-95 -25q-80 0 -125.5 41.5
t-45.5 113.5q0 154 221 154h98v47q0 108 -115 108q-82 0 -127 -74l-56 51q56 101 188 101q97 0 150 -47t53 -131v-273h58v-79zM234 63q55 0 91 25t36 64v80h-99q-123 0 -123 -74v-20q0 -36 25.5 -55.5t69.5 -19.5z" />
    <glyph glyph-name="AEacute" unicode="&#x1fc;" horiz-adv-x="919" 
d="M726 914l-111 -162l-59 28l88 174zM421 0v198h-222l-97 -198h-99l354 698h499v-86h-338v-216h313v-86h-313v-224h338v-86h-435zM421 612h-15l-167 -330h182v330z" />
    <glyph glyph-name="aeacute" unicode="&#x1fd;" horiz-adv-x="864" 
d="M537 746l-111 -162l-59 27l88 175zM361 236h-99q-123 -4 -123 -77v-20q0 -37 25 -56.5t71 -19.5q54 0 90 25t36 64v84zM455 301h265v10q0 65 -34.5 104.5t-92.5 39.5q-61 0 -99.5 -41.5t-38.5 -105.5v-7zM601 67q94 0 140 83l60 -50q-27 -52 -80 -82t-120 -30
q-74 0 -127.5 36t-65.5 78h-6q-11 -42 -61.5 -78t-128.5 -36t-124 42t-46 112q0 77 57 118t164 41h98v43q0 52 -28.5 80t-83.5 28q-86 0 -130 -74l-56 51q24 45 72 73t117 28q122 0 160 -107h6q13 39 63 73t119 34q102 0 160.5 -71.5t58.5 -183.5v-39h-365v-21
q0 -65 39.5 -106.5t107.5 -41.5z" />
    <glyph glyph-name="Oslashacute" unicode="&#x1fe;" horiz-adv-x="708" 
d="M474 914l-111 -162l-59 28l88 174zM354 -12q-99 0 -169 49l-59 -84l-63 41l66 97q-73 93 -73 258q0 173 80 267t218 94q99 0 169 -49l59 84l63 -41l-66 -97q73 -93 73 -258q0 -173 -80 -267t-218 -94zM160 292q0 -69 27 -121l285 414q-49 38 -118 38q-88 0 -141 -59
t-53 -158v-114zM548 406q0 69 -27 121l-285 -414q49 -38 118 -38q88 0 141 59t53 158v114z" />
    <glyph glyph-name="oslashacute" unicode="&#x1ff;" horiz-adv-x="568" 
d="M403 746l-111 -162l-59 27l88 175zM83 -42l-52 39l67 83q-50 72 -50 179q0 123 65 197t171 74q81 0 140 -45l61 75l52 -39l-67 -84q50 -70 50 -178q0 -123 -65 -197t-171 -74q-82 0 -140 44zM284 68q63 0 100 39t37 113v78q0 37 -11 68l-216 -268q34 -30 90 -30zM147 220
q0 -41 10 -68l217 268q-36 30 -90 30q-63 0 -100 -39t-37 -113v-78z" />
    <glyph glyph-name="Scommaaccent" unicode="&#x218;" horiz-adv-x="588" 
d="M290 -61q26 0 40.5 -13.5t14.5 -36.5v-12q0 -70 -62 -128h-63q42 42 53 82q-38 7 -38 48v10q0 23 14.5 36.5t40.5 13.5zM291 -12q-159 0 -250 120l69 62q75 -97 185 -97q70 0 108 33t38 90q0 46 -27.5 72t-92.5 40l-59 12q-100 21 -150 68t-50 127q0 92 64 143.5
t173 51.5q151 0 233 -111l-71 -57q-60 83 -167 83q-64 0 -100 -27.5t-36 -78.5q0 -45 29 -69.5t93 -38.5l59 -12q103 -23 150.5 -70.5t47.5 -127.5q0 -98 -65.5 -155.5t-180.5 -57.5z" />
    <glyph glyph-name="scommaaccent" unicode="&#x219;" horiz-adv-x="490" 
d="M242 -61q26 0 40.5 -13.5t14.5 -36.5v-12q0 -70 -62 -128h-63q42 42 53 82q-38 7 -38 48v10q0 23 14.5 36.5t40.5 13.5zM241 -12q-128 0 -207 100l63 54q61 -77 150 -77q49 0 75.5 20.5t26.5 56.5q0 62 -83 74l-44 7q-168 24 -168 151q0 74 52 115t136 41q117 0 187 -83
l-59 -56q-47 62 -131 62q-46 0 -70.5 -19.5t-24.5 -53.5q0 -33 21.5 -50t68.5 -24l44 -7q161 -24 161 -147q0 -76 -53.5 -120t-144.5 -44z" />
    <glyph glyph-name="uni021A" unicode="&#x21a;" horiz-adv-x="575" 
d="M288 -61q26 0 40.5 -13.5t14.5 -36.5v-12q0 -70 -62 -128h-63q42 42 53 82q-38 7 -38 48v10q0 23 14.5 36.5t40.5 13.5zM239 0v612h-216v86h529v-86h-216v-612h-97z" />
    <glyph glyph-name="uni021B" unicode="&#x21b;" horiz-adv-x="357" 
d="M216 -61q26 0 40.5 -13.5t14.5 -36.5v-12q0 -70 -62 -128h-63q42 42 53 82q-38 7 -38 48v10q0 23 14.5 36.5t40.5 13.5zM307 0h-98q-47 0 -72.5 26t-25.5 72v341h-83v79h46q26 0 36 10.5t10 37.5v95h84v-143h111v-79h-111v-360h103v-79z" />
    <glyph glyph-name="uni0237" unicode="&#x237;" horiz-adv-x="257" 
d="M-1 -200v79h83v639h93v-593q0 -59 -29.5 -92t-89.5 -33h-57z" />
    <glyph glyph-name="uni0259" unicode="&#x259;" horiz-adv-x="552" 
d="M45 282h365v21q0 65 -38.5 106.5t-99.5 41.5q-102 0 -146 -84l-60 51q27 51 81 81.5t125 30.5q108 0 171.5 -74t63.5 -197t-63.5 -197t-171.5 -74q-106 0 -166.5 71.5t-60.5 183.5v39zM144 217v-10q0 -65 35 -104.5t93 -39.5q61 0 99.5 41.5t38.5 105.5v7h-266z" />
    <glyph glyph-name="uni02BB" unicode="&#x2bb;" 
d="M301 591q-26 0 -40.5 13.5t-14.5 36.5v12q0 70 62 128h63q-42 -42 -53 -82q38 -7 38 -48v-10q0 -23 -14.5 -36.5t-40.5 -13.5z" />
    <glyph glyph-name="uni02BC" unicode="&#x2bc;" 
d="M385 740l-55 -191h-61l11 191h105z" />
    <glyph glyph-name="circumflex" unicode="&#x2c6;" 
d="M248 771h104l115 -146l-49 -36l-118 116l-118 -116l-49 36z" />
    <glyph glyph-name="caron" unicode="&#x2c7;" 
d="M352 597h-104l-115 146l49 36l118 -117l118 117l49 -36z" />
    <glyph glyph-name="breve" unicode="&#x2d8;" 
d="M300 593q-39 0 -67.5 11.5t-46.5 34t-27 41.5t-18 46l52 26l20 -33q18 -29 36 -42.5t51 -13.5t51 13.5t36 42.5l20 33l52 -26q-9 -27 -18 -46t-27 -41.5t-46.5 -34t-67.5 -11.5z" />
    <glyph glyph-name="dotaccent" unicode="&#x2d9;" 
d="M300 611q-58 0 -58 51v14q0 51 58 51t58 -51v-14q0 -51 -58 -51z" />
    <glyph glyph-name="ring" unicode="&#x2da;" 
d="M300 573q-51 0 -86.5 34.5t-35.5 85.5t35.5 85.5t86.5 34.5t86.5 -34.5t35.5 -85.5t-35.5 -85.5t-86.5 -34.5zM300 627q27 0 42 14t15 40v24q0 26 -15 40t-42 14t-42 -14t-15 -40v-24q0 -26 15 -40t42 -14z" />
    <glyph glyph-name="ogonek" unicode="&#x2db;" 
d="M251 -208q-44 0 -72 19.5t-28 58.5q0 37 26.5 67t80.5 65l-5 20h61l9 -22q-62 -53 -81.5 -77t-19.5 -43q0 -30 32 -30q30 0 49 25l43 -42q-23 -41 -95 -41z" />
    <glyph glyph-name="tilde" unicode="&#x2dc;" 
d="M374 610q-30 0 -80 25q-45 23 -71 23q-27 0 -59 -26l-36 45q36 55 98 55q30 0 80 -25q45 -23 71 -23q27 0 59 26l36 -45q-36 -55 -98 -55z" />
    <glyph glyph-name="hungarumlaut" unicode="&#x2dd;" 
d="M335 747l-111 -162l-55 25l88 175zM504 747l-112 -162l-54 25l88 175z" />
    <glyph glyph-name="uni0300" unicode="&#x300;" horiz-adv-x="0" 
d="M-9 584l-111 162l82 40l88 -175z" />
    <glyph glyph-name="uni0301" unicode="&#x301;" horiz-adv-x="0" 
d="M120 746l-111 -162l-59 27l88 175z" />
    <glyph glyph-name="uni0302" unicode="&#x302;" horiz-adv-x="0" 
d="M-52 771h104l115 -146l-49 -36l-118 116l-118 -116l-49 36z" />
    <glyph glyph-name="uni0303" unicode="&#x303;" horiz-adv-x="0" 
d="M74 610q-30 0 -80 25q-45 23 -71 23q-27 0 -59 -26l-36 45q36 55 98 55q30 0 80 -25q45 -23 71 -23q27 0 59 26l36 -45q-36 -55 -98 -55z" />
    <glyph glyph-name="uni0304" unicode="&#x304;" horiz-adv-x="0" 
d="M-142 635v74h284v-74h-284z" />
    <glyph glyph-name="uni0306" unicode="&#x306;" horiz-adv-x="0" 
d="M0 593q-39 0 -67.5 11.5t-46.5 34t-27 41.5t-18 46l52 26l20 -33q18 -29 36 -42.5t51 -13.5t51 13.5t36 42.5l20 33l52 -26q-9 -27 -18 -46t-27 -41.5t-46.5 -34t-67.5 -11.5z" />
    <glyph glyph-name="uni0307" unicode="&#x307;" horiz-adv-x="0" 
d="M0 611q-58 0 -58 51v14q0 51 58 51t58 -51v-14q0 -51 -58 -51z" />
    <glyph glyph-name="uni0308" unicode="&#x308;" horiz-adv-x="0" 
d="M-96 615q-55 0 -55 49v14q0 49 55 49t55 -49v-14q0 -49 -55 -49zM96 615q-55 0 -55 49v14q0 49 55 49t55 -49v-14q0 -49 -55 -49z" />
    <glyph glyph-name="uni0309" unicode="&#x309;" horiz-adv-x="0" 
d="M-91 702v70h116q39 0 57 -16t18 -42q0 -46 -51 -108l-24 -31l-52 26l55 101h-119z" />
    <glyph glyph-name="uni030A" unicode="&#x30a;" horiz-adv-x="0" 
d="M0 573q-51 0 -86.5 34.5t-35.5 85.5t35.5 85.5t86.5 34.5t86.5 -34.5t35.5 -85.5t-35.5 -85.5t-86.5 -34.5zM0 627q27 0 42 14t15 40v24q0 26 -15 40t-42 14t-42 -14t-15 -40v-24q0 -26 15 -40t42 -14z" />
    <glyph glyph-name="uni030B" unicode="&#x30b;" horiz-adv-x="0" 
d="M35 747l-111 -162l-55 25l88 175zM204 747l-112 -162l-54 25l88 175z" />
    <glyph glyph-name="uni030C" unicode="&#x30c;" horiz-adv-x="0" 
d="M52 597h-104l-115 146l49 36l118 -117l118 117l49 -36z" />
    <glyph glyph-name="uni0312" unicode="&#x312;" horiz-adv-x="0" 
d="M0 591q-26 0 -40.5 13.5t-14.5 36.5v12q0 70 62 128h63q-42 -42 -53 -82q38 -7 38 -48v-10q0 -23 -14.5 -36.5t-40.5 -13.5z" />
    <glyph glyph-name="uni0315" unicode="&#x315;" horiz-adv-x="0" 
d="M116 740l-55 -191h-61l11 191h105z" />
    <glyph glyph-name="uni031B" unicode="&#x31b;" horiz-adv-x="0" 
d="M86 631v-103q0 -34 -15.5 -52t-54.5 -18h-102v60h91v113h81z" />
    <glyph glyph-name="uni0323" unicode="&#x323;" horiz-adv-x="0" 
d="M0 -176q-57 0 -57 50v13q0 50 57 50t57 -50v-13q0 -50 -57 -50z" />
    <glyph glyph-name="uni0326" unicode="&#x326;" horiz-adv-x="0" 
d="M0 -61q26 0 40.5 -13.5t14.5 -36.5v-12q0 -70 -62 -128h-63q42 42 53 82q-38 7 -38 48v10q0 23 14.5 36.5t40.5 13.5z" />
    <glyph glyph-name="uni0327" unicode="&#x327;" horiz-adv-x="0" 
d="M12 -208q-74 0 -103 42l39 43q22 -28 62 -28q44 0 44 30q0 31 -69 41l-27 4l20 98h53l-16 -82l3 -3q19 6 40 6q31 0 50 -17t19 -49q0 -42 -32.5 -63.5t-82.5 -21.5z" />
    <glyph glyph-name="uni0328" unicode="&#x328;" horiz-adv-x="0" 
d="M-62 -208q-44 0 -72 19.5t-28 58.5q0 37 26.5 67t80.5 65l-5 20h61l9 -22q-62 -53 -81.5 -77t-19.5 -43q0 -30 32 -30q30 0 49 25l43 -42q-23 -41 -95 -41z" />
    <glyph glyph-name="pi" unicode="&#x3c0;" horiz-adv-x="626" 
d="M503 439v-360h85v-79h-80q-46 0 -72 26t-26 70v343h-204v-439h-93v439h-85v79h560v-79h-85z" />
    <glyph glyph-name="uni0400" unicode="&#x400;" horiz-adv-x="588" 
d="M297 752l-111 162l82 40l88 -174zM525 0h-435v698h435v-86h-338v-216h313v-86h-313v-224h338v-86z" />
    <glyph glyph-name="uni0401" unicode="&#x401;" horiz-adv-x="588" 
d="M210 783q-55 0 -55 49v16q0 49 55 49t55 -49v-16q0 -49 -55 -49zM402 783q-55 0 -55 49v16q0 49 55 49t55 -49v-16q0 -49 -55 -49zM525 0h-435v698h435v-86h-338v-216h313v-86h-313v-224h338v-86z" />
    <glyph glyph-name="uni0402" unicode="&#x402;" horiz-adv-x="790" 
d="M502 -168v87h88q46 40 46 146v126q0 163 -155 163q-93 0 -145 -22v-332h-97v612h-216v86h529v-86h-216v-195h5q57 23 145 23q125 0 186 -62t61 -188v-126q0 -232 -184 -232h-47z" />
    <glyph glyph-name="uni0403" unicode="&#x403;" horiz-adv-x="502" 
d="M400 914l-111 -162l-59 28l88 174zM90 0v698h386v-86h-289v-612h-97z" />
    <glyph glyph-name="uni0404" unicode="&#x404;" horiz-adv-x="639" 
d="M349 -12q-141 0 -217 91.5t-76 265.5q0 175 76.5 270t216.5 95q177 0 249 -154l-79 -46q-45 114 -170 114q-90 0 -139 -60t-50 -163v-5h282v-86h-282v-19q1 -102 49.5 -159.5t139.5 -57.5q131 0 176 121l78 -48q-73 -159 -254 -159z" />
    <glyph glyph-name="uni0405" unicode="&#x405;" horiz-adv-x="588" 
d="M291 -12q-159 0 -250 120l69 62q75 -97 185 -97q70 0 108 33t38 90q0 46 -27.5 72t-92.5 40l-59 12q-100 21 -150 68t-50 127q0 92 64 143.5t173 51.5q151 0 233 -111l-71 -57q-60 83 -167 83q-64 0 -100 -27.5t-36 -78.5q0 -45 29 -69.5t93 -38.5l59 -12
q103 -23 150.5 -70.5t47.5 -127.5q0 -98 -65.5 -155.5t-180.5 -57.5z" />
    <glyph glyph-name="uni0406" unicode="&#x406;" horiz-adv-x="407" 
d="M349 0h-291v82h97v534h-97v82h291v-82h-97v-534h97v-82z" />
    <glyph glyph-name="uni0407" unicode="&#x407;" horiz-adv-x="407" 
d="M107 783q-55 0 -55 49v16q0 49 55 49t55 -49v-16q0 -49 -55 -49zM299 783q-55 0 -55 49v16q0 49 55 49t55 -49v-16q0 -49 -55 -49zM349 0h-291v82h97v534h-97v82h291v-82h-97v-534h97v-82z" />
    <glyph glyph-name="uni0408" unicode="&#x408;" horiz-adv-x="519" 
d="M103 698h331v-513q0 -90 -56.5 -143.5t-148.5 -53.5q-83 0 -134.5 44.5t-67.5 121.5l89 20q21 -99 114 -99q51 0 79 31t28 92v414h-234v86z" />
    <glyph glyph-name="uni0409" unicode="&#x409;" horiz-adv-x="1022" 
d="M12 -1v87h74q46 45 65.5 133.5t19.5 279.5v199h412v-275h200q94 0 146.5 -56t52.5 -155t-52.5 -155.5t-146.5 -56.5h-297v612h-222v-121q0 -200 -23.5 -300t-71.5 -148q-44 -44 -118 -44h-39zM583 86h197q47 0 73 25.5t26 74.5v51q0 100 -99 100h-197v-251z" />
    <glyph glyph-name="uni040A" unicode="&#x40a;" horiz-adv-x="1039" 
d="M90 0v698h97v-302h316v302h97v-275h201q94 0 146 -56t52 -155q0 -100 -52 -156t-146 -56h-298v310h-316v-310h-97zM600 86h197q47 0 73 25.5t26 74.5v51q0 100 -99 100h-197v-251z" />
    <glyph glyph-name="uni040B" unicode="&#x40b;" horiz-adv-x="800" 
d="M239 0v612h-216v86h529v-86h-216v-195h5q57 23 150 23q129 0 190.5 -62t61.5 -188v-190h-97v191q0 84 -39.5 123.5t-120.5 39.5q-98 0 -150 -22v-332h-97z" />
    <glyph glyph-name="uni040C" unicode="&#x40c;" horiz-adv-x="664" 
d="M447 914l-111 -162l-59 28l88 174zM90 0v698h97v-302h129l134 230q23 39 46 55.5t57 16.5h49v-86h-62l-115 -197q-15 -27 -27.5 -38.5t-33.5 -18.5v-5q24 -5 42 -19.5t37 -46.5l119 -201h61v-86h-65q-57 0 -99 71l-143 241h-129v-312h-97z" />
    <glyph glyph-name="uni040D" unicode="&#x40d;" horiz-adv-x="710" 
d="M345 752l-111 162l82 40l88 -174zM90 0v698h94v-419l-10 -144h3l70 127l287 436h86v-698h-94v419l9 144h-3l-70 -127l-285 -436h-87z" />
    <glyph glyph-name="uni040E" unicode="&#x40e;" horiz-adv-x="602" 
d="M308 761q-103 0 -143 84l-21 41l79 33l34 -86q22 -6 51 -6q28 0 51 6l34 86l79 -33l-21 -41q-40 -84 -143 -84zM139 0v86h105l30 74l-256 538h105l141 -299l53 -124h4l46 126l118 297h98l-244 -607q-22 -54 -50 -72.5t-86 -18.5h-64z" />
    <glyph glyph-name="uni040F" unicode="&#x40f;" horiz-adv-x="696" 
d="M303 -150v150h-213v698h97v-612h322v612h97v-698h-213v-150h-90z" />
    <glyph glyph-name="uni0410" unicode="&#x410;" horiz-adv-x="649" 
d="M627 0h-102l-66 197h-272l-67 -197h-98l242 698h122zM435 283l-110 326h-5l-110 -326h225z" />
    <glyph glyph-name="uni0411" unicode="&#x411;" horiz-adv-x="640" 
d="M90 0v698h436v-86h-339v-191h202q94 0 146 -56t52 -155q0 -98 -52 -154t-146 -56h-299zM187 86h199q47 0 73 25.5t26 74.5v48q0 101 -99 101h-199v-249z" />
    <glyph glyph-name="uni0412" unicode="&#x412;" horiz-adv-x="657" 
d="M90 0v698h297q86 0 136.5 -49t50.5 -131q0 -71 -35.5 -107t-82.5 -41v-6q22 -1 45 -10.5t45.5 -27.5t37 -51t14.5 -74q0 -86 -52 -143.5t-129 -57.5h-327zM187 317v-233h201q50 0 78 25.5t28 73.5v35q0 48 -28 73.5t-78 25.5h-201zM187 614v-215h185q46 0 72 24t26 67v33
q0 43 -26 67t-72 24h-185z" />
    <glyph glyph-name="uni0413" unicode="&#x413;" horiz-adv-x="502" 
d="M90 0v698h386v-86h-289v-612h-97z" />
    <glyph glyph-name="uni0414" unicode="&#x414;" horiz-adv-x="743" 
d="M11 -150v236h74q91 125 91 404v208h435v-612h101v-236h-90v150h-521v-150h-90zM197 86h317v526h-245v-131q0 -280 -72 -391v-4z" />
    <glyph glyph-name="uni0415" unicode="&#x415;" horiz-adv-x="588" 
d="M525 0h-435v698h435v-86h-338v-216h313v-86h-313v-224h338v-86z" />
    <glyph glyph-name="uni0416" unicode="&#x416;" horiz-adv-x="983" 
d="M41 0v86h63l100 199q29 57 76 68v5q-42 12 -67 64l-90 190h-63v86h54q68 0 104 -74l108 -228h117v302h97v-302h117l109 228q36 74 103 74h54v-86h-63l-91 -190q-25 -52 -66 -64v-5q48 -11 77 -68l99 -199h63v-86h-67q-33 0 -56 16.5t-44 58.5l-118 237h-117v-312h-97v312
h-117l-119 -237q-21 -42 -43.5 -58.5t-55.5 -16.5h-67z" />
    <glyph glyph-name="uni0417" unicode="&#x417;" horiz-adv-x="596" 
d="M282 -12q-157 0 -247 120l69 59q66 -93 178 -93q73 0 112 29.5t39 87.5v12q0 111 -140 111h-108v85h102q68 0 99.5 27.5t31.5 84.5v12q0 101 -130 101q-107 0 -162 -77l-70 52q81 111 232 111q113 0 173.5 -49.5t60.5 -135.5q0 -69 -36 -109.5t-99 -52.5v-5
q66 -7 108 -47.5t42 -114.5q0 -95 -68.5 -151.5t-186.5 -56.5z" />
    <glyph glyph-name="uni0418" unicode="&#x418;" horiz-adv-x="710" 
d="M90 0v698h94v-419l-10 -144h3l70 127l287 436h86v-698h-94v419l9 144h-3l-70 -127l-285 -436h-87z" />
    <glyph glyph-name="uni0419" unicode="&#x419;" horiz-adv-x="710" 
d="M353 761q-103 0 -143 84l-21 41l79 33l34 -86q22 -6 51 -6t51 6l34 86l79 -33l-21 -41q-40 -84 -143 -84zM90 0v698h94v-419l-10 -144h3l70 127l287 436h86v-698h-94v419l9 144h-3l-70 -127l-285 -436h-87z" />
    <glyph glyph-name="uni041A" unicode="&#x41a;" horiz-adv-x="664" 
d="M90 0v698h97v-302h129l134 230q23 39 46 55.5t57 16.5h49v-86h-62l-115 -197q-15 -27 -27.5 -38.5t-33.5 -18.5v-5q24 -5 42 -19.5t37 -46.5l119 -201h61v-86h-65q-57 0 -99 71l-143 241h-129v-312h-97z" />
    <glyph glyph-name="uni041B" unicode="&#x41b;" horiz-adv-x="695" 
d="M12 -1v87h74q46 45 65.5 133.5t19.5 279.5v199h434v-698h-97v612h-244v-121q0 -200 -23.5 -300t-71.5 -148q-44 -44 -118 -44h-39z" />
    <glyph glyph-name="uni041C" unicode="&#x41c;" horiz-adv-x="812" 
d="M90 0v698h122l194 -367h4l194 367h118v-698h-94v564h-5l-57 -115l-160 -293l-160 293l-57 115h-5v-564h-94z" />
    <glyph glyph-name="uni041D" unicode="&#x41d;" horiz-adv-x="710" 
d="M523 0v310h-336v-310h-97v698h97v-302h336v302h97v-698h-97z" />
    <glyph glyph-name="uni041E" unicode="&#x41e;" horiz-adv-x="708" 
d="M354 -12q-138 0 -218 94t-80 267t80 267t218 94t218 -94t80 -267t-80 -267t-218 -94zM354 75q88 0 141 59t53 158v114q0 99 -53 158t-141 59t-141 -59t-53 -158v-114q0 -99 53 -158t141 -59z" />
    <glyph glyph-name="uni041F" unicode="&#x41f;" horiz-adv-x="696" 
d="M90 0v698h516v-698h-97v612h-322v-612h-97z" />
    <glyph glyph-name="uni0420" unicode="&#x420;" horiz-adv-x="616" 
d="M187 0h-97v698h288q93 0 145.5 -55.5t52.5 -149.5t-52.5 -149.5t-145.5 -55.5h-191v-288zM187 612v-238h187q47 0 73 24.5t26 69.5v50q0 45 -26 69.5t-73 24.5h-187z" />
    <glyph glyph-name="uni0421" unicode="&#x421;" horiz-adv-x="627" 
d="M343 -12q-135 0 -211 94t-76 267t76 267t211 94q174 0 244 -155l-80 -46q-43 114 -164 114q-85 0 -134 -59.5t-49 -161.5v-106q0 -102 49 -161.5t134 -59.5q63 0 106.5 32.5t63.5 88.5l78 -47q-34 -77 -97.5 -119t-150.5 -42z" />
    <glyph glyph-name="uni0422" unicode="&#x422;" horiz-adv-x="575" 
d="M239 0v612h-216v86h529v-86h-216v-612h-97z" />
    <glyph glyph-name="uni0423" unicode="&#x423;" horiz-adv-x="602" 
d="M139 0v86h105l30 74l-256 538h105l141 -299l53 -124h4l46 126l118 297h98l-244 -607q-22 -54 -50 -72.5t-86 -18.5h-64z" />
    <glyph glyph-name="uni0424" unicode="&#x424;" horiz-adv-x="854" 
d="M379 -32v90h-33q-137 0 -218 81.5t-81 208.5t81 208.5t219 81.5h32v90h97v-90h32q137 0 218 -81.5t81 -208.5t-81 -208.5t-218 -81.5h-32v-90h-97zM346 139h35v418h-34q-89 0 -143 -50.5t-54 -127.5v-62q0 -78 54 -128t142 -50zM474 139h34q88 0 142.5 50.5t54.5 127.5
v62q0 77 -54 127.5t-143 50.5h-34v-418z" />
    <glyph glyph-name="uni0425" unicode="&#x425;" horiz-adv-x="624" 
d="M22 0l228 357l-221 341h116l167 -270h3l171 270h109l-222 -340l229 -358h-116l-176 286h-3l-176 -286h-109z" />
    <glyph glyph-name="uni0426" unicode="&#x426;" horiz-adv-x="738" 
d="M617 -150v150h-527v698h97v-612h322v612h97v-612h101v-236h-90z" />
    <glyph glyph-name="uni0427" unicode="&#x427;" horiz-adv-x="651" 
d="M464 0v270h-5q-57 -23 -150 -23q-129 0 -190.5 61.5t-61.5 187.5v202h97v-203q0 -84 39.5 -123.5t120.5 -39.5q98 0 150 22v344h97v-698h-97z" />
    <glyph glyph-name="uni0428" unicode="&#x428;" horiz-adv-x="970" 
d="M90 0v698h97v-612h250v612h97v-612h249v612h97v-698h-790z" />
    <glyph glyph-name="uni0429" unicode="&#x429;" horiz-adv-x="1012" 
d="M891 -150v150h-801v698h97v-612h250v612h97v-612h249v612h97v-612h101v-236h-90z" />
    <glyph glyph-name="uni042A" unicode="&#x42a;" horiz-adv-x="745" 
d="M198 0v612h-176v86h273v-275h212q94 0 146 -56t52 -155q0 -100 -52 -156t-146 -56h-309zM295 86h209q98 0 98 100v51q0 100 -98 100h-209v-251z" />
    <glyph glyph-name="uni042B" unicode="&#x42b;" horiz-adv-x="886" 
d="M90 0v698h97v-275h202q94 0 146 -56t52 -155q0 -100 -52 -156t-146 -56h-299zM187 86h199q98 0 98 100v51q0 100 -98 100h-199v-251zM699 0v698h97v-698h-97z" />
    <glyph glyph-name="uni042C" unicode="&#x42c;" horiz-adv-x="637" 
d="M90 0v698h97v-275h212q94 0 146 -56t52 -155q0 -100 -52 -156t-146 -56h-309zM187 86h209q98 0 98 100v51q0 100 -98 100h-209v-251z" />
    <glyph glyph-name="uni042D" unicode="&#x42d;" horiz-adv-x="639" 
d="M197 310v86h282v12q0 102 -49.5 159t-139.5 57q-125 0 -170 -114l-80 46q74 154 250 154q141 0 216.5 -91.5t75.5 -265.5q0 -175 -76 -270t-216 -95q-181 0 -254 159l78 48q44 -121 176 -121q90 0 139.5 60t49.5 163v13h-282z" />
    <glyph glyph-name="uni042E" unicode="&#x42e;" horiz-adv-x="972" 
d="M625 -12q-132 0 -206.5 82.5t-83.5 239.5h-148v-310h-97v698h97v-302h150q8 150 82.5 232t205.5 82q138 0 214.5 -92t76.5 -269t-76.5 -269t-214.5 -92zM625 74q87 0 137 57.5t50 160.5v114q0 103 -50 160.5t-137 57.5t-137 -57.5t-50 -160.5v-114q0 -103 50 -160.5
t137 -57.5z" />
    <glyph glyph-name="uni042F" unicode="&#x42f;" horiz-adv-x="647" 
d="M41 0v86h61l80 152q15 30 29.5 43t38.5 20v5q-88 4 -133.5 54t-45.5 135q0 96 52.5 149.5t145.5 53.5h288v-698h-97v292h-141l-118 -221q-22 -41 -43 -56t-53 -15h-64zM273 374h187v238h-187q-47 0 -73 -24.5t-26 -69.5v-50q0 -45 26 -69.5t73 -24.5z" />
    <glyph glyph-name="uni0430" unicode="&#x430;" horiz-adv-x="541" 
d="M512 0h-53q-79 0 -91 86h-5q-16 -48 -55 -73t-95 -25q-80 0 -125.5 41.5t-45.5 113.5q0 154 221 154h98v47q0 108 -115 108q-82 0 -127 -74l-56 51q56 101 188 101q97 0 150 -47t53 -131v-273h58v-79zM234 63q55 0 91 25t36 64v80h-99q-123 0 -123 -74v-20
q0 -36 25.5 -55.5t69.5 -19.5z" />
    <glyph glyph-name="uni0431" unicode="&#x431;" horiz-adv-x="565" 
d="M284 -12q-235 0 -235 322q0 218 62 315.5t205 109.5l164 14v-93l-172 -14q-86 -8 -119.5 -56t-42.5 -176h4q22 54 58.5 79.5t94.5 25.5q97 0 157 -70t60 -192q0 -119 -65 -192t-171 -73zM288 68q60 0 96.5 38.5t36.5 108.5v66q0 75 -37 114.5t-103 39.5q-65 0 -99 -33
t-34 -90v-90q0 -75 37 -114.5t103 -39.5z" />
    <glyph glyph-name="uni0432" unicode="&#x432;" horiz-adv-x="561" 
d="M82 0v518h267q65 0 101.5 -35.5t36.5 -95.5q0 -97 -103 -111v-4q59 -4 90 -36t31 -82q0 -66 -39.5 -110t-105.5 -44h-278zM175 73h161q33 0 52 17.5t19 50.5v24q0 32 -19 49.5t-52 17.5h-161v-159zM175 302h149q65 0 65 60v23q0 60 -65 60h-149v-143z" />
    <glyph glyph-name="uni0433" unicode="&#x433;" horiz-adv-x="437" 
d="M82 0v518h331v-79h-238v-439h-93z" />
    <glyph glyph-name="uni0434" unicode="&#x434;" horiz-adv-x="609" 
d="M8 -140v219h61q66 104 66 290v149h363v-439h87v-219h-85v140h-407v-140h-85zM168 79h237v360h-181v-75q0 -186 -56 -285z" />
    <glyph glyph-name="uni0435" unicode="&#x435;" horiz-adv-x="552" 
d="M280 -12q-108 0 -171.5 74t-63.5 197t63.5 197t171.5 74q106 0 166.5 -71.5t60.5 -183.5v-39h-365v-21q0 -66 39 -107t107 -41q96 0 140 84l60 -51q-28 -51 -82.5 -81.5t-125.5 -30.5zM280 455q-61 0 -99.5 -41.5t-38.5 -105.5v-7h266v10q0 65 -35 104.5t-93 39.5z" />
    <glyph glyph-name="uni0436" unicode="&#x436;" horiz-adv-x="788" 
d="M40 0v79h59l57 133q20 46 62 53v4q-39 13 -60 57l-51 113h-59v79h50q63 0 95 -65l68 -148h87v213h93v-213h87l68 148q30 65 95 65h50v-79h-59l-52 -113q-19 -45 -60 -57v-4q42 -6 62 -53l57 -133h59v-79h-59q-61 0 -93 71l-68 157h-87v-228h-93v228h-87l-69 -157
q-17 -39 -39.5 -55t-53.5 -16h-59z" />
    <glyph glyph-name="uni0437" unicode="&#x437;" horiz-adv-x="507" 
d="M235 -12q-141 0 -208 102l65 56q45 -78 143 -78q58 0 88 20.5t30 56.5v12q0 73 -93 73h-112v73h101q92 0 92 68v11q0 68 -108 68q-92 0 -135 -73l-60 51q60 102 200 102q99 0 150 -37t51 -103q0 -94 -101 -115v-4q54 -7 83.5 -39t29.5 -81q0 -75 -58.5 -119t-157.5 -44z
" />
    <glyph glyph-name="uni0438" unicode="&#x438;" horiz-adv-x="593" 
d="M82 0v518h91v-272l-9 -124h4l63 111l195 285h85v-518h-91v272l9 123h-4l-63 -110l-195 -285h-85z" />
    <glyph glyph-name="uni0439" unicode="&#x439;" horiz-adv-x="593" 
d="M297 593q-103 0 -143 84l-21 41l79 33l34 -86q23 -6 51 -6q29 0 51 6l34 86l79 -33l-21 -41q-40 -84 -143 -84zM82 0v518h91v-272l-9 -124h4l63 111l195 285h85v-518h-91v272l9 123h-4l-63 -110l-195 -285h-85z" />
    <glyph glyph-name="uni043A" unicode="&#x43a;" horiz-adv-x="558" 
d="M82 0v518h93v-213h98l94 152q21 36 41.5 48.5t50.5 12.5h50v-79h-60l-74 -119q-16 -26 -27 -35.5t-30 -15.5v-4q41 -6 67 -53l75 -133h58v-79h-60q-58 0 -94 65l-91 163h-98v-228h-93z" />
    <glyph glyph-name="uni043B" unicode="&#x43b;" horiz-adv-x="574" 
d="M9 -1v80h68q53 72 53 288v151h362v-518h-93v439h-180v-75q0 -257 -72 -329q-35 -36 -104 -36h-34z" />
    <glyph glyph-name="uni043C" unicode="&#x43c;" horiz-adv-x="702" 
d="M82 0v518h117l153 -258h2l153 258h113v-518h-91v405h-4l-32 -59l-142 -241l-142 241l-32 59h-4v-405h-91z" />
    <glyph glyph-name="uni043D" unicode="&#x43d;" horiz-adv-x="593" 
d="M82 0v518h93v-212h243v212h93v-518h-93v227h-243v-227h-93z" />
    <glyph glyph-name="uni043E" unicode="&#x43e;" horiz-adv-x="562" 
d="M281 -12q-106 0 -171 74t-65 197t65 197t171 74t171 -74t65 -197t-65 -197t-171 -74zM281 68q63 0 100 39t37 113v78q0 74 -37 113t-100 39t-100 -39t-37 -113v-78q0 -74 37 -113t100 -39z" />
    <glyph glyph-name="uni043F" unicode="&#x43f;" horiz-adv-x="577" 
d="M82 0v518h413v-518h-93v439h-227v-439h-93z" />
    <glyph glyph-name="uni0440" unicode="&#x440;" horiz-adv-x="585" 
d="M82 -200v718h93v-85h4q36 97 149 97q97 0 152.5 -72.5t55.5 -198.5t-55.5 -198.5t-152.5 -72.5q-113 0 -149 97h-4v-285h-93zM301 69q62 0 99 40t37 106v88q0 66 -37 106t-99 40q-53 0 -89.5 -27t-36.5 -68v-190q0 -41 36.5 -68t89.5 -27z" />
    <glyph glyph-name="uni0441" unicode="&#x441;" horiz-adv-x="505" 
d="M278 -12q-110 0 -171.5 72.5t-61.5 198.5t61.5 198.5t171.5 72.5q146 0 196 -124l-77 -38q-13 39 -44 60.5t-75 21.5q-65 0 -99.5 -40t-34.5 -106v-90q0 -66 34.5 -106t99.5 -40q91 0 132 88l68 -42q-25 -60 -76 -93t-124 -33z" />
    <glyph glyph-name="uni0442" unicode="&#x442;" horiz-adv-x="477" 
d="M192 0v439h-172v79h437v-79h-172v-439h-93z" />
    <glyph glyph-name="uni0443" unicode="&#x443;" horiz-adv-x="506" 
d="M285 187l116 331h90l-225 -631q-19 -50 -44.5 -68.5t-83.5 -18.5h-51v79h85l35 100l-192 539h93l115 -331l27 -97h5z" />
    <glyph glyph-name="uni0444" unicode="&#x444;" horiz-adv-x="760" 
d="M334 -200v254h-4q-40 -66 -111 -66q-86 0 -128 66t-42 205q0 138 42 204.5t128 66.5q70 0 111 -67h4v247h93v-247h3q42 67 111 67q86 0 128 -66.5t42 -204.5q0 -139 -41.5 -205t-128.5 -66q-69 0 -111 66h-3v-254h-93zM248 66q87 0 87 67v251q0 68 -87 68
q-53 0 -76.5 -34.5t-23.5 -113.5v-91q0 -79 23.5 -113t76.5 -34zM513 66q53 0 76.5 34.5t23.5 112.5v91q0 79 -23.5 113.5t-76.5 34.5q-87 0 -87 -68v-251q0 -67 87 -67z" />
    <glyph glyph-name="uni0445" unicode="&#x445;" horiz-adv-x="518" 
d="M21 0l188 261l-181 257h108l125 -187h3l128 187h102l-181 -253l184 -265h-108l-128 196h-3l-135 -196h-102z" />
    <glyph glyph-name="uni0446" unicode="&#x446;" horiz-adv-x="606" 
d="M497 -140v140h-415v518h93v-439h228v439h93v-439h86v-219h-85z" />
    <glyph glyph-name="uni0447" unicode="&#x447;" horiz-adv-x="546" 
d="M371 0v234h-5q-53 -63 -148 -63q-82 0 -125 41.5t-43 122.5v183h93v-176q0 -90 105 -90q55 0 89 16t34 45v205h93v-518h-93z" />
    <glyph glyph-name="uni0448" unicode="&#x448;" horiz-adv-x="807" 
d="M82 0v518h93v-439h182v439h93v-439h182v439h93v-518h-643z" />
    <glyph glyph-name="uni0449" unicode="&#x449;" horiz-adv-x="835" 
d="M726 -140v140h-644v518h93v-439h182v439h93v-439h182v439h93v-439h86v-219h-85z" />
    <glyph glyph-name="uni044A" unicode="&#x44a;" horiz-adv-x="599" 
d="M153 0v439h-133v79h226v-181h146q78 0 125 -45.5t47 -122.5q0 -79 -46 -124t-125 -45h-240zM246 77h131q89 0 89 71v41q0 71 -89 71h-131v-183z" />
    <glyph glyph-name="uni044B" unicode="&#x44b;" horiz-adv-x="740" 
d="M82 0v518h93v-181h135q79 0 125.5 -45.5t46.5 -123.5q0 -79 -46 -123.5t-125 -44.5h-229zM175 77h120q89 0 89 71v41q0 71 -89 71h-120v-183zM565 0v518h93v-518h-93z" />
    <glyph glyph-name="uni044C" unicode="&#x44c;" horiz-adv-x="528" 
d="M82 0v518h93v-181h145q79 0 125.5 -45.5t46.5 -123.5q0 -79 -46 -123.5t-125 -44.5h-239zM175 77h130q89 0 89 71v41q0 71 -89 71h-130v-183z" />
    <glyph glyph-name="uni044D" unicode="&#x44d;" horiz-adv-x="516" 
d="M159 225v73h213v7q0 67 -35.5 106t-103.5 39q-98 0 -136 -86l-69 43q56 123 205 123q113 0 175.5 -72.5t62.5 -198.5t-62.5 -198.5t-175.5 -72.5q-146 0 -202 123l76 39q29 -82 126 -82q68 0 103.5 39t35.5 107v11h-213z" />
    <glyph glyph-name="uni044E" unicode="&#x44e;" horiz-adv-x="789" 
d="M515 -12q-99 0 -160 63.5t-68 176.5h-112v-228h-93v518h93v-213h114q11 106 70.5 165.5t155.5 59.5q106 0 167.5 -72t61.5 -199t-61.5 -199t-167.5 -72zM515 68q130 0 130 151v80q0 151 -130 151t-130 -151v-80q0 -151 130 -151z" />
    <glyph glyph-name="uni044F" unicode="&#x44f;" horiz-adv-x="545" 
d="M39 0v79h58l31 70q20 46 61 53v4q-66 7 -101.5 45.5t-35.5 103.5q0 75 46.5 119t125.5 44h239v-518h-93v195h-124l-54 -123q-31 -72 -94 -72h-59zM239 270h131v171h-131q-89 0 -89 -71v-30q0 -70 89 -70z" />
    <glyph glyph-name="uni0450" unicode="&#x450;" horiz-adv-x="552" 
d="M272 584l-111 162l82 40l88 -175zM280 -12q-108 0 -171.5 74t-63.5 197t63.5 197t171.5 74q106 0 166.5 -71.5t60.5 -183.5v-39h-365v-21q0 -66 39 -107t107 -41q96 0 140 84l60 -51q-28 -51 -82.5 -81.5t-125.5 -30.5zM280 455q-61 0 -99.5 -41.5t-38.5 -105.5v-7h266
v10q0 65 -35 104.5t-93 39.5z" />
    <glyph glyph-name="uni0451" unicode="&#x451;" horiz-adv-x="552" 
d="M185 615q-55 0 -55 49v14q0 49 55 49t55 -49v-14q0 -49 -55 -49zM377 615q-55 0 -55 49v14q0 49 55 49t55 -49v-14q0 -49 -55 -49zM280 -12q-108 0 -171.5 74t-63.5 197t63.5 197t171.5 74q106 0 166.5 -71.5t60.5 -183.5v-39h-365v-21q0 -66 39 -107t107 -41
q96 0 140 84l60 -51q-28 -51 -82.5 -81.5t-125.5 -30.5zM280 455q-61 0 -99.5 -41.5t-38.5 -105.5v-7h266v10q0 65 -35 104.5t-93 39.5z" />
    <glyph glyph-name="uni0452" unicode="&#x452;" horiz-adv-x="572" 
d="M320 -200v79h83v438q0 132 -108 132q-49 0 -84.5 -24.5t-35.5 -69.5v-355h-93v605h-64v69h64v66h93v-66h148v-69h-148v-172h4q41 97 146 97q80 0 125.5 -52.5t45.5 -146.5v-408q0 -58 -29.5 -90.5t-88.5 -32.5h-58z" />
    <glyph glyph-name="uni0453" unicode="&#x453;" horiz-adv-x="437" 
d="M367 746l-111 -162l-59 27l88 175zM82 0v518h331v-79h-238v-439h-93z" />
    <glyph glyph-name="uni0454" unicode="&#x454;" horiz-adv-x="516" 
d="M283 -12q-114 0 -176 72.5t-62 198.5t62 198.5t175 72.5q148 0 202 -122l-77 -39q-29 81 -125 81q-68 0 -103 -39.5t-35 -105.5v-7h212v-73h-212v-11q0 -67 35 -106.5t104 -39.5q98 0 137 87l69 -43q-59 -124 -206 -124z" />
    <glyph glyph-name="uni0455" unicode="&#x455;" horiz-adv-x="490" 
d="M241 -12q-128 0 -207 100l63 54q61 -77 150 -77q49 0 75.5 20.5t26.5 56.5q0 62 -83 74l-44 7q-168 24 -168 151q0 74 52 115t136 41q117 0 187 -83l-59 -56q-47 62 -131 62q-46 0 -70.5 -19.5t-24.5 -53.5q0 -33 21.5 -50t68.5 -24l44 -7q161 -24 161 -147
q0 -76 -53.5 -120t-144.5 -44z" />
    <glyph glyph-name="uni0456" unicode="&#x456;" horiz-adv-x="257" 
d="M129 626q-56 0 -56 51v14q0 51 56 51t56 -51v-14q0 -51 -56 -51zM82 0v518h93v-518h-93z" />
    <glyph glyph-name="uni0457" unicode="&#x457;" horiz-adv-x="257" 
d="M33 615q-55 0 -55 49v14q0 49 55 49t55 -49v-14q0 -49 -55 -49zM225 615q-55 0 -55 49v14q0 49 55 49t55 -49v-14q0 -49 -55 -49zM175 0h-93v518h93v-518z" />
    <glyph glyph-name="uni0458" unicode="&#x458;" horiz-adv-x="257" 
d="M82 -121v639h93v-593q0 -59 -29.5 -92t-89.5 -33h-57v79h83zM129 626q-56 0 -56 51v14q0 51 56 51t56 -51v-14q0 -51 -56 -51z" />
    <glyph glyph-name="uni0459" unicode="&#x459;" horiz-adv-x="816" 
d="M9 -1v80h68q53 72 53 288v151h343v-181h135q79 0 126 -45.5t47 -123.5q0 -79 -46.5 -123.5t-125.5 -44.5h-229v439h-162v-75q0 -258 -71 -329q-35 -36 -104 -36h-34zM473 77h120q90 0 90 71v41q0 71 -90 71h-120v-183z" />
    <glyph glyph-name="uni045A" unicode="&#x45a;" horiz-adv-x="839" 
d="M82 0v518h93v-212h228v212h93v-181h135q79 0 126 -45.5t47 -123.5q0 -79 -46.5 -123.5t-125.5 -44.5h-229v227h-228v-227h-93zM496 77h120q90 0 90 71v41q0 71 -90 71h-120v-183z" />
    <glyph glyph-name="uni045B" unicode="&#x45b;" horiz-adv-x="572" 
d="M175 0h-93v606h-64v68h64v66h93v-66h148v-68h-148v-173h4q41 97 146 97q80 0 125.5 -52.5t45.5 -146.5v-331h-93v317q0 132 -108 132q-49 0 -84.5 -24.5t-35.5 -69.5v-355z" />
    <glyph glyph-name="uni045C" unicode="&#x45c;" horiz-adv-x="558" 
d="M403 746l-111 -162l-59 27l88 175zM82 0v518h93v-213h98l94 152q21 36 41.5 48.5t50.5 12.5h50v-79h-60l-74 -119q-16 -26 -27 -35.5t-30 -15.5v-4q41 -6 67 -53l75 -133h58v-79h-60q-58 0 -94 65l-91 163h-98v-228h-93z" />
    <glyph glyph-name="uni045D" unicode="&#x45d;" horiz-adv-x="593" 
d="M288 584l-111 162l82 40l88 -175zM82 0v518h91v-272l-9 -124h4l63 111l195 285h85v-518h-91v272l9 123h-4l-63 -110l-195 -285h-85z" />
    <glyph glyph-name="uni045E" unicode="&#x45e;" horiz-adv-x="506" 
d="M254 593q-103 0 -143 84l-21 41l79 33l34 -86q22 -6 51 -6q28 0 51 6l34 86l79 -33l-21 -41q-40 -84 -143 -84zM285 187l116 331h90l-225 -631q-19 -50 -44.5 -68.5t-83.5 -18.5h-51v79h85l35 100l-192 539h93l115 -331l27 -97h5z" />
    <glyph glyph-name="uni045F" unicode="&#x45f;" horiz-adv-x="577" 
d="M246 -140v140h-164v518h93v-439h227v439h93v-518h-164v-140h-85z" />
    <glyph glyph-name="uni0472" unicode="&#x472;" horiz-adv-x="710" 
d="M355 -12q-138 0 -218.5 94t-80.5 267t80.5 267t218.5 94t218.5 -94t80.5 -267t-80.5 -267t-218.5 -94zM355 73q88 0 142.5 59.5t54.5 159.5v18h-394v-18q0 -100 54.5 -159.5t142.5 -59.5zM158 406v-10h394v10q0 100 -54.5 159.5t-142.5 59.5t-142.5 -59.5t-54.5 -159.5z
" />
    <glyph glyph-name="uni0473" unicode="&#x473;" horiz-adv-x="561" 
d="M280 -12q-106 0 -170.5 74t-64.5 197t64.5 197t170.5 74t171 -74t65 -197t-65 -197t-171 -74zM280 66q64 0 101.5 39t37.5 113v10h-277v-10q0 -74 37.5 -113t100.5 -39zM142 300v-3h277v3q0 74 -37.5 113t-101.5 39q-63 0 -100.5 -39t-37.5 -113z" />
    <glyph glyph-name="uni0490" unicode="&#x490;" horiz-adv-x="502" 
d="M90 0v698h296v150h90v-236h-289v-612h-97z" />
    <glyph glyph-name="uni0491" unicode="&#x491;" horiz-adv-x="437" 
d="M82 0v518h246v140h85v-219h-238v-439h-93z" />
    <glyph glyph-name="uni0492" unicode="&#x492;" horiz-adv-x="524" 
d="M112 0v327h-96v74h96v297h386v-86h-289v-211h193v-74h-193v-327h-97z" />
    <glyph glyph-name="uni0493" unicode="&#x493;" horiz-adv-x="455" 
d="M100 0v225h-72v69h72v224h331v-79h-238v-145h156v-69h-156v-225h-93z" />
    <glyph glyph-name="uni0494" unicode="&#x494;" horiz-adv-x="641" 
d="M337 -168v87h87q63 44 63 164v69q0 164 -155 164q-89 0 -145 -22v-294h-97v698h386v-86h-289v-234h5q58 23 145 23q125 0 186 -61.5t61 -188.5v-69q0 -120 -54.5 -185t-145.5 -65h-47z" />
    <glyph glyph-name="uni0495" unicode="&#x495;" horiz-adv-x="545" 
d="M288 -200v79h85q30 35 30 132v95q0 63 -24.5 88.5t-80.5 25.5t-89.5 -16t-33.5 -45v-159h-93v518h331v-79h-238v-201h5q51 63 148 63q85 0 126.5 -44.5t41.5 -143.5v-114q0 -199 -154 -199h-54z" />
    <glyph glyph-name="uni0496" unicode="&#x496;" horiz-adv-x="994" 
d="M890 -150v150h-15q-33 0 -56 16.5t-44 58.5l-118 237h-117v-312h-97v312h-117l-119 -237q-21 -42 -43.5 -58.5t-55.5 -16.5h-67v86h63l100 199q29 57 76 68v5q-42 12 -67 64l-90 190h-63v86h54q68 0 104 -74l108 -228h117v302h97v-302h117l109 228q36 74 103 74h54v-86
h-63l-91 -190q-25 -52 -66 -64v-5q48 -11 77 -68l99 -199h101v-236h-90z" />
    <glyph glyph-name="uni0497" unicode="&#x497;" horiz-adv-x="794" 
d="M691 -140v140h-3q-60 0 -92 71l-68 157h-87v-228h-93v228h-87l-69 -157q-17 -39 -39.5 -55t-53.5 -16h-59v79h59l57 133q20 46 62 53v4q-39 13 -60 57l-51 113h-59v79h50q63 0 95 -65l68 -148h87v213h93v-213h87l68 148q30 65 95 65h50v-79h-59l-52 -113q-19 -45 -60 -57
v-4q42 -6 62 -53l57 -133h87v-219h-85z" />
    <glyph glyph-name="uni0498" unicode="&#x498;" horiz-adv-x="596" 
d="M240 -150v141q-130 13 -205 117l69 59q66 -93 178 -93q73 0 112 29.5t39 87.5v12q0 111 -140 111h-108v85h102q68 0 99.5 27.5t31.5 84.5v12q0 101 -130 101q-107 0 -162 -77l-70 52q81 111 232 111q113 0 173.5 -49.5t60.5 -135.5q0 -69 -36 -109.5t-99 -52.5v-5
q66 -7 108 -47.5t42 -114.5q0 -84 -55 -139t-153 -66v-141h-89z" />
    <glyph glyph-name="uni0499" unicode="&#x499;" horiz-adv-x="507" 
d="M193 -140v131q-108 11 -166 99l65 56q45 -78 143 -78q58 0 88 20.5t30 56.5v12q0 73 -93 73h-112v73h101q92 0 92 68v11q0 68 -108 68q-92 0 -135 -73l-60 51q60 102 200 102q99 0 150 -37t51 -103q0 -94 -101 -115v-4q54 -7 83.5 -39t29.5 -81q0 -66 -46.5 -108.5
t-126.5 -51.5v-131h-85z" />
    <glyph glyph-name="uni049A" unicode="&#x49a;" horiz-adv-x="675" 
d="M573 -150v150h-15q-57 0 -99 71l-143 241h-129v-312h-97v698h97v-302h129l134 230q23 39 46 55.5t57 16.5h49v-86h-62l-115 -197q-15 -27 -27.5 -38.5t-33.5 -18.5v-5q24 -5 42 -19.5t37 -46.5l119 -201h101v-236h-90z" />
    <glyph glyph-name="uni049B" unicode="&#x49b;" horiz-adv-x="565" 
d="M462 -140v140h-4q-58 0 -94 65l-91 163h-98v-228h-93v518h93v-213h98l94 152q21 36 41.5 48.5t50.5 12.5h50v-79h-60l-74 -119q-16 -26 -27 -35.5t-30 -15.5v-4q41 -6 67 -53l75 -133h87v-219h-85z" />
    <glyph glyph-name="uni049C" unicode="&#x49c;" horiz-adv-x="704" 
d="M90 0v698h97v-302h54v150h74v-150h51l123 228q39 74 104 74h48v-86h-62l-104 -193q-17 -30 -30 -43.5t-31 -17.5v-5q24 -5 41 -19.5t35 -47.5l111 -200h61v-86h-65q-30 0 -53 16t-44 55l-134 241h-51v-150h-74v150h-54v-312h-97z" />
    <glyph glyph-name="uni049D" unicode="&#x49d;" horiz-adv-x="597" 
d="M82 0v518h93v-213h43v117h67v-117h37l84 150q20 37 40.5 50t52.5 13h49v-79h-60l-67 -119q-15 -26 -25.5 -36t-27.5 -15v-4q23 -4 37 -14.5t27 -38.5l68 -133h58v-79h-60q-58 0 -94 66l-82 162h-37v-117h-67v117h-43v-228h-93z" />
    <glyph glyph-name="uni04A0" unicode="&#x4a0;" horiz-adv-x="773" 
d="M198 0v612h-176v86h273v-302h129l134 230q23 39 46 55.5t57 16.5h49v-86h-62l-115 -197q-15 -27 -27.5 -38.5t-33.5 -18.5v-5q24 -5 42 -19.5t37 -46.5l119 -201h61v-86h-65q-57 0 -99 71l-143 241h-129v-312h-97z" />
    <glyph glyph-name="uni04A1" unicode="&#x4a1;" horiz-adv-x="630" 
d="M153 0v439h-133v79h226v-213h98l94 152q22 36 42 48.5t51 12.5h49v-79h-60l-74 -119q-15 -25 -26 -35t-30 -16v-4q41 -6 67 -53l75 -133h58v-79h-60q-58 0 -95 65l-91 163h-98v-228h-93z" />
    <glyph glyph-name="uni04A2" unicode="&#x4a2;" horiz-adv-x="752" 
d="M631 -150v150h-108v310h-336v-310h-97v698h97v-302h336v302h97v-612h101v-236h-90z" />
    <glyph glyph-name="uni04A3" unicode="&#x4a3;" horiz-adv-x="621" 
d="M512 -140v140h-94v227h-243v-227h-93v518h93v-212h243v212h93v-439h86v-219h-85z" />
    <glyph glyph-name="uni04A4" unicode="&#x4a4;" horiz-adv-x="915" 
d="M90 0v698h97v-302h316v302h386v-86h-289v-612h-97v310h-316v-310h-97z" />
    <glyph glyph-name="uni04A5" unicode="&#x4a5;" horiz-adv-x="758" 
d="M82 0v518h93v-212h228v212h332v-79h-239v-439h-93v227h-228v-227h-93z" />
    <glyph glyph-name="uni04AA" unicode="&#x4aa;" horiz-adv-x="627" 
d="M299 -150v141q-115 15 -179 107.5t-64 250.5q0 173 76 267t211 94q174 0 244 -155l-80 -46q-43 114 -164 114q-85 0 -134 -59.5t-49 -161.5v-106q0 -102 49 -161.5t134 -59.5q63 0 106.5 32.5t63.5 88.5l78 -47q-62 -137 -202 -158v-141h-90z" />
    <glyph glyph-name="uni04AB" unicode="&#x4ab;" horiz-adv-x="506" 
d="M236 -140v132q-92 13 -141.5 83.5t-49.5 183.5q0 126 61.5 198.5t171.5 72.5q146 0 196 -124l-77 -38q-27 82 -119 82q-65 0 -99.5 -40t-34.5 -106v-90q0 -67 34.5 -106.5t99.5 -39.5q91 0 132 87l69 -41q-47 -106 -158 -122v-132h-85z" />
    <glyph glyph-name="uni04AE" unicode="&#x4ae;" horiz-adv-x="603" 
d="M349 0h-97v275l-240 423h111l179 -325h3l178 325h108l-242 -420v-278z" />
    <glyph glyph-name="uni04AF" unicode="&#x4af;" horiz-adv-x="501" 
d="M204 -200v200l-188 518h93l88 -249l52 -165h5l53 165l88 249h90l-188 -518v-200h-93z" />
    <glyph glyph-name="uni04B0" unicode="&#x4b0;" horiz-adv-x="603" 
d="M252 0v202h-160v73h160l-240 423h110l180 -326h3l177 326h109l-242 -423h160v-73h-160v-202h-97z" />
    <glyph glyph-name="uni04B1" unicode="&#x4b1;" horiz-adv-x="501" 
d="M204 -200v131h-123v69h123l-188 518h93l88 -249l52 -165h5l53 165l88 249h90l-188 -518h123v-69h-123v-131h-93z" />
    <glyph glyph-name="uni04B2" unicode="&#x4b2;" horiz-adv-x="654" 
d="M558 -150v150h-72l-176 286h-3l-176 -286h-109l228 357l-221 341h116l167 -270h3l171 270h109l-222 -340l174 -272h101v-236h-90z" />
    <glyph glyph-name="uni04B3" unicode="&#x4b3;" horiz-adv-x="539" 
d="M446 -140v140h-57l-128 196h-3l-135 -196h-102l188 261l-181 257h108l125 -187h3l128 187h102l-181 -253l129 -186h89v-219h-85z" />
    <glyph glyph-name="uni04B6" unicode="&#x4b6;" horiz-adv-x="693" 
d="M572 -150v150h-108v270h-5q-57 -23 -150 -23q-129 0 -190.5 61.5t-61.5 187.5v202h97v-203q0 -84 39.5 -123.5t120.5 -39.5q98 0 150 22v344h97v-612h101v-236h-90z" />
    <glyph glyph-name="uni04B7" unicode="&#x4b7;" horiz-adv-x="574" 
d="M465 -140v140h-94v234h-5q-53 -63 -148 -63q-82 0 -125 41.5t-43 122.5v183h93v-176q0 -90 105 -90q55 0 89 16t34 45v205h93v-439h86v-219h-85z" />
    <glyph glyph-name="uni04B8" unicode="&#x4b8;" horiz-adv-x="655" 
d="M468 0v270h-5q-40 -17 -113 -22v-138h-74v138q-111 7 -165 68.5t-54 179.5v202h97v-203q0 -144 122 -161v161h74v-163q74 3 118 22v344h97v-698h-97z" />
    <glyph glyph-name="uni04B9" unicode="&#x4b9;" horiz-adv-x="550" 
d="M375 0v229h-5q-32 -39 -78 -51v-92h-66v85q-176 0 -176 164v183h93v-176q0 -81 83 -88v143h66v-143q37 3 60 19t23 39v206h93v-518h-93z" />
    <glyph glyph-name="uni04BA" unicode="&#x4ba;" horiz-adv-x="651" 
d="M90 0v698h97v-270h5q58 23 150 23q129 0 190.5 -61.5t61.5 -187.5v-202h-97v203q0 85 -39.5 124t-120.5 39q-98 0 -150 -22v-344h-97z" />
    <glyph glyph-name="uni04BB" unicode="&#x4bb;" horiz-adv-x="573" 
d="M82 0v740h93v-307h5q41 97 146 97q80 0 125.5 -52.5t45.5 -146.5v-331h-93v317q0 132 -109 132q-49 0 -84.5 -24.5t-35.5 -69.5v-355h-93z" />
    <glyph glyph-name="uni04C0" unicode="&#x4c0;" horiz-adv-x="407" 
d="M349 0h-291v82h97v534h-97v82h291v-82h-97v-534h97v-82z" />
    <glyph glyph-name="uni04C1" unicode="&#x4c1;" horiz-adv-x="983" 
d="M491 761q-103 0 -143 84l-21 41l79 33l34 -86q23 -6 51 -6q29 0 51 6l34 86l79 -33l-21 -41q-40 -84 -143 -84zM41 0v86h63l100 199q29 57 76 68v5q-42 12 -67 64l-90 190h-63v86h54q68 0 104 -74l108 -228h117v302h97v-302h117l109 228q36 74 103 74h54v-86h-63
l-91 -190q-25 -52 -66 -64v-5q48 -11 77 -68l99 -199h63v-86h-67q-33 0 -56 16.5t-44 58.5l-118 237h-117v-312h-97v312h-117l-119 -237q-21 -42 -43.5 -58.5t-55.5 -16.5h-67z" />
    <glyph glyph-name="uni04C2" unicode="&#x4c2;" horiz-adv-x="788" 
d="M394 593q-103 0 -143 84l-21 41l79 33l34 -86q23 -6 51 -6t51 6l34 86l79 -33l-21 -41q-40 -84 -143 -84zM40 0v79h59l57 133q20 46 62 53v4q-39 13 -60 57l-51 113h-59v79h50q63 0 95 -65l68 -148h87v213h93v-213h87l68 148q30 65 95 65h50v-79h-59l-52 -113
q-19 -45 -60 -57v-4q42 -6 62 -53l57 -133h59v-79h-59q-61 0 -93 71l-68 157h-87v-228h-93v228h-87l-69 -157q-17 -39 -39.5 -55t-53.5 -16h-59z" />
    <glyph glyph-name="uni04CF" unicode="&#x4cf;" horiz-adv-x="257" 
d="M82 0v740h93v-740h-93z" />
    <glyph glyph-name="uni04D0" unicode="&#x4d0;" horiz-adv-x="649" 
d="M324 761q-103 0 -143 84l-21 41l79 33l34 -86q22 -6 51 -6q28 0 51 6l34 86l79 -33l-21 -41q-40 -84 -143 -84zM627 0h-102l-66 197h-272l-67 -197h-98l242 698h122zM435 283l-110 326h-5l-110 -326h225z" />
    <glyph glyph-name="uni04D1" unicode="&#x4d1;" horiz-adv-x="541" 
d="M255 593q-103 0 -143 84l-21 41l79 33l34 -86q22 -6 51 -6t51 6l34 86l79 -33l-21 -41q-40 -84 -143 -84zM512 0h-53q-79 0 -91 86h-5q-16 -48 -55 -73t-95 -25q-80 0 -125.5 41.5t-45.5 113.5q0 154 221 154h98v47q0 108 -115 108q-82 0 -127 -74l-56 51q56 101 188 101
q97 0 150 -47t53 -131v-273h58v-79zM234 63q55 0 91 25t36 64v80h-99q-123 0 -123 -74v-20q0 -36 25.5 -55.5t69.5 -19.5z" />
    <glyph glyph-name="uni04D2" unicode="&#x4d2;" horiz-adv-x="649" 
d="M229 783q-55 0 -55 49v16q0 49 55 49t55 -49v-16q0 -49 -55 -49zM421 783q-55 0 -55 49v16q0 49 55 49t55 -49v-16q0 -49 -55 -49zM627 0h-102l-66 197h-272l-67 -197h-98l242 698h122zM435 283l-110 326h-5l-110 -326h225z" />
    <glyph glyph-name="uni04D3" unicode="&#x4d3;" horiz-adv-x="541" 
d="M159 615q-55 0 -55 49v14q0 49 55 49t55 -49v-14q0 -49 -55 -49zM351 615q-55 0 -55 49v14q0 49 55 49t55 -49v-14q0 -49 -55 -49zM512 0h-53q-79 0 -91 86h-5q-16 -48 -55 -73t-95 -25q-80 0 -125.5 41.5t-45.5 113.5q0 154 221 154h98v47q0 108 -115 108
q-82 0 -127 -74l-56 51q56 101 188 101q97 0 150 -47t53 -131v-273h58v-79zM234 63q55 0 91 25t36 64v80h-99q-123 0 -123 -74v-20q0 -36 25.5 -55.5t69.5 -19.5z" />
    <glyph glyph-name="uni04D4" unicode="&#x4d4;" horiz-adv-x="919" 
d="M421 0v198h-222l-97 -198h-99l354 698h499v-86h-338v-216h313v-86h-313v-224h338v-86h-435zM421 612h-15l-167 -330h182v330z" />
    <glyph glyph-name="uni04D5" unicode="&#x4d5;" horiz-adv-x="864" 
d="M361 236h-99q-123 -4 -123 -77v-20q0 -37 25 -56.5t71 -19.5q54 0 90 25t36 64v84zM455 301h265v10q0 65 -34.5 104.5t-92.5 39.5q-61 0 -99.5 -41.5t-38.5 -105.5v-7zM601 67q94 0 140 83l60 -50q-27 -52 -80 -82t-120 -30q-74 0 -127.5 36t-65.5 78h-6
q-11 -42 -61.5 -78t-128.5 -36t-124 42t-46 112q0 77 57 118t164 41h98v43q0 52 -28.5 80t-83.5 28q-86 0 -130 -74l-56 51q24 45 72 73t117 28q122 0 160 -107h6q13 39 63 73t119 34q102 0 160.5 -71.5t58.5 -183.5v-39h-365v-21q0 -65 39.5 -106.5t107.5 -41.5z" />
    <glyph glyph-name="uni04D6" unicode="&#x4d6;" horiz-adv-x="588" 
d="M305 761q-103 0 -143 84l-21 41l79 33l34 -86q23 -6 51 -6q29 0 51 6l34 86l79 -33l-21 -41q-40 -84 -143 -84zM525 0h-435v698h435v-86h-338v-216h313v-86h-313v-224h338v-86z" />
    <glyph glyph-name="uni04D7" unicode="&#x4d7;" horiz-adv-x="552" 
d="M281 593q-103 0 -143 84l-21 41l79 33l34 -86q23 -6 51 -6q29 0 51 6l34 86l79 -33l-21 -41q-40 -84 -143 -84zM280 -12q-108 0 -171.5 74t-63.5 197t63.5 197t171.5 74q106 0 166.5 -71.5t60.5 -183.5v-39h-365v-21q0 -66 39 -107t107 -41q96 0 140 84l60 -51
q-28 -51 -82.5 -81.5t-125.5 -30.5zM280 455q-61 0 -99.5 -41.5t-38.5 -105.5v-7h266v10q0 65 -35 104.5t-93 39.5z" />
    <glyph glyph-name="uni04D8" unicode="&#x4d8;" horiz-adv-x="712" 
d="M56 349v27h497v25q0 100 -56 161t-141 61q-133 0 -185 -132l-83 37q31 81 100 131.5t168 50.5q140 0 220 -95.5t80 -265.5t-80 -265.5t-220 -95.5t-220 95.5t-80 265.5zM356 75q85 0 141 61t56 161h-394q3 -100 58 -161t139 -61z" />
    <glyph glyph-name="uni04D9" unicode="&#x4d9;" horiz-adv-x="552" 
d="M45 282h365v21q0 65 -38.5 106.5t-99.5 41.5q-102 0 -146 -84l-60 51q27 51 81 81.5t125 30.5q108 0 171.5 -74t63.5 -197t-63.5 -197t-171.5 -74q-106 0 -166.5 71.5t-60.5 183.5v39zM144 217v-10q0 -65 35 -104.5t93 -39.5q61 0 99.5 41.5t38.5 105.5v7h-266z" />
    <glyph glyph-name="uni04DC" unicode="&#x4dc;" horiz-adv-x="983" 
d="M396 783q-55 0 -55 49v16q0 49 55 49t55 -49v-16q0 -49 -55 -49zM588 783q-55 0 -55 49v16q0 49 55 49t55 -49v-16q0 -49 -55 -49zM41 0v86h63l100 199q29 57 76 68v5q-42 12 -67 64l-90 190h-63v86h54q68 0 104 -74l108 -228h117v302h97v-302h117l109 228q36 74 103 74
h54v-86h-63l-91 -190q-25 -52 -66 -64v-5q48 -11 77 -68l99 -199h63v-86h-67q-33 0 -56 16.5t-44 58.5l-118 237h-117v-312h-97v312h-117l-119 -237q-21 -42 -43.5 -58.5t-55.5 -16.5h-67z" />
    <glyph glyph-name="uni04DD" unicode="&#x4dd;" horiz-adv-x="788" 
d="M298 615q-55 0 -55 49v14q0 49 55 49t55 -49v-14q0 -49 -55 -49zM490 615q-55 0 -55 49v14q0 49 55 49t55 -49v-14q0 -49 -55 -49zM40 0v79h59l57 133q20 46 62 53v4q-39 13 -60 57l-51 113h-59v79h50q63 0 95 -65l68 -148h87v213h93v-213h87l68 148q30 65 95 65h50v-79
h-59l-52 -113q-19 -45 -60 -57v-4q42 -6 62 -53l57 -133h59v-79h-59q-61 0 -93 71l-68 157h-87v-228h-93v228h-87l-69 -157q-17 -39 -39.5 -55t-53.5 -16h-59z" />
    <glyph glyph-name="uni04DE" unicode="&#x4de;" horiz-adv-x="596" 
d="M192 783q-55 0 -55 49v16q0 49 55 49t55 -49v-16q0 -49 -55 -49zM384 783q-55 0 -55 49v16q0 49 55 49t55 -49v-16q0 -49 -55 -49zM282 -12q-157 0 -247 120l69 59q66 -93 178 -93q73 0 112 29.5t39 87.5v12q0 111 -140 111h-108v85h102q68 0 99.5 27.5t31.5 84.5v12
q0 101 -130 101q-107 0 -162 -77l-70 52q81 111 232 111q113 0 173.5 -49.5t60.5 -135.5q0 -69 -36 -109.5t-99 -52.5v-5q66 -7 108 -47.5t42 -114.5q0 -95 -68.5 -151.5t-186.5 -56.5z" />
    <glyph glyph-name="uni04DF" unicode="&#x4df;" horiz-adv-x="507" 
d="M140 615q-55 0 -55 49v14q0 49 55 49t55 -49v-14q0 -49 -55 -49zM332 615q-55 0 -55 49v14q0 49 55 49t55 -49v-14q0 -49 -55 -49zM235 -12q-141 0 -208 102l65 56q45 -78 143 -78q58 0 88 20.5t30 56.5v12q0 73 -93 73h-112v73h101q92 0 92 68v11q0 68 -108 68
q-92 0 -135 -73l-60 51q60 102 200 102q99 0 150 -37t51 -103q0 -94 -101 -115v-4q54 -7 83.5 -39t29.5 -81q0 -75 -58.5 -119t-157.5 -44z" />
    <glyph glyph-name="uni04E2" unicode="&#x4e2;" horiz-adv-x="710" 
d="M212 803v74h284v-74h-284zM90 0v698h94v-419l-10 -144h3l70 127l287 436h86v-698h-94v419l9 144h-3l-70 -127l-285 -436h-87z" />
    <glyph glyph-name="uni04E3" unicode="&#x4e3;" horiz-adv-x="593" 
d="M155 635v74h284v-74h-284zM82 0v518h91v-272l-9 -124h4l63 111l195 285h85v-518h-91v272l9 123h-4l-63 -110l-195 -285h-85z" />
    <glyph glyph-name="uni04E4" unicode="&#x4e4;" horiz-adv-x="710" 
d="M258 783q-55 0 -55 49v16q0 49 55 49t55 -49v-16q0 -49 -55 -49zM450 783q-55 0 -55 49v16q0 49 55 49t55 -49v-16q0 -49 -55 -49zM90 0v698h94v-419l-10 -144h3l70 127l287 436h86v-698h-94v419l9 144h-3l-70 -127l-285 -436h-87z" />
    <glyph glyph-name="uni04E5" unicode="&#x4e5;" horiz-adv-x="593" 
d="M201 615q-55 0 -55 49v14q0 49 55 49t55 -49v-14q0 -49 -55 -49zM393 615q-55 0 -55 49v14q0 49 55 49t55 -49v-14q0 -49 -55 -49zM82 0v518h91v-272l-9 -124h4l63 111l195 285h85v-518h-91v272l9 123h-4l-63 -110l-195 -285h-85z" />
    <glyph glyph-name="uni04E6" unicode="&#x4e6;" horiz-adv-x="708" 
d="M258 783q-55 0 -55 49v16q0 49 55 49t55 -49v-16q0 -49 -55 -49zM450 783q-55 0 -55 49v16q0 49 55 49t55 -49v-16q0 -49 -55 -49zM354 -12q-138 0 -218 94t-80 267t80 267t218 94t218 -94t80 -267t-80 -267t-218 -94zM354 75q88 0 141 59t53 158v114q0 99 -53 158
t-141 59t-141 -59t-53 -158v-114q0 -99 53 -158t141 -59z" />
    <glyph glyph-name="uni04E7" unicode="&#x4e7;" horiz-adv-x="562" 
d="M185 615q-55 0 -55 49v14q0 49 55 49t55 -49v-14q0 -49 -55 -49zM377 615q-55 0 -55 49v14q0 49 55 49t55 -49v-14q0 -49 -55 -49zM281 -12q-106 0 -171 74t-65 197t65 197t171 74t171 -74t65 -197t-65 -197t-171 -74zM281 68q63 0 100 39t37 113v78q0 74 -37 113
t-100 39t-100 -39t-37 -113v-78q0 -74 37 -113t100 -39z" />
    <glyph glyph-name="uni04E8" unicode="&#x4e8;" horiz-adv-x="710" 
d="M355 -12q-138 0 -218.5 94t-80.5 267t80.5 267t218.5 94t218.5 -94t80.5 -267t-80.5 -267t-218.5 -94zM355 73q88 0 142.5 59.5t54.5 159.5v18h-394v-18q0 -100 54.5 -159.5t142.5 -59.5zM158 406v-10h394v10q0 100 -54.5 159.5t-142.5 59.5t-142.5 -59.5t-54.5 -159.5z
" />
    <glyph glyph-name="uni04E9" unicode="&#x4e9;" horiz-adv-x="561" 
d="M280 -12q-106 0 -170.5 74t-64.5 197t64.5 197t170.5 74t171 -74t65 -197t-65 -197t-171 -74zM280 66q64 0 101.5 39t37.5 113v10h-277v-10q0 -74 37.5 -113t100.5 -39zM142 300v-3h277v3q0 74 -37.5 113t-101.5 39q-63 0 -100.5 -39t-37.5 -113z" />
    <glyph glyph-name="uni04EE" unicode="&#x4ee;" horiz-adv-x="602" 
d="M167 803v74h284v-74h-284zM139 0v86h105l30 74l-256 538h105l141 -299l53 -124h4l46 126l118 297h98l-244 -607q-22 -54 -50 -72.5t-86 -18.5h-64z" />
    <glyph glyph-name="uni04EF" unicode="&#x4ef;" horiz-adv-x="506" 
d="M112 635v74h284v-74h-284zM285 187l116 331h90l-225 -631q-19 -50 -44.5 -68.5t-83.5 -18.5h-51v79h85l35 100l-192 539h93l115 -331l27 -97h5z" />
    <glyph glyph-name="uni04F0" unicode="&#x4f0;" horiz-adv-x="602" 
d="M213 783q-55 0 -55 49v16q0 49 55 49t55 -49v-16q0 -49 -55 -49zM405 783q-55 0 -55 49v16q0 49 55 49t55 -49v-16q0 -49 -55 -49zM139 0v86h105l30 74l-256 538h105l141 -299l53 -124h4l46 126l118 297h98l-244 -607q-22 -54 -50 -72.5t-86 -18.5h-64z" />
    <glyph glyph-name="uni04F1" unicode="&#x4f1;" horiz-adv-x="506" 
d="M158 615q-55 0 -55 49v14q0 49 55 49t55 -49v-14q0 -49 -55 -49zM350 615q-55 0 -55 49v14q0 49 55 49t55 -49v-14q0 -49 -55 -49zM285 187l116 331h90l-225 -631q-19 -50 -44.5 -68.5t-83.5 -18.5h-51v79h85l35 100l-192 539h93l115 -331l27 -97h5z" />
    <glyph glyph-name="uni04F2" unicode="&#x4f2;" horiz-adv-x="602" 
d="M344 915l-111 -162l-55 25l88 175zM513 915l-112 -162l-54 25l88 175zM139 0v86h105l30 74l-256 538h105l141 -299l53 -124h4l46 126l118 297h98l-244 -607q-22 -54 -50 -72.5t-86 -18.5h-64z" />
    <glyph glyph-name="uni04F3" unicode="&#x4f3;" horiz-adv-x="506" 
d="M289 747l-111 -162l-55 25l88 175zM458 747l-112 -162l-54 25l88 175zM285 187l116 331h90l-225 -631q-19 -50 -44.5 -68.5t-83.5 -18.5h-51v79h85l35 100l-192 539h93l115 -331l27 -97h5z" />
    <glyph glyph-name="uni04F4" unicode="&#x4f4;" horiz-adv-x="651" 
d="M213 783q-55 0 -55 49v16q0 49 55 49t55 -49v-16q0 -49 -55 -49zM405 783q-55 0 -55 49v16q0 49 55 49t55 -49v-16q0 -49 -55 -49zM464 0v270h-5q-57 -23 -150 -23q-129 0 -190.5 61.5t-61.5 187.5v202h97v-203q0 -84 39.5 -123.5t120.5 -39.5q98 0 150 22v344h97v-698
h-97z" />
    <glyph glyph-name="uni04F5" unicode="&#x4f5;" horiz-adv-x="546" 
d="M161 615q-55 0 -55 49v14q0 49 55 49t55 -49v-14q0 -49 -55 -49zM353 615q-55 0 -55 49v14q0 49 55 49t55 -49v-14q0 -49 -55 -49zM371 0v234h-5q-53 -63 -148 -63q-82 0 -125 41.5t-43 122.5v183h93v-176q0 -90 105 -90q55 0 89 16t34 45v205h93v-518h-93z" />
    <glyph glyph-name="uni04F8" unicode="&#x4f8;" horiz-adv-x="886" 
d="M347 783q-55 0 -55 49v16q0 49 55 49t55 -49v-16q0 -49 -55 -49zM539 783q-55 0 -55 49v16q0 49 55 49t55 -49v-16q0 -49 -55 -49zM90 0v698h97v-275h202q94 0 146 -56t52 -155q0 -100 -52 -156t-146 -56h-299zM187 86h199q98 0 98 100v51q0 100 -98 100h-199v-251z
M699 0v698h97v-698h-97z" />
    <glyph glyph-name="uni04F9" unicode="&#x4f9;" horiz-adv-x="740" 
d="M274 615q-55 0 -55 49v14q0 49 55 49t55 -49v-14q0 -49 -55 -49zM466 615q-55 0 -55 49v14q0 49 55 49t55 -49v-14q0 -49 -55 -49zM82 0v518h93v-181h135q79 0 125.5 -45.5t46.5 -123.5q0 -79 -46 -123.5t-125 -44.5h-229zM175 77h120q89 0 89 71v41q0 71 -89 71h-120
v-183zM565 0v518h93v-518h-93z" />
    <glyph glyph-name="uni0E3F" unicode="&#xe3f;" horiz-adv-x="648" 
d="M358 21v-105h-77v105h-191v656h191v103h77v-103h24q84 0 133.5 -46t49.5 -123q0 -120 -119 -140v-6q144 -21 144 -152q0 -80 -51.5 -134.5t-127.5 -54.5h-53zM185 396h99v198h-99v-198zM355 594v-198h22q89 0 89 84v30q0 84 -89 84h-22zM185 104h99v214h-99v-214z
M355 318v-214h29q50 0 78.5 23t28.5 67v34q0 44 -28.5 67t-78.5 23h-29z" />
    <glyph glyph-name="Wgrave" unicode="&#x1e80;" horiz-adv-x="907" 
d="M445 752l-111 162l82 40l88 -174zM298 0h-109l-167 698h100l74 -336l54 -248h2l61 248l86 336h109l84 -336l61 -247h3l55 247l77 336h97l-176 -698h-108l-91 354l-58 236h-2l-60 -236z" />
    <glyph glyph-name="wgrave" unicode="&#x1e81;" horiz-adv-x="782" 
d="M382 584l-111 162l82 40l88 -175zM168 0l-139 518h90l54 -221l52 -213h2l59 213l64 221h83l66 -221l60 -213h3l49 213l55 221h87l-138 -518h-110l-70 243l-44 152h-2l-43 -152l-70 -243h-108z" />
    <glyph glyph-name="Wacute" unicode="&#x1e82;" horiz-adv-x="907" 
d="M574 914l-111 -162l-59 28l88 174zM298 0h-109l-167 698h100l74 -336l54 -248h2l61 248l86 336h109l84 -336l61 -247h3l55 247l77 336h97l-176 -698h-108l-91 354l-58 236h-2l-60 -236z" />
    <glyph glyph-name="wacute" unicode="&#x1e83;" horiz-adv-x="782" 
d="M511 746l-111 -162l-59 27l88 175zM168 0l-139 518h90l54 -221l52 -213h2l59 213l64 221h83l66 -221l60 -213h3l49 213l55 221h87l-138 -518h-110l-70 243l-44 152h-2l-43 -152l-70 -243h-108z" />
    <glyph glyph-name="Wdieresis" unicode="&#x1e84;" horiz-adv-x="907" 
d="M358 783q-55 0 -55 49v16q0 49 55 49t55 -49v-16q0 -49 -55 -49zM550 783q-55 0 -55 49v16q0 49 55 49t55 -49v-16q0 -49 -55 -49zM298 0h-109l-167 698h100l74 -336l54 -248h2l61 248l86 336h109l84 -336l61 -247h3l55 247l77 336h97l-176 -698h-108l-91 354l-58 236h-2
l-60 -236z" />
    <glyph glyph-name="wdieresis" unicode="&#x1e85;" horiz-adv-x="782" 
d="M295 615q-55 0 -55 49v14q0 49 55 49t55 -49v-14q0 -49 -55 -49zM487 615q-55 0 -55 49v14q0 49 55 49t55 -49v-14q0 -49 -55 -49zM168 0l-139 518h90l54 -221l52 -213h2l59 213l64 221h83l66 -221l60 -213h3l49 213l55 221h87l-138 -518h-110l-70 243l-44 152h-2
l-43 -152l-70 -243h-108z" />
    <glyph glyph-name="uni1E9E" unicode="&#x1e9e;" horiz-adv-x="706" 
d="M658 200q0 -98 -60 -155t-162 -57q-132 0 -198 90l65 58q52 -66 133 -66q57 0 88.5 30.5t31.5 82.5v31q0 52 -31.5 82t-91.5 30h-95v85l175 203h-326v-614h-97v698h520v-93l-170 -198v-4q99 -2 158.5 -55t59.5 -148z" />
    <glyph glyph-name="uni1EA0" unicode="&#x1ea0;" horiz-adv-x="649" 
d="M325 -176q-57 0 -57 50v13q0 50 57 50t57 -50v-13q0 -50 -57 -50zM627 0h-102l-66 197h-272l-67 -197h-98l242 698h122zM435 283l-110 326h-5l-110 -326h225z" />
    <glyph glyph-name="uni1EA1" unicode="&#x1ea1;" horiz-adv-x="541" 
d="M250 -176q-57 0 -57 50v13q0 50 57 50t57 -50v-13q0 -50 -57 -50zM512 0h-53q-79 0 -91 86h-5q-16 -48 -55 -73t-95 -25q-80 0 -125.5 41.5t-45.5 113.5q0 154 221 154h98v47q0 108 -115 108q-82 0 -127 -74l-56 51q56 101 188 101q97 0 150 -47t53 -131v-273h58v-79z
M234 63q55 0 91 25t36 64v80h-99q-123 0 -123 -74v-20q0 -36 25.5 -55.5t69.5 -19.5z" />
    <glyph glyph-name="uni1EA2" unicode="&#x1ea2;" horiz-adv-x="649" 
d="M234 871v69h116q75 0 75 -58q0 -45 -51 -107l-24 -31l-52 25l55 102h-119zM627 0h-102l-66 197h-272l-67 -197h-98l242 698h122zM435 283l-110 326h-5l-110 -326h225z" />
    <glyph glyph-name="uni1EA3" unicode="&#x1ea3;" horiz-adv-x="541" 
d="M165 702v70h116q39 0 57 -16t18 -42q0 -46 -51 -108l-24 -31l-52 26l55 101h-119zM512 0h-53q-79 0 -91 86h-5q-16 -48 -55 -73t-95 -25q-80 0 -125.5 41.5t-45.5 113.5q0 154 221 154h98v47q0 108 -115 108q-82 0 -127 -74l-56 51q56 101 188 101q97 0 150 -47t53 -131
v-273h58v-79zM234 63q55 0 91 25t36 64v80h-99q-123 0 -123 -74v-20q0 -36 25.5 -55.5t69.5 -19.5z" />
    <glyph glyph-name="uni1EA4" unicode="&#x1ea4;" horiz-adv-x="649" 
d="M594 1035l-111 -162l-55 26l88 175zM276 920h98l117 -136l-46 -37l-120 111l-120 -111l-46 37zM627 0h-102l-66 197h-272l-67 -197h-98l242 698h122zM435 283l-110 326h-5l-110 -326h225z" />
    <glyph glyph-name="uni1EA5" unicode="&#x1ea5;" horiz-adv-x="541" 
d="M524 867l-111 -162l-55 26l88 174zM206 752h98l117 -137l-46 -36l-120 110l-120 -110l-46 36zM512 0h-53q-79 0 -91 86h-5q-16 -48 -55 -73t-95 -25q-80 0 -125.5 41.5t-45.5 113.5q0 154 221 154h98v47q0 108 -115 108q-82 0 -127 -74l-56 51q56 101 188 101
q97 0 150 -47t53 -131v-273h58v-79zM234 63q55 0 91 25t36 64v80h-99q-123 0 -123 -74v-20q0 -36 25.5 -55.5t69.5 -19.5z" />
    <glyph glyph-name="uni1EA6" unicode="&#x1ea6;" horiz-adv-x="649" 
d="M167 873l-111 162l78 39l88 -175zM276 920h98l117 -136l-46 -37l-120 111l-120 -111l-46 37zM627 0h-102l-66 197h-272l-67 -197h-98l242 698h122zM435 283l-110 326h-5l-110 -326h225z" />
    <glyph glyph-name="uni1EA7" unicode="&#x1ea7;" horiz-adv-x="541" 
d="M97 705l-111 162l78 38l88 -174zM206 752h98l117 -137l-46 -36l-120 110l-120 -110l-46 36zM512 0h-53q-79 0 -91 86h-5q-16 -48 -55 -73t-95 -25q-80 0 -125.5 41.5t-45.5 113.5q0 154 221 154h98v47q0 108 -115 108q-82 0 -127 -74l-56 51q56 101 188 101q97 0 150 -47
t53 -131v-273h58v-79zM234 63q55 0 91 25t36 64v80h-99q-123 0 -123 -74v-20q0 -36 25.5 -55.5t69.5 -19.5z" />
    <glyph glyph-name="uni1EA8" unicode="&#x1ea8;" horiz-adv-x="649" 
d="M373 996v66h113q76 0 76 -58q0 -45 -52 -108l-24 -30l-49 25l57 105h-121zM276 920h98l117 -136l-46 -37l-120 111l-120 -111l-46 37zM627 0h-102l-66 197h-272l-67 -197h-98l242 698h122zM435 283l-110 326h-5l-110 -326h225z" />
    <glyph glyph-name="uni1EA9" unicode="&#x1ea9;" horiz-adv-x="541" 
d="M303 828v66h113q76 0 76 -58q0 -45 -52 -108l-24 -31l-49 25l57 106h-121zM206 752h98l117 -137l-46 -36l-120 110l-120 -110l-46 36zM512 0h-53q-79 0 -91 86h-5q-16 -48 -55 -73t-95 -25q-80 0 -125.5 41.5t-45.5 113.5q0 154 221 154h98v47q0 108 -115 108
q-82 0 -127 -74l-56 51q56 101 188 101q97 0 150 -47t53 -131v-273h58v-79zM234 63q55 0 91 25t36 64v80h-99q-123 0 -123 -74v-20q0 -36 25.5 -55.5t69.5 -19.5z" />
    <glyph glyph-name="uni1EAA" unicode="&#x1eaa;" horiz-adv-x="649" 
d="M251 1063q30 0 80 -25q45 -23 71 -23q27 0 59 26l36 -41q-36 -55 -98 -55q-30 0 -80 25q-45 23 -71 23q-27 0 -59 -26l-36 41q36 55 98 55zM275 918h100l116 -134l-46 -37l-120 109l-120 -109l-46 37zM627 0h-102l-66 197h-272l-67 -197h-98l242 698h122zM435 283
l-110 326h-5l-110 -326h225z" />
    <glyph glyph-name="uni1EAB" unicode="&#x1eab;" horiz-adv-x="541" 
d="M181 895q30 0 80 -25q45 -23 71 -23q27 0 59 26l36 -41q-36 -55 -98 -55q-30 0 -80 25q-45 23 -71 23q-27 0 -59 -26l-36 41q36 55 98 55zM205 749h100l116 -134l-46 -36l-120 109l-120 -109l-46 36zM512 0h-53q-79 0 -91 86h-5q-16 -48 -55 -73t-95 -25
q-80 0 -125.5 41.5t-45.5 113.5q0 154 221 154h98v47q0 108 -115 108q-82 0 -127 -74l-56 51q56 101 188 101q97 0 150 -47t53 -131v-273h58v-79zM234 63q55 0 91 25t36 64v80h-99q-123 0 -123 -74v-20q0 -36 25.5 -55.5t69.5 -19.5z" />
    <glyph glyph-name="uni1EAC" unicode="&#x1eac;" horiz-adv-x="649" 
d="M325 -176q-57 0 -57 50v13q0 50 57 50t57 -50v-13q0 -50 -57 -50zM273 939h104l115 -146l-49 -36l-118 116l-118 -116l-49 36zM627 0h-102l-66 197h-272l-67 -197h-98l242 698h122zM435 283l-110 326h-5l-110 -326h225z" />
    <glyph glyph-name="uni1EAD" unicode="&#x1ead;" horiz-adv-x="541" 
d="M250 -176q-57 0 -57 50v13q0 50 57 50t57 -50v-13q0 -50 -57 -50zM203 771h104l115 -146l-49 -36l-118 116l-118 -116l-49 36zM512 0h-53q-79 0 -91 86h-5q-16 -48 -55 -73t-95 -25q-80 0 -125.5 41.5t-45.5 113.5q0 154 221 154h98v47q0 108 -115 108q-82 0 -127 -74
l-56 51q56 101 188 101q97 0 150 -47t53 -131v-273h58v-79zM234 63q55 0 91 25t36 64v80h-99q-123 0 -123 -74v-20q0 -36 25.5 -55.5t69.5 -19.5z" />
    <glyph glyph-name="uni1EAE" unicode="&#x1eae;" horiz-adv-x="649" 
d="M325 752q-39 0 -68 11t-47 32.5t-27.5 40.5t-18.5 45l51 27l20 -35q15 -28 35.5 -41.5t54.5 -13.5t54.5 13.5t35.5 41.5l20 35l51 -27q-9 -26 -18.5 -45t-27.5 -40.5t-47 -32.5t-68 -11zM443 1035l-111 -162l-55 26l87 175zM627 0h-102l-66 197h-272l-67 -197h-98
l242 698h122zM435 283l-110 326h-5l-110 -326h225z" />
    <glyph glyph-name="uni1EAF" unicode="&#x1eaf;" horiz-adv-x="541" 
d="M255 583q-73 0 -108 36.5t-54 93.5l50 27l22 -34q18 -28 37.5 -42t52.5 -14t52.5 14t37.5 42l22 34l50 -27q-9 -26 -19 -45.5t-28 -40.5t-47 -32.5t-68 -11.5zM373 867l-111 -162l-55 26l87 174zM512 0h-53q-79 0 -91 86h-5q-16 -48 -55 -73t-95 -25q-80 0 -125.5 41.5
t-45.5 113.5q0 154 221 154h98v47q0 108 -115 108q-82 0 -127 -74l-56 51q56 101 188 101q97 0 150 -47t53 -131v-273h58v-79zM234 63q55 0 91 25t36 64v80h-99q-123 0 -123 -74v-20q0 -36 25.5 -55.5t69.5 -19.5z" />
    <glyph glyph-name="uni1EB0" unicode="&#x1eb0;" horiz-adv-x="649" 
d="M325 752q-39 0 -68 11t-47 32.5t-27.5 40.5t-18.5 45l51 27l20 -35q15 -28 35.5 -41.5t54.5 -13.5t54.5 13.5t35.5 41.5l20 35l51 -27q-9 -26 -18.5 -45t-27.5 -40.5t-47 -32.5t-68 -11zM318 873l-110 162l78 39l87 -175zM627 0h-102l-66 197h-272l-67 -197h-98l242 698
h122zM435 283l-110 326h-5l-110 -326h225z" />
    <glyph glyph-name="uni1EB1" unicode="&#x1eb1;" horiz-adv-x="541" 
d="M255 583q-73 0 -108 36.5t-54 93.5l50 27l22 -34q18 -28 37.5 -42t52.5 -14t52.5 14t37.5 42l22 34l50 -27q-9 -26 -19 -45.5t-28 -40.5t-47 -32.5t-68 -11.5zM248 705l-110 162l78 38l87 -174zM512 0h-53q-79 0 -91 86h-5q-16 -48 -55 -73t-95 -25q-80 0 -125.5 41.5
t-45.5 113.5q0 154 221 154h98v47q0 108 -115 108q-82 0 -127 -74l-56 51q56 101 188 101q97 0 150 -47t53 -131v-273h58v-79zM234 63q55 0 91 25t36 64v80h-99q-123 0 -123 -74v-20q0 -36 25.5 -55.5t69.5 -19.5z" />
    <glyph glyph-name="uni1EB2" unicode="&#x1eb2;" horiz-adv-x="649" 
d="M228 996v66h102q76 0 76 -58q0 -41 -52 -108l-25 -30l-48 24l57 106h-110zM325 752q-39 0 -68 11t-47 32.5t-27.5 40.5t-18.5 45l51 27l20 -35q15 -28 35.5 -41.5t54.5 -13.5t54.5 13.5t35.5 41.5l20 35l51 -27q-9 -26 -18.5 -45t-27.5 -40.5t-47 -32.5t-68 -11zM627 0
h-102l-66 197h-272l-67 -197h-98l242 698h122zM435 283l-110 326h-5l-110 -326h225z" />
    <glyph glyph-name="uni1EB3" unicode="&#x1eb3;" horiz-adv-x="541" 
d="M255 583q-73 0 -108 36.5t-54 93.5l50 27l22 -34q18 -28 37.5 -42t52.5 -14t52.5 14t37.5 42l22 34l50 -27q-9 -26 -19 -45.5t-28 -40.5t-47 -32.5t-68 -11.5zM158 828v66h102q76 0 76 -58q0 -43 -52 -108l-25 -31l-48 25l57 106h-110zM512 0h-53q-79 0 -91 86h-5
q-16 -48 -55 -73t-95 -25q-80 0 -125.5 41.5t-45.5 113.5q0 154 221 154h98v47q0 108 -115 108q-82 0 -127 -74l-56 51q56 101 188 101q97 0 150 -47t53 -131v-273h58v-79zM234 63q55 0 91 25t36 64v80h-99q-123 0 -123 -74v-20q0 -36 25.5 -55.5t69.5 -19.5z" />
    <glyph glyph-name="uni1EB4" unicode="&#x1eb4;" horiz-adv-x="649" 
d="M399 943q-30 0 -80 25q-45 23 -71 23q-27 0 -59 -26l-36 41q36 55 98 55q30 0 80 -25q45 -23 71 -23q27 0 59 26l36 -41q-36 -55 -98 -55zM325 752q-39 0 -68 11t-47 32.5t-27.5 40.5t-18.5 45l51 27l20 -35q15 -28 35.5 -41.5t54.5 -13.5t54.5 13.5t35.5 41.5l20 35
l51 -27q-9 -26 -18.5 -45t-27.5 -40.5t-47 -32.5t-68 -11zM627 0h-102l-66 197h-272l-67 -197h-98l242 698h122zM435 283l-110 326h-5l-110 -326h225z" />
    <glyph glyph-name="uni1EB5" unicode="&#x1eb5;" horiz-adv-x="541" 
d="M255 583q-73 0 -108 36.5t-54 93.5l50 27l22 -34q18 -28 37.5 -42t52.5 -14t52.5 14t37.5 42l22 34l50 -27q-9 -26 -19 -45.5t-28 -40.5t-47 -32.5t-68 -11.5zM329 775q-30 0 -80 25q-45 23 -71 23q-27 0 -59 -26l-36 41q36 55 98 55q30 0 80 -25q45 -23 71 -23
q27 0 59 26l36 -41q-36 -55 -98 -55zM512 0h-53q-79 0 -91 86h-5q-16 -48 -55 -73t-95 -25q-80 0 -125.5 41.5t-45.5 113.5q0 154 221 154h98v47q0 108 -115 108q-82 0 -127 -74l-56 51q56 101 188 101q97 0 150 -47t53 -131v-273h58v-79zM234 63q55 0 91 25t36 64v80h-99
q-123 0 -123 -74v-20q0 -36 25.5 -55.5t69.5 -19.5z" />
    <glyph glyph-name="uni1EB6" unicode="&#x1eb6;" horiz-adv-x="649" 
d="M325 -176q-57 0 -57 50v13q0 50 57 50t57 -50v-13q0 -50 -57 -50zM325 761q-39 0 -67.5 12t-46.5 34.5t-27 41t-18 46.5l52 25l20 -33q18 -28 36 -41.5t51 -13.5t51 13.5t36 41.5l20 33l52 -25q-9 -28 -18 -46.5t-27 -41t-46.5 -34.5t-67.5 -12zM627 0h-102l-66 197h-272
l-67 -197h-98l242 698h122zM435 283l-110 326h-5l-110 -326h225z" />
    <glyph glyph-name="uni1EB7" unicode="&#x1eb7;" horiz-adv-x="541" 
d="M250 -176q-57 0 -57 50v13q0 50 57 50t57 -50v-13q0 -50 -57 -50zM255 593q-39 0 -67.5 11.5t-46.5 34t-27 41.5t-18 46l52 26l20 -33q18 -29 36 -42.5t51 -13.5t51 13.5t36 42.5l20 33l52 -26q-9 -27 -18 -46t-27 -41.5t-46.5 -34t-67.5 -11.5zM512 0h-53q-79 0 -91 86
h-5q-16 -48 -55 -73t-95 -25q-80 0 -125.5 41.5t-45.5 113.5q0 154 221 154h98v47q0 108 -115 108q-82 0 -127 -74l-56 51q56 101 188 101q97 0 150 -47t53 -131v-273h58v-79zM234 63q55 0 91 25t36 64v80h-99q-123 0 -123 -74v-20q0 -36 25.5 -55.5t69.5 -19.5z" />
    <glyph glyph-name="uni1EB8" unicode="&#x1eb8;" horiz-adv-x="588" 
d="M306 -176q-57 0 -57 50v13q0 50 57 50t57 -50v-13q0 -50 -57 -50zM525 0h-435v698h435v-86h-338v-216h313v-86h-313v-224h338v-86z" />
    <glyph glyph-name="uni1EB9" unicode="&#x1eb9;" horiz-adv-x="552" 
d="M283 -176q-57 0 -57 50v13q0 50 57 50t57 -50v-13q0 -50 -57 -50zM280 -12q-108 0 -171.5 74t-63.5 197t63.5 197t171.5 74q106 0 166.5 -71.5t60.5 -183.5v-39h-365v-21q0 -66 39 -107t107 -41q96 0 140 84l60 -51q-28 -51 -82.5 -81.5t-125.5 -30.5zM280 455
q-61 0 -99.5 -41.5t-38.5 -105.5v-7h266v10q0 65 -35 104.5t-93 39.5z" />
    <glyph glyph-name="uni1EBA" unicode="&#x1eba;" horiz-adv-x="588" 
d="M215 871v69h116q75 0 75 -58q0 -45 -51 -107l-24 -31l-52 25l55 102h-119zM525 0h-435v698h435v-86h-338v-216h313v-86h-313v-224h338v-86z" />
    <glyph glyph-name="uni1EBB" unicode="&#x1ebb;" horiz-adv-x="552" 
d="M191 702v70h116q39 0 57 -16t18 -42q0 -46 -51 -108l-24 -31l-52 26l55 101h-119zM280 -12q-108 0 -171.5 74t-63.5 197t63.5 197t171.5 74q106 0 166.5 -71.5t60.5 -183.5v-39h-365v-21q0 -66 39 -107t107 -41q96 0 140 84l60 -51q-28 -51 -82.5 -81.5t-125.5 -30.5z
M280 455q-61 0 -99.5 -41.5t-38.5 -105.5v-7h266v10q0 65 -35 104.5t-93 39.5z" />
    <glyph glyph-name="uni1EBC" unicode="&#x1ebc;" horiz-adv-x="588" 
d="M380 778q-30 0 -80 25q-45 23 -71 23q-27 0 -59 -26l-36 45q36 55 98 55q30 0 80 -25q45 -23 71 -23q27 0 59 26l36 -45q-36 -55 -98 -55zM525 0h-435v698h435v-86h-338v-216h313v-86h-313v-224h338v-86z" />
    <glyph glyph-name="uni1EBD" unicode="&#x1ebd;" horiz-adv-x="552" 
d="M355 610q-30 0 -80 25q-45 23 -71 23q-27 0 -59 -26l-36 45q36 55 98 55q30 0 80 -25q45 -23 71 -23q27 0 59 26l36 -45q-36 -55 -98 -55zM280 -12q-108 0 -171.5 74t-63.5 197t63.5 197t171.5 74q106 0 166.5 -71.5t60.5 -183.5v-39h-365v-21q0 -66 39 -107t107 -41
q96 0 140 84l60 -51q-28 -51 -82.5 -81.5t-125.5 -30.5zM280 455q-61 0 -99.5 -41.5t-38.5 -105.5v-7h266v10q0 65 -35 104.5t-93 39.5z" />
    <glyph glyph-name="uni1EBE" unicode="&#x1ebe;" horiz-adv-x="588" 
d="M575 1035l-111 -162l-55 26l88 175zM257 920h98l117 -136l-46 -37l-120 111l-120 -111l-46 37zM525 0h-435v698h435v-86h-338v-216h313v-86h-313v-224h338v-86z" />
    <glyph glyph-name="uni1EBF" unicode="&#x1ebf;" horiz-adv-x="552" 
d="M550 867l-111 -162l-55 26l88 174zM232 752h98l117 -137l-46 -36l-120 110l-120 -110l-46 36zM280 -12q-108 0 -171.5 74t-63.5 197t63.5 197t171.5 74q106 0 166.5 -71.5t60.5 -183.5v-39h-365v-21q0 -66 39 -107t107 -41q96 0 140 84l60 -51q-28 -51 -82.5 -81.5
t-125.5 -30.5zM280 455q-61 0 -99.5 -41.5t-38.5 -105.5v-7h266v10q0 65 -35 104.5t-93 39.5z" />
    <glyph glyph-name="uni1EC0" unicode="&#x1ec0;" horiz-adv-x="588" 
d="M148 873l-111 162l78 39l88 -175zM257 920h98l117 -136l-46 -37l-120 111l-120 -111l-46 37zM525 0h-435v698h435v-86h-338v-216h313v-86h-313v-224h338v-86z" />
    <glyph glyph-name="uni1EC1" unicode="&#x1ec1;" horiz-adv-x="552" 
d="M123 705l-111 162l78 38l88 -174zM232 752h98l117 -137l-46 -36l-120 110l-120 -110l-46 36zM280 -12q-108 0 -171.5 74t-63.5 197t63.5 197t171.5 74q106 0 166.5 -71.5t60.5 -183.5v-39h-365v-21q0 -66 39 -107t107 -41q96 0 140 84l60 -51q-28 -51 -82.5 -81.5
t-125.5 -30.5zM280 455q-61 0 -99.5 -41.5t-38.5 -105.5v-7h266v10q0 65 -35 104.5t-93 39.5z" />
    <glyph glyph-name="uni1EC2" unicode="&#x1ec2;" horiz-adv-x="588" 
d="M354 996v66h113q76 0 76 -58q0 -45 -52 -108l-24 -30l-49 25l57 105h-121zM257 920h98l117 -136l-46 -37l-120 111l-120 -111l-46 37zM525 0h-435v698h435v-86h-338v-216h313v-86h-313v-224h338v-86z" />
    <glyph glyph-name="uni1EC3" unicode="&#x1ec3;" horiz-adv-x="552" 
d="M329 828v66h113q76 0 76 -58q0 -45 -52 -108l-24 -31l-49 25l57 106h-121zM232 752h98l117 -137l-46 -36l-120 110l-120 -110l-46 36zM280 -12q-108 0 -171.5 74t-63.5 197t63.5 197t171.5 74q106 0 166.5 -71.5t60.5 -183.5v-39h-365v-21q0 -66 39 -107t107 -41
q96 0 140 84l60 -51q-28 -51 -82.5 -81.5t-125.5 -30.5zM280 455q-61 0 -99.5 -41.5t-38.5 -105.5v-7h266v10q0 65 -35 104.5t-93 39.5z" />
    <glyph glyph-name="uni1EC4" unicode="&#x1ec4;" horiz-adv-x="588" 
d="M232 1063q30 0 80 -25q45 -23 71 -23q27 0 59 26l36 -41q-36 -55 -98 -55q-30 0 -80 25q-45 23 -71 23q-27 0 -59 -26l-36 41q36 55 98 55zM256 918h100l116 -134l-46 -37l-120 109l-120 -109l-46 37zM525 0h-435v698h435v-86h-338v-216h313v-86h-313v-224h338v-86z" />
    <glyph glyph-name="uni1EC5" unicode="&#x1ec5;" horiz-adv-x="552" 
d="M207 895q30 0 80 -25q45 -23 71 -23q27 0 59 26l36 -41q-36 -55 -98 -55q-30 0 -80 25q-45 23 -71 23q-27 0 -59 -26l-36 41q36 55 98 55zM231 749h100l116 -134l-46 -36l-120 109l-120 -109l-46 36zM280 -12q-108 0 -171.5 74t-63.5 197t63.5 197t171.5 74
q106 0 166.5 -71.5t60.5 -183.5v-39h-365v-21q0 -66 39 -107t107 -41q96 0 140 84l60 -51q-28 -51 -82.5 -81.5t-125.5 -30.5zM280 455q-61 0 -99.5 -41.5t-38.5 -105.5v-7h266v10q0 65 -35 104.5t-93 39.5z" />
    <glyph glyph-name="uni1EC6" unicode="&#x1ec6;" horiz-adv-x="588" 
d="M306 -176q-57 0 -57 50v13q0 50 57 50t57 -50v-13q0 -50 -57 -50zM254 939h104l115 -146l-49 -36l-118 116l-118 -116l-49 36zM525 0h-435v698h435v-86h-338v-216h313v-86h-313v-224h338v-86z" />
    <glyph glyph-name="uni1EC7" unicode="&#x1ec7;" horiz-adv-x="552" 
d="M283 -176q-57 0 -57 50v13q0 50 57 50t57 -50v-13q0 -50 -57 -50zM229 771h104l115 -146l-49 -36l-118 116l-118 -116l-49 36zM280 -12q-108 0 -171.5 74t-63.5 197t63.5 197t171.5 74q106 0 166.5 -71.5t60.5 -183.5v-39h-365v-21q0 -66 39 -107t107 -41q96 0 140 84
l60 -51q-28 -51 -82.5 -81.5t-125.5 -30.5zM280 455q-61 0 -99.5 -41.5t-38.5 -105.5v-7h266v10q0 65 -35 104.5t-93 39.5z" />
    <glyph glyph-name="uni1EC8" unicode="&#x1ec8;" horiz-adv-x="407" 
d="M112 871v69h116q75 0 75 -58q0 -45 -51 -107l-24 -31l-52 25l55 102h-119zM349 0h-291v82h97v534h-97v82h291v-82h-97v-534h97v-82z" />
    <glyph glyph-name="uni1EC9" unicode="&#x1ec9;" horiz-adv-x="257" 
d="M39 702v70h116q39 0 57 -16t18 -42q0 -46 -51 -108l-24 -31l-52 26l55 101h-119zM175 0h-93v518h93v-518z" />
    <glyph glyph-name="uni1ECA" unicode="&#x1eca;" horiz-adv-x="407" 
d="M203 -176q-57 0 -57 50v13q0 50 57 50t57 -50v-13q0 -50 -57 -50zM349 0h-291v82h97v534h-97v82h291v-82h-97v-534h97v-82z" />
    <glyph glyph-name="uni1ECB" unicode="&#x1ecb;" horiz-adv-x="257" 
d="M129 -176q-57 0 -57 50v13q0 50 57 50t57 -50v-13q0 -50 -57 -50zM129 626q-56 0 -56 51v14q0 51 56 51t56 -51v-14q0 -51 -56 -51zM82 0v518h93v-518h-93z" />
    <glyph glyph-name="uni1ECC" unicode="&#x1ecc;" horiz-adv-x="708" 
d="M354 -176q-57 0 -57 50v13q0 50 57 50t57 -50v-13q0 -50 -57 -50zM354 -12q-138 0 -218 94t-80 267t80 267t218 94t218 -94t80 -267t-80 -267t-218 -94zM354 75q88 0 141 59t53 158v114q0 99 -53 158t-141 59t-141 -59t-53 -158v-114q0 -99 53 -158t141 -59z" />
    <glyph glyph-name="uni1ECD" unicode="&#x1ecd;" horiz-adv-x="562" 
d="M281 -176q-57 0 -57 50v13q0 50 57 50t57 -50v-13q0 -50 -57 -50zM281 -12q-106 0 -171 74t-65 197t65 197t171 74t171 -74t65 -197t-65 -197t-171 -74zM281 68q63 0 100 39t37 113v78q0 74 -37 113t-100 39t-100 -39t-37 -113v-78q0 -74 37 -113t100 -39z" />
    <glyph glyph-name="uni1ECE" unicode="&#x1ece;" horiz-adv-x="708" 
d="M263 871v69h116q75 0 75 -58q0 -45 -51 -107l-24 -31l-52 25l55 102h-119zM354 -12q-138 0 -218 94t-80 267t80 267t218 94t218 -94t80 -267t-80 -267t-218 -94zM354 75q88 0 141 59t53 158v114q0 99 -53 158t-141 59t-141 -59t-53 -158v-114q0 -99 53 -158t141 -59z" />
    <glyph glyph-name="uni1ECF" unicode="&#x1ecf;" horiz-adv-x="562" 
d="M191 702v70h116q39 0 57 -16t18 -42q0 -46 -51 -108l-24 -31l-52 26l55 101h-119zM281 -12q-106 0 -171 74t-65 197t65 197t171 74t171 -74t65 -197t-65 -197t-171 -74zM281 68q63 0 100 39t37 113v78q0 74 -37 113t-100 39t-100 -39t-37 -113v-78q0 -74 37 -113t100 -39
z" />
    <glyph glyph-name="uni1ED0" unicode="&#x1ed0;" horiz-adv-x="708" 
d="M623 1035l-111 -162l-55 26l88 175zM305 920h98l117 -136l-46 -37l-120 111l-120 -111l-46 37zM354 -12q-138 0 -218 94t-80 267t80 267t218 94t218 -94t80 -267t-80 -267t-218 -94zM354 75q88 0 141 59t53 158v114q0 99 -53 158t-141 59t-141 -59t-53 -158v-114
q0 -99 53 -158t141 -59z" />
    <glyph glyph-name="uni1ED1" unicode="&#x1ed1;" horiz-adv-x="562" 
d="M550 867l-111 -162l-55 26l88 174zM232 752h98l117 -137l-46 -36l-120 110l-120 -110l-46 36zM281 -12q-106 0 -171 74t-65 197t65 197t171 74t171 -74t65 -197t-65 -197t-171 -74zM281 68q63 0 100 39t37 113v78q0 74 -37 113t-100 39t-100 -39t-37 -113v-78
q0 -74 37 -113t100 -39z" />
    <glyph glyph-name="uni1ED2" unicode="&#x1ed2;" horiz-adv-x="708" 
d="M196 873l-111 162l78 39l88 -175zM305 920h98l117 -136l-46 -37l-120 111l-120 -111l-46 37zM354 -12q-138 0 -218 94t-80 267t80 267t218 94t218 -94t80 -267t-80 -267t-218 -94zM354 75q88 0 141 59t53 158v114q0 99 -53 158t-141 59t-141 -59t-53 -158v-114
q0 -99 53 -158t141 -59z" />
    <glyph glyph-name="uni1ED3" unicode="&#x1ed3;" horiz-adv-x="562" 
d="M123 705l-111 162l78 38l88 -174zM232 752h98l117 -137l-46 -36l-120 110l-120 -110l-46 36zM281 -12q-106 0 -171 74t-65 197t65 197t171 74t171 -74t65 -197t-65 -197t-171 -74zM281 68q63 0 100 39t37 113v78q0 74 -37 113t-100 39t-100 -39t-37 -113v-78
q0 -74 37 -113t100 -39z" />
    <glyph glyph-name="uni1ED4" unicode="&#x1ed4;" horiz-adv-x="708" 
d="M402 996v66h113q76 0 76 -58q0 -45 -52 -108l-24 -30l-49 25l57 105h-121zM305 920h98l117 -136l-46 -37l-120 111l-120 -111l-46 37zM354 -12q-138 0 -218 94t-80 267t80 267t218 94t218 -94t80 -267t-80 -267t-218 -94zM354 75q88 0 141 59t53 158v114q0 99 -53 158
t-141 59t-141 -59t-53 -158v-114q0 -99 53 -158t141 -59z" />
    <glyph glyph-name="uni1ED5" unicode="&#x1ed5;" horiz-adv-x="562" 
d="M329 828v66h113q76 0 76 -58q0 -45 -52 -108l-24 -31l-49 25l57 106h-121zM232 752h98l117 -137l-46 -36l-120 110l-120 -110l-46 36zM281 -12q-106 0 -171 74t-65 197t65 197t171 74t171 -74t65 -197t-65 -197t-171 -74zM281 68q63 0 100 39t37 113v78q0 74 -37 113
t-100 39t-100 -39t-37 -113v-78q0 -74 37 -113t100 -39z" />
    <glyph glyph-name="uni1ED6" unicode="&#x1ed6;" horiz-adv-x="708" 
d="M280 1063q30 0 80 -25q45 -23 71 -23q27 0 59 26l36 -41q-36 -55 -98 -55q-30 0 -80 25q-45 23 -71 23q-27 0 -59 -26l-36 41q36 55 98 55zM304 918h100l116 -134l-46 -37l-120 109l-120 -109l-46 37zM354 -12q-138 0 -218 94t-80 267t80 267t218 94t218 -94t80 -267
t-80 -267t-218 -94zM354 75q88 0 141 59t53 158v114q0 99 -53 158t-141 59t-141 -59t-53 -158v-114q0 -99 53 -158t141 -59z" />
    <glyph glyph-name="uni1ED7" unicode="&#x1ed7;" horiz-adv-x="562" 
d="M207 895q30 0 80 -25q45 -23 71 -23q27 0 59 26l36 -41q-36 -55 -98 -55q-30 0 -80 25q-45 23 -71 23q-27 0 -59 -26l-36 41q36 55 98 55zM231 749h100l116 -134l-46 -36l-120 109l-120 -109l-46 36zM281 -12q-106 0 -171 74t-65 197t65 197t171 74t171 -74t65 -197
t-65 -197t-171 -74zM281 68q63 0 100 39t37 113v78q0 74 -37 113t-100 39t-100 -39t-37 -113v-78q0 -74 37 -113t100 -39z" />
    <glyph glyph-name="uni1ED8" unicode="&#x1ed8;" horiz-adv-x="708" 
d="M354 -176q-57 0 -57 50v13q0 50 57 50t57 -50v-13q0 -50 -57 -50zM302 939h104l115 -146l-49 -36l-118 116l-118 -116l-49 36zM354 -12q-138 0 -218 94t-80 267t80 267t218 94t218 -94t80 -267t-80 -267t-218 -94zM354 75q88 0 141 59t53 158v114q0 99 -53 158t-141 59
t-141 -59t-53 -158v-114q0 -99 53 -158t141 -59z" />
    <glyph glyph-name="uni1ED9" unicode="&#x1ed9;" horiz-adv-x="562" 
d="M281 -176q-57 0 -57 50v13q0 50 57 50t57 -50v-13q0 -50 -57 -50zM229 771h104l115 -146l-49 -36l-118 116l-118 -116l-49 36zM281 -12q-106 0 -171 74t-65 197t65 197t171 74t171 -74t65 -197t-65 -197t-171 -74zM281 68q63 0 100 39t37 113v78q0 74 -37 113t-100 39
t-100 -39t-37 -113v-78q0 -74 37 -113t100 -39z" />
    <glyph glyph-name="uni1EDA" unicode="&#x1eda;" horiz-adv-x="708" 
d="M474 914l-111 -162l-59 28l88 174zM580 811h81v-101q0 -34 -15.5 -52t-54.5 -18h-41q102 -99 102 -291q0 -173 -80 -267t-218 -94t-218 94t-80 267t80 267t218 94q49 0 91 -12h135v113zM354 75q88 0 141 59t53 158v114q0 99 -53 158t-141 59t-141 -59t-53 -158v-114
q0 -99 53 -158t141 -59z" />
    <glyph glyph-name="uni1EDB" unicode="&#x1edb;" horiz-adv-x="562" 
d="M400 746l-111 -162l-59 27l88 175zM444 631h81v-100q0 -35 -15 -52.5t-53 -17.5h-10q70 -77 70 -202q0 -123 -65 -197t-171 -74t-171 74t-65 197t65 197t171 74q42 0 78 -12h85v113zM281 68q63 0 100 39t37 113v78q0 74 -37 113t-100 39t-100 -39t-37 -113v-78
q0 -74 37 -113t100 -39z" />
    <glyph glyph-name="uni1EDC" unicode="&#x1edc;" horiz-adv-x="708" 
d="M345 752l-111 162l82 40l88 -174zM580 811h81v-101q0 -34 -15.5 -52t-54.5 -18h-41q102 -99 102 -291q0 -173 -80 -267t-218 -94t-218 94t-80 267t80 267t218 94q49 0 91 -12h135v113zM354 75q88 0 141 59t53 158v114q0 99 -53 158t-141 59t-141 -59t-53 -158v-114
q0 -99 53 -158t141 -59z" />
    <glyph glyph-name="uni1EDD" unicode="&#x1edd;" horiz-adv-x="562" 
d="M271 584l-111 162l82 40l88 -175zM444 631h81v-100q0 -35 -15 -52.5t-53 -17.5h-10q70 -77 70 -202q0 -123 -65 -197t-171 -74t-171 74t-65 197t65 197t171 74q42 0 78 -12h85v113zM281 68q63 0 100 39t37 113v78q0 74 -37 113t-100 39t-100 -39t-37 -113v-78
q0 -74 37 -113t100 -39z" />
    <glyph glyph-name="uni1EDE" unicode="&#x1ede;" horiz-adv-x="708" 
d="M263 871v69h116q75 0 75 -58q0 -45 -51 -107l-24 -31l-52 25l55 102h-119zM580 811h81v-101q0 -34 -15.5 -52t-54.5 -18h-41q102 -99 102 -291q0 -173 -80 -267t-218 -94t-218 94t-80 267t80 267t218 94q49 0 91 -12h135v113zM354 75q88 0 141 59t53 158v114
q0 99 -53 158t-141 59t-141 -59t-53 -158v-114q0 -99 53 -158t141 -59z" />
    <glyph glyph-name="uni1EDF" unicode="&#x1edf;" horiz-adv-x="562" 
d="M190 702v70h116q39 0 57 -16t18 -42q0 -46 -51 -108l-24 -31l-52 26l55 101h-119zM444 631h81v-100q0 -35 -15 -52.5t-53 -17.5h-10q70 -77 70 -202q0 -123 -65 -197t-171 -74t-171 74t-65 197t65 197t171 74q42 0 78 -12h85v113zM281 68q63 0 100 39t37 113v78
q0 74 -37 113t-100 39t-100 -39t-37 -113v-78q0 -74 37 -113t100 -39z" />
    <glyph glyph-name="uni1EE0" unicode="&#x1ee0;" horiz-adv-x="708" 
d="M415 781q-28 0 -70 22q-38 20 -59 20q-27 0 -55 -26l-37 44q37 56 93 56q28 0 70 -22q42 -20 59 -20q27 0 55 26l37 -44q-37 -56 -93 -56zM580 811h81v-101q0 -34 -15.5 -52t-54.5 -18h-41q102 -99 102 -291q0 -173 -80 -267t-218 -94t-218 94t-80 267t80 267t218 94
q49 0 91 -12h135v113zM354 75q88 0 141 59t53 158v114q0 99 -53 158t-141 59t-141 -59t-53 -158v-114q0 -99 53 -158t141 -59z" />
    <glyph glyph-name="uni1EE1" unicode="&#x1ee1;" horiz-adv-x="562" 
d="M345 613q-28 0 -70 22q-38 20 -59 20q-27 0 -55 -26l-37 44q37 56 93 56q28 0 70 -22q42 -20 59 -20q27 0 55 26l37 -44q-37 -56 -93 -56zM444 631h81v-100q0 -35 -15 -52.5t-53 -17.5h-10q70 -77 70 -202q0 -123 -65 -197t-171 -74t-171 74t-65 197t65 197t171 74
q42 0 78 -12h85v113zM281 68q63 0 100 39t37 113v78q0 74 -37 113t-100 39t-100 -39t-37 -113v-78q0 -74 37 -113t100 -39z" />
    <glyph glyph-name="uni1EE2" unicode="&#x1ee2;" horiz-adv-x="708" 
d="M354 -176q-57 0 -57 50v13q0 50 57 50t57 -50v-13q0 -50 -57 -50zM580 811h81v-101q0 -34 -15.5 -52t-54.5 -18h-41q102 -99 102 -291q0 -173 -80 -267t-218 -94t-218 94t-80 267t80 267t218 94q49 0 91 -12h135v113zM354 75q88 0 141 59t53 158v114q0 99 -53 158
t-141 59t-141 -59t-53 -158v-114q0 -99 53 -158t141 -59z" />
    <glyph glyph-name="uni1EE3" unicode="&#x1ee3;" horiz-adv-x="562" 
d="M280 -176q-57 0 -57 50v13q0 50 57 50t57 -50v-13q0 -50 -57 -50zM444 631h81v-100q0 -35 -15 -52.5t-53 -17.5h-10q70 -77 70 -202q0 -123 -65 -197t-171 -74t-171 74t-65 197t65 197t171 74q42 0 78 -12h85v113zM281 68q63 0 100 39t37 113v78q0 74 -37 113t-100 39
t-100 -39t-37 -113v-78q0 -74 37 -113t100 -39z" />
    <glyph glyph-name="uni1EE4" unicode="&#x1ee4;" horiz-adv-x="682" 
d="M339 -176q-57 0 -57 50v13q0 50 57 50t57 -50v-13q0 -50 -57 -50zM85 698h97v-431q0 -98 36.5 -145t122.5 -47t122.5 47t36.5 145v431h97v-412q0 -156 -59.5 -227t-199.5 -71q-139 0 -196 70.5t-57 227.5v412z" />
    <glyph glyph-name="uni1EE5" unicode="&#x1ee5;" horiz-adv-x="574" 
d="M281 -176q-57 0 -57 50v13q0 50 57 50t57 -50v-13q0 -50 -57 -50zM399 0v85h-5q-37 -97 -145 -97q-80 0 -126 52.5t-46 146.5v331h93v-317q0 -132 110 -132q49 0 84 24.5t35 70.5v354h93v-518h-93z" />
    <glyph glyph-name="uni1EE6" unicode="&#x1ee6;" horiz-adv-x="682" 
d="M248 871v69h116q75 0 75 -58q0 -45 -51 -107l-24 -31l-52 25l55 102h-119zM85 698h97v-431q0 -98 36.5 -145t122.5 -47t122.5 47t36.5 145v431h97v-412q0 -156 -59.5 -227t-199.5 -71q-139 0 -196 70.5t-57 227.5v412z" />
    <glyph glyph-name="uni1EE7" unicode="&#x1ee7;" horiz-adv-x="574" 
d="M195 702v70h116q39 0 57 -16t18 -42q0 -46 -51 -108l-24 -31l-52 26l55 101h-119zM399 0v85h-5q-37 -97 -145 -97q-80 0 -126 52.5t-46 146.5v331h93v-317q0 -132 110 -132q49 0 84 24.5t35 70.5v354h93v-518h-93z" />
    <glyph glyph-name="uni1EE8" unicode="&#x1ee8;" horiz-adv-x="682" 
d="M459 914l-111 -162l-59 28l88 174zM85 698h97v-431q0 -98 36.5 -145t122.5 -47t122.5 47t36.5 145v431h89v113h81v-103q0 -34 -16 -52t-55 -18h-2v-352q0 -156 -59.5 -227t-199.5 -71q-139 0 -196 70.5t-57 227.5v412z" />
    <glyph glyph-name="uni1EE9" unicode="&#x1ee9;" horiz-adv-x="573" 
d="M403 746l-111 -162l-59 27l88 175zM571 631v-103q0 -34 -15.5 -52t-54.5 -18h-10v-458h-93v85h-5q-37 -97 -145 -97q-80 0 -126 52.5t-46 146.5v331h93v-317q0 -132 110 -132q49 0 84 24.5t35 70.5v354h92v113h81z" />
    <glyph glyph-name="uni1EEA" unicode="&#x1eea;" horiz-adv-x="682" 
d="M330 752l-111 162l82 40l88 -174zM85 698h97v-431q0 -98 36.5 -145t122.5 -47t122.5 47t36.5 145v431h89v113h81v-103q0 -34 -16 -52t-55 -18h-2v-352q0 -156 -59.5 -227t-199.5 -71q-139 0 -196 70.5t-57 227.5v412z" />
    <glyph glyph-name="uni1EEB" unicode="&#x1eeb;" horiz-adv-x="573" 
d="M274 584l-111 162l82 40l88 -175zM571 631v-103q0 -34 -15.5 -52t-54.5 -18h-10v-458h-93v85h-5q-37 -97 -145 -97q-80 0 -126 52.5t-46 146.5v331h93v-317q0 -132 110 -132q49 0 84 24.5t35 70.5v354h92v113h81z" />
    <glyph glyph-name="uni1EEC" unicode="&#x1eec;" horiz-adv-x="682" 
d="M248 871v69h116q75 0 75 -58q0 -45 -51 -107l-24 -31l-52 25l55 102h-119zM85 698h97v-431q0 -98 36.5 -145t122.5 -47t122.5 47t36.5 145v431h89v113h81v-103q0 -34 -16 -52t-55 -18h-2v-352q0 -156 -59.5 -227t-199.5 -71q-139 0 -196 70.5t-57 227.5v412z" />
    <glyph glyph-name="uni1EED" unicode="&#x1eed;" horiz-adv-x="573" 
d="M193 702v70h116q39 0 57 -16t18 -42q0 -46 -51 -108l-24 -31l-52 26l55 101h-119zM571 631v-103q0 -34 -15.5 -52t-54.5 -18h-10v-458h-93v85h-5q-37 -97 -145 -97q-80 0 -126 52.5t-46 146.5v331h93v-317q0 -132 110 -132q49 0 84 24.5t35 70.5v354h92v113h81z" />
    <glyph glyph-name="uni1EEE" unicode="&#x1eee;" horiz-adv-x="682" 
d="M401 781q-28 0 -70 22q-38 20 -59 20q-27 0 -55 -26l-37 44q37 56 93 56q28 0 70 -22q42 -20 59 -20q27 0 55 26l37 -44q-37 -56 -93 -56zM85 698h97v-431q0 -98 36.5 -145t122.5 -47t122.5 47t36.5 145v431h89v113h81v-103q0 -34 -16 -52t-55 -18h-2v-352
q0 -156 -59.5 -227t-199.5 -71q-139 0 -196 70.5t-57 227.5v412z" />
    <glyph glyph-name="uni1EEF" unicode="&#x1eef;" horiz-adv-x="573" 
d="M353 613q-28 0 -70 22q-38 20 -59 20q-27 0 -55 -26l-37 44q37 56 93 56q28 0 70 -22q42 -20 59 -20q27 0 55 26l37 -44q-37 -56 -93 -56zM571 631v-103q0 -34 -15.5 -52t-54.5 -18h-10v-458h-93v85h-5q-37 -97 -145 -97q-80 0 -126 52.5t-46 146.5v331h93v-317
q0 -132 110 -132q49 0 84 24.5t35 70.5v354h92v113h81z" />
    <glyph glyph-name="uni1EF0" unicode="&#x1ef0;" horiz-adv-x="682" 
d="M339 -176q-57 0 -57 50v13q0 50 57 50t57 -50v-13q0 -50 -57 -50zM85 698h97v-431q0 -98 36.5 -145t122.5 -47t122.5 47t36.5 145v431h89v113h81v-103q0 -34 -16 -52t-55 -18h-2v-352q0 -156 -59.5 -227t-199.5 -71q-139 0 -196 70.5t-57 227.5v412z" />
    <glyph glyph-name="uni1EF1" unicode="&#x1ef1;" horiz-adv-x="573" 
d="M280 -176q-57 0 -57 50v13q0 50 57 50t57 -50v-13q0 -50 -57 -50zM571 631v-103q0 -34 -15.5 -52t-54.5 -18h-10v-458h-93v85h-5q-37 -97 -145 -97q-80 0 -126 52.5t-46 146.5v331h93v-317q0 -132 110 -132q49 0 84 24.5t35 70.5v354h92v113h81z" />
    <glyph glyph-name="Ygrave" unicode="&#x1ef2;" horiz-adv-x="603" 
d="M293 752l-111 162l82 40l88 -174zM349 0h-97v275l-240 423h111l179 -325h3l178 325h108l-242 -420v-278z" />
    <glyph glyph-name="ygrave" unicode="&#x1ef3;" horiz-adv-x="506" 
d="M245 584l-111 162l82 40l88 -175zM285 187l116 331h90l-225 -631q-19 -50 -44.5 -68.5t-83.5 -18.5h-51v79h85l35 100l-192 539h93l115 -331l27 -97h5z" />
    <glyph glyph-name="uni1EF4" unicode="&#x1ef4;" horiz-adv-x="603" 
d="M302 -176q-57 0 -57 50v13q0 50 57 50t57 -50v-13q0 -50 -57 -50zM349 0h-97v275l-240 423h111l179 -325h3l178 325h108l-242 -420v-278z" />
    <glyph glyph-name="uni1EF5" unicode="&#x1ef5;" horiz-adv-x="506" 
d="M400 -176q-57 0 -57 50v13q0 50 57 50t57 -50v-13q0 -50 -57 -50zM285 187l116 331h90l-225 -631q-19 -50 -44.5 -68.5t-83.5 -18.5h-51v79h85l35 100l-192 539h93l115 -331l27 -97h5z" />
    <glyph glyph-name="uni1EF6" unicode="&#x1ef6;" horiz-adv-x="603" 
d="M211 871v69h116q75 0 75 -58q0 -45 -51 -107l-24 -31l-52 25l55 102h-119zM349 0h-97v275l-240 423h111l179 -325h3l178 325h108l-242 -420v-278z" />
    <glyph glyph-name="uni1EF7" unicode="&#x1ef7;" horiz-adv-x="506" 
d="M164 702v70h116q39 0 57 -16t18 -42q0 -46 -51 -108l-24 -31l-52 26l55 101h-119zM285 187l116 331h90l-225 -631q-19 -50 -44.5 -68.5t-83.5 -18.5h-51v79h85l35 100l-192 539h93l115 -331l27 -97h5z" />
    <glyph glyph-name="uni1EF8" unicode="&#x1ef8;" horiz-adv-x="603" 
d="M376 778q-30 0 -80 25q-45 23 -71 23q-27 0 -59 -26l-36 45q36 55 98 55q30 0 80 -25q45 -23 71 -23q27 0 59 26l36 -45q-36 -55 -98 -55zM349 0h-97v275l-240 423h111l179 -325h3l178 325h108l-242 -420v-278z" />
    <glyph glyph-name="uni1EF9" unicode="&#x1ef9;" horiz-adv-x="506" 
d="M328 610q-30 0 -80 25q-45 23 -71 23q-27 0 -59 -26l-36 45q36 55 98 55q30 0 80 -25q45 -23 71 -23q27 0 59 26l36 -45q-36 -55 -98 -55zM285 187l116 331h90l-225 -631q-19 -50 -44.5 -68.5t-83.5 -18.5h-51v79h85l35 100l-192 539h93l115 -331l27 -97h5z" />
    <glyph glyph-name="endash" unicode="&#x2013;" horiz-adv-x="588" 
d="M552 262h-516v84h516v-84z" />
    <glyph glyph-name="emdash" unicode="&#x2014;" horiz-adv-x="780" 
d="M744 262h-708v84h708v-84z" />
    <glyph glyph-name="quoteleft" unicode="&#x2018;" horiz-adv-x="277" 
d="M135 480q-66 0 -66 63v15q0 46 25.5 96.5t68.5 86.5h73q-64 -65 -79 -125q44 -9 44 -58v-15q0 -63 -66 -63z" />
    <glyph glyph-name="quoteright" unicode="&#x2019;" horiz-adv-x="277" 
d="M142 750q66 0 66 -63v-15q0 -46 -25.5 -96.5t-68.5 -86.5h-73q64 65 79 125q-44 9 -44 58v15q0 63 66 63z" />
    <glyph glyph-name="quotesinglbase" unicode="&#x201a;" horiz-adv-x="280" 
d="M136 143q66 0 66 -63v-15q0 -45 -25.5 -96t-68.5 -87h-73q64 65 79 125q-44 9 -44 58v15q0 63 66 63z" />
    <glyph glyph-name="quotedblleft" unicode="&#x201c;" horiz-adv-x="484" 
d="M342 480q-66 0 -66 63v15q0 46 25.5 96.5t68.5 86.5h73q-64 -65 -79 -125q44 -9 44 -58v-15q0 -63 -66 -63zM135 480q-66 0 -66 63v15q0 46 25.5 96.5t68.5 86.5h73q-64 -65 -79 -125q44 -9 44 -58v-15q0 -63 -66 -63z" />
    <glyph glyph-name="quotedblright" unicode="&#x201d;" horiz-adv-x="484" 
d="M349 750q66 0 66 -63v-15q0 -46 -25.5 -96.5t-68.5 -86.5h-73q64 65 79 125q-44 9 -44 58v15q0 63 66 63zM142 750q66 0 66 -63v-15q0 -46 -25.5 -96.5t-68.5 -86.5h-73q64 65 79 125q-44 9 -44 58v15q0 63 66 63z" />
    <glyph glyph-name="quotedblbase" unicode="&#x201e;" horiz-adv-x="486" 
d="M342 143q66 0 66 -63v-15q0 -45 -25.5 -96t-68.5 -87h-73q64 65 79 125q-44 9 -44 58v15q0 63 66 63zM136 143q66 0 66 -63v-15q0 -45 -25.5 -96t-68.5 -87h-73q64 65 79 125q-44 9 -44 58v15q0 63 66 63z" />
    <glyph glyph-name="dagger" unicode="&#x2020;" horiz-adv-x="546" 
d="M313 -200h-80v646h-188v72h188v222h80v-222h188v-72h-188v-646z" />
    <glyph glyph-name="daggerdbl" unicode="&#x2021;" horiz-adv-x="550" 
d="M315 -200h-81v222h-187v72h187v352h-187v72h187v222h81v-222h188v-72h-188v-352h188v-72h-188v-222z" />
    <glyph glyph-name="bullet" unicode="&#x2022;" horiz-adv-x="402" 
d="M201 177q-66 0 -97 29.5t-31 79.5v29q0 50 31 79.5t97 29.5t97 -29.5t31 -79.5v-29q0 -50 -31 -79.5t-97 -29.5z" />
    <glyph glyph-name="ellipsis" unicode="&#x2026;" horiz-adv-x="818" 
d="M679 -12q-33 0 -49.5 17t-16.5 45v15q0 28 16.5 45t49.5 17t49.5 -17t16.5 -45v-15q0 -28 -16.5 -45t-49.5 -17zM409 -12q-33 0 -49.5 17t-16.5 45v15q0 28 16.5 45t49.5 17t49.5 -17t16.5 -45v-15q0 -28 -16.5 -45t-49.5 -17zM139 -12q-33 0 -49.5 17t-16.5 45v15
q0 28 16.5 45t49.5 17t49.5 -17t16.5 -45v-15q0 -28 -16.5 -45t-49.5 -17z" />
    <glyph glyph-name="perthousand" unicode="&#x2030;" horiz-adv-x="1324" 
d="M271 0h-88l484 698h88zM225 314q-78 0 -120.5 51t-42.5 147t42.5 147t120.5 51t120.5 -51t42.5 -147t-42.5 -147t-120.5 -51zM225 373q80 0 80 110v58q0 110 -80 110t-80 -110v-58q0 -110 80 -110zM713 -12q-78 0 -120.5 51t-42.5 147t42.5 147t120.5 51t120.5 -51
t42.5 -147t-42.5 -147t-120.5 -51zM713 47q80 0 80 110v58q0 110 -80 110t-80 -110v-58q0 -110 80 -110zM1099 -12q-78 0 -120.5 51t-42.5 147t42.5 147t120.5 51t120.5 -51t42.5 -147t-42.5 -147t-120.5 -51zM1099 47q80 0 80 110v58q0 110 -80 110t-80 -110v-58
q0 -110 80 -110z" />
    <glyph glyph-name="guilsinglleft" unicode="&#x2039;" horiz-adv-x="307" 
d="M255 136l-28 -61l-191 165v84l191 165l28 -61l-134 -146z" />
    <glyph glyph-name="guilsinglright" unicode="&#x203a;" horiz-adv-x="307" 
d="M80 75l-28 61l134 146l-134 146l28 61l191 -165v-84z" />
    <glyph glyph-name="fraction" unicode="&#x2044;" horiz-adv-x="152" 
d="M-131 0h-80l494 698h80z" />
    <glyph glyph-name="uni2070" unicode="&#x2070;" horiz-adv-x="376" 
d="M188 324q-148 0 -148 190t148 190t148 -190t-148 -190zM188 381q72 0 72 100v66q0 100 -72 100t-72 -100v-66q0 -100 72 -100z" />
    <glyph glyph-name="uni2074" unicode="&#x2074;" horiz-adv-x="346" 
d="M271 329h-67v72h-185v58l161 239h91v-244h54v-53h-54v-72zM204 454v177h-5l-120 -177h125z" />
    <glyph glyph-name="uni2075" unicode="&#x2075;" horiz-adv-x="350" 
d="M294 698v-57h-179l-11 -127h4q15 27 33.5 40t51.5 13q53 0 87.5 -31.5t34.5 -84.5q0 -57 -39 -92.5t-107 -35.5q-90 0 -135 68l50 38q33 -50 86 -50q71 0 71 63v6q0 63 -71 63q-39 0 -65 -28l-58 8l14 207h233z" />
    <glyph glyph-name="uni2076" unicode="&#x2076;" horiz-adv-x="359" 
d="M181 323q-68 0 -106 39t-38 106q0 72 42.5 132.5t100.5 97.5h96q-77 -51 -115 -92t-51 -95l4 -1q31 54 92 54q52 0 85.5 -31t33.5 -83q0 -57 -39.5 -92t-104.5 -35zM181 376q33 0 52 16.5t19 47.5v7q0 31 -19 47.5t-52 16.5t-52 -16.5t-19 -47.5v-7q0 -31 19 -47.5
t52 -16.5z" />
    <glyph glyph-name="uni2077" unicode="&#x2077;" horiz-adv-x="332" 
d="M164 329h-75l144 313h-145v-68h-60v124h275v-59z" />
    <glyph glyph-name="uni2078" unicode="&#x2078;" horiz-adv-x="373" 
d="M186 323q-69 0 -107.5 30t-38.5 77q0 35 21.5 58t58.5 32v4q-67 22 -67 84q0 44 35 70t98 26t98 -26t35 -70q0 -62 -67 -84v-4q80 -20 80 -90q0 -47 -38.5 -77t-107.5 -30zM186 544q65 0 65 49v9q0 49 -65 49t-65 -49v-9q0 -49 65 -49zM186 376q71 0 71 53v12
q0 53 -71 53t-71 -53v-12q0 -53 71 -53z" />
    <glyph glyph-name="uni2079" unicode="&#x2079;" horiz-adv-x="359" 
d="M322 559q0 -72 -42.5 -132.5t-100.5 -97.5h-96q77 51 115 92t51 95l-5 1q-28 -55 -91 -55q-52 0 -85.5 31.5t-33.5 83.5q0 57 39.5 92t104.5 35q67 0 105.5 -39t38.5 -106zM178 515q33 0 52 16.5t19 47.5v8q0 31 -19 47.5t-52 16.5t-52 -16.5t-19 -47.5v-8
q0 -31 19 -47.5t52 -16.5z" />
    <glyph glyph-name="uni2080" unicode="&#x2080;" horiz-adv-x="376" 
d="M188 -6q-148 0 -148 190t148 190t148 -190t-148 -190zM188 51q72 0 72 100v66q0 100 -72 100t-72 -100v-66q0 -100 72 -100z" />
    <glyph glyph-name="uni2081" unicode="&#x2081;" horiz-adv-x="356" 
d="M325 0h-272v56h106v252l-101 -52l-27 50l123 63h75v-313h96v-56z" />
    <glyph glyph-name="uni2082" unicode="&#x2082;" horiz-adv-x="346" 
d="M313 56v-56h-275v63l128 102q61 50 61 94v6q0 24 -16.5 37.5t-44.5 13.5q-54 0 -74 -55l-60 22q30 92 139 92q62 0 96.5 -30.5t34.5 -79.5q0 -41 -25 -74t-74 -68l-89 -67h199z" />
    <glyph glyph-name="uni2083" unicode="&#x2083;" horiz-adv-x="347" 
d="M116 219h38q71 0 71 48v4q0 22 -16 35t-45 13q-53 0 -83 -44l-46 39q45 61 131 61q60 0 97 -26t37 -70q0 -34 -22 -56t-56 -28v-4q37 -6 60.5 -29t23.5 -60q0 -49 -40 -78.5t-106 -29.5q-91 0 -140 68l53 38q31 -50 87 -50q34 0 53 15t19 42v5q0 50 -74 50h-42v57z" />
    <glyph glyph-name="uni2084" unicode="&#x2084;" horiz-adv-x="346" 
d="M271 0h-67v72h-185v58l161 239h91v-244h54v-53h-54v-72zM204 125v177h-5l-120 -177h125z" />
    <glyph glyph-name="uni2085" unicode="&#x2085;" horiz-adv-x="350" 
d="M294 312h-179l-11 -127h4q15 27 33.5 40t51.5 13q53 0 87.5 -31.5t34.5 -84.5q0 -57 -39 -92.5t-107 -35.5q-90 0 -135 68l50 38q33 -50 86 -50q71 0 71 63v6q0 63 -71 63q-39 0 -65 -28l-58 8l14 207h233v-57z" />
    <glyph glyph-name="uni2086" unicode="&#x2086;" horiz-adv-x="359" 
d="M181 -6q-68 0 -106 39t-38 106q0 72 42.5 132.5t100.5 97.5h96q-77 -51 -115 -92t-51 -95l4 -1q31 54 92 54q52 0 85.5 -31t33.5 -83q0 -57 -39.5 -92t-104.5 -35zM181 47q33 0 52 16.5t19 47.5v7q0 31 -19 47.5t-52 16.5t-52 -16.5t-19 -47.5v-7q0 -31 19 -47.5
t52 -16.5z" />
    <glyph glyph-name="uni2087" unicode="&#x2087;" horiz-adv-x="332" 
d="M164 0h-75l144 313h-145v-67h-60v123h275v-59z" />
    <glyph glyph-name="uni2088" unicode="&#x2088;" horiz-adv-x="373" 
d="M186 -6q-69 0 -107.5 30t-38.5 77q0 35 21.5 58t58.5 32v4q-67 22 -67 84q0 44 35 70t98 26t98 -26t35 -70q0 -62 -67 -84v-4q80 -20 80 -90q0 -47 -38.5 -77t-107.5 -30zM186 47q71 0 71 53v12q0 53 -71 53t-71 -53v-12q0 -53 71 -53zM186 215q65 0 65 49v9q0 49 -65 49
t-65 -49v-9q0 -49 65 -49z" />
    <glyph glyph-name="uni2089" unicode="&#x2089;" horiz-adv-x="359" 
d="M322 230q0 -72 -42.5 -132.5t-100.5 -97.5h-96q77 51 115 92t51 95l-5 1q-28 -55 -91 -55q-52 0 -85.5 31.5t-33.5 83.5q0 57 39.5 92t104.5 35q67 0 105.5 -39t38.5 -106zM178 186q33 0 52 16.5t19 47.5v8q0 31 -19 47.5t-52 16.5t-52 -16.5t-19 -47.5v-8
q0 -31 19 -47.5t52 -16.5z" />
    <glyph glyph-name="uni20A1" unicode="&#x20a1;" horiz-adv-x="626" 
d="M308 -82l9 83q-29 2 -49 7l-10 -90h-68l12 112q-146 76 -146 318q0 146 56 234t158 110l9 88h69l-9 -82h5q24 0 45 -3l9 85h69l-11 -103q77 -30 125 -124l-74 -48q-25 58 -62 82l-52 -499q80 21 118 113l74 -51q-64 -130 -199 -147l-9 -85h-69zM336 615h-7l-54 -520
q24 -11 52 -12l55 528q-16 4 -46 4zM158 293q0 -111 57 -163l47 470q-49 -21 -76.5 -72t-27.5 -122v-113z" />
    <glyph glyph-name="uni20A4" unicode="&#x20a4;" horiz-adv-x="592" 
d="M530 85v-85h-451v107q69 30 73 129h-97v71h89q-2 10 -27 84h-62v71h44q-3 16 -3 38q0 94 63 152t171 58q145 0 218 -115l-72 -52q-54 82 -147 82q-63 0 -98 -35t-35 -101q0 -11 2 -27h232v-71h-216q23 -68 26 -84h190v-71h-183q-4 -48 -25 -87t-50 -58v-6h358z" />
    <glyph glyph-name="uni20A6" unicode="&#x20a6;" horiz-adv-x="711" 
d="M501 0l-135 235h-177v-235h-92v233h-82v71h82v91h-82v71h82v232h110l134 -234h182v234h91v-232h82v-71h-82v-91h82v-71h-82v-233h-113zM189 302h144l-141 255h-3v-255zM374 397l146 -265h3v265h-149z" />
    <glyph glyph-name="uni20A8" unicode="&#x20a8;" horiz-adv-x="747" 
d="M184 0h-94v698h185q90 0 137.5 -49.5t47.5 -140.5q0 -136 -101 -175l91 -189q20 -42 43 -61t59 -19q35 0 54 16t19 45q0 21 -9 35t-42 47l-19 18q-42 41 -58.5 72.5t-16.5 67.5q0 55 35.5 89t96.5 34q65 0 105 -29l-35 -65q-28 22 -63 22q-24 0 -38 -13t-14 -36
q0 -22 11 -38.5t42 -47.5l16 -15q47 -47 62.5 -73.5t15.5 -66.5q0 -64 -42.5 -101t-128.5 -37q-63 0 -105.5 26t-69.5 85l-97 214h-87v-313zM184 393h81q47 0 73 23t26 66v45q0 43 -26 66t-73 23h-81v-223z" />
    <glyph glyph-name="uni20A9" unicode="&#x20a9;" horiz-adv-x="965" 
d="M630 0l-60 235h-182l-61 -235h-107l-56 234h-127v71h111l-21 90h-90v71h73l-55 232h96l51 -234h166l60 234h109l59 -233h169l53 233h95l-58 -231h73v-71h-91l-23 -91h114v-71h-131l-60 -234h-107zM281 113l60 248l9 36h-133l7 -36l54 -248h3zM682 114h3l56 247l8 37h-137
l9 -36zM418 349l-13 -47h148l-12 47l-60 247h-2z" />
    <glyph glyph-name="uni20AA" unicode="&#x20aa;" horiz-adv-x="799" 
d="M266 0v533h91v-453h163q43 0 70.5 25t27.5 80v513h91v-500q0 -97 -51 -147.5t-135 -50.5h-257zM181 0h-91v698h259q84 0 134 -50.5t50 -147.5v-336h-91v349q0 105 -97 105h-164v-618z" />
    <glyph glyph-name="uni20AB" unicode="&#x20ab;" horiz-adv-x="578" 
d="M381 143v70h-4q-44 -79 -140 -79q-80 0 -126.5 54t-46.5 156t46.5 156t126.5 54q96 0 140 -79h4v139h-144v67h144v59h90v-59h66v-67h-66v-471h-90zM271 205q49 0 79.5 23.5t30.5 61.5v108q0 38 -30.5 61.5t-79.5 23.5q-52 0 -83 -29.5t-31 -78.5v-62q0 -49 31 -78.5
t83 -29.5zM499 0h-432v71h432v-71z" />
    <glyph glyph-name="Euro" unicode="&#x20ac;" horiz-adv-x="625" 
d="M341 -12q-134 0 -209.5 94t-75.5 267t75.5 267t209.5 94q164 0 237 -147l-74 -47q-46 111 -163 111q-73 0 -120 -43.5t-59 -117.5h251v-71h-256v-92h256v-71h-251q14 -75 60 -118t119 -43q119 0 169 119l74 -50q-76 -152 -243 -152z" />
    <glyph glyph-name="uni20AD" unicode="&#x20ad;" horiz-adv-x="629" 
d="M190 320v-320h-96v320h-85v79h85v299h96v-299h72l217 299h108l-225 -299h208v-79h-200l235 -320h-115l-226 320h-74z" />
    <glyph glyph-name="uni20AE" unicode="&#x20ae;" horiz-adv-x="606" 
d="M484 279l-132 -64v-215h-97v168l-130 -62v73l130 62v87l-130 -63v73l130 63v212h-216v85h528v-85h-215v-165l132 63v-73l-132 -63v-87l132 64v-73z" />
    <glyph glyph-name="uni20B1" unicode="&#x20b1;" horiz-adv-x="640" 
d="M204 186v-186h-96v328h-81v69h81v91h-81v69h81v141h241q142 0 181 -141h93v-69h-81q2 -30 2 -45q0 -16 -2 -46h81v-69h-93q-39 -142 -181 -142h-145zM204 620v-66h237q-23 66 -96 66h-141zM204 394h244v97h-244v-97zM204 263h141q37 0 62.5 18t34.5 50h-238v-68z" />
    <glyph glyph-name="uni20B2" unicode="&#x20b2;" horiz-adv-x="674" 
d="M295 -82h-80l18 99q-84 32 -130.5 116t-46.5 216q0 170 76 259.5t206 89.5h13l14 82h80l-16 -94q112 -32 163 -141l-78 -43q-29 75 -103 101l-42 -239h237v-106q0 -72 -25 -124.5t-66.5 -80.5t-85.5 -40.5t-91 -12.5q-19 0 -28 1zM158 293q0 -145 92 -191l90 513h-2
q-87 0 -133.5 -54.5t-46.5 -155.5v-112zM513 281h-158l-34 -198h17q78 0 126.5 42.5t48.5 115.5v40z" />
    <glyph glyph-name="uni20B4" unicode="&#x20b4;" horiz-adv-x="631" 
d="M320 -12q-97 0 -155 53.5t-58 138.5q0 32 11 65h-74v71h122l159 91h-281v71h372q9 20 9 47q0 51 -30.5 76.5t-85.5 25.5q-82 0 -136 -63l-57 61q75 85 200 85q90 0 146 -48.5t56 -127.5q0 -32 -9 -56h78v-71h-125l-158 -91h283v-71h-374q-13 -28 -13 -59q0 -56 33 -86
t92 -30q81 0 153 77l56 -62q-80 -97 -214 -97z" />
    <glyph glyph-name="uni20B5" unicode="&#x20b5;" horiz-adv-x="623" 
d="M295 -82h-79l17 100q-85 31 -131 115.5t-46 215.5q0 169 75.5 259t208.5 90h11l15 82h79l-16 -94q101 -31 149 -132l-74 -47q-30 68 -93 95l-90 -518q6 -1 19 -1q61 0 103.5 31t64.5 86l74 -49q-74 -151 -242 -151q-20 0 -30 1zM158 293q0 -137 93 -189l89 511
q-84 0 -133 -57t-49 -153v-112z" />
    <glyph glyph-name="uni20B8" unicode="&#x20b8;" horiz-adv-x="607" 
d="M568 621h-529v77h529v-77zM568 456h-216v-456h-97v456h-216v77h529v-77z" />
    <glyph glyph-name="uni20B9" unicode="&#x20b9;" horiz-adv-x="610" 
d="M503 0h-118l-209 283h-121v77h210q52 0 82 24t31 69h-323v77h323q-1 45 -31.5 68t-81.5 23h-210v77h520v-77h-173v-4q21 -2 41.5 -21.5t27.5 -65.5h104v-77h-104q-9 -75 -57 -119t-128 -48z" />
    <glyph glyph-name="uni20BA" unicode="&#x20ba;" horiz-adv-x="607" 
d="M109 0v241l-95 -46v73l95 46v87l-95 -46v73l95 46v224h97v-178l204 98v-73l-204 -98v-87l204 98v-73l-204 -98v-204h97q80 0 124.5 58t44.5 164h94q0 -134 -66 -219.5t-189 -85.5h-202z" />
    <glyph glyph-name="uni20BD" unicode="&#x20bd;" horiz-adv-x="630" 
d="M469 126h-263v-126h-97v126h-82v77h82v93h-82v77h82v325h284q94 0 146 -53.5t52 -147.5t-52 -147.5t-146 -53.5h-187v-93h263v-77zM206 614v-241h184q47 0 73 23.5t26 68.5v57q0 45 -26 68.5t-73 23.5h-184z" />
    <glyph glyph-name="uni20BF" unicode="&#x20bf;" horiz-adv-x="648" 
d="M337 -82v103h-61v-103h-78v103h-108v656h108v103h78v-103h61v103h78v-104q70 -9 110 -53.5t40 -114.5q0 -120 -119 -140v-6q144 -21 144 -152q0 -80 -50 -134t-125 -55v-103h-78zM185 593v-196h192q89 0 89 83v30q0 83 -89 83h-192zM185 317v-212h199q50 0 78.5 22.5
t28.5 66.5v34q0 44 -28.5 66.5t-78.5 22.5h-199z" />
    <glyph glyph-name="uni2113" unicode="&#x2113;" horiz-adv-x="500" 
d="M281 -12q-74 0 -116.5 46.5t-42.5 124.5v9q-20 -15 -52 -35l-39 63q45 27 88 60v303q0 193 148 193q72 0 110 -44t38 -128q0 -94 -51 -178.5t-156 -177.5v-44q0 -111 78 -111q40 0 67 26t51 79l69 -40q-60 -146 -192 -146zM271 673q-63 0 -63 -108v-243q121 126 121 248
v16q0 87 -58 87z" />
    <glyph glyph-name="uni2116" unicode="&#x2116;" horiz-adv-x="1034" 
d="M830 364q-72 0 -117 46t-45 127t45 127t117 46t117 -46t45 -127t-45 -127t-117 -46zM181 0h-91v698h107l213 -389l90 -172h3v561h91v-698h-109l-222 400l-79 154h-3v-554zM830 428q39 0 62 22.5t23 60.5v52q0 38 -23 60.5t-62 22.5t-62 -22.5t-23 -60.5v-52
q0 -38 23 -60.5t62 -22.5zM972 238h-284v69h284v-69z" />
    <glyph glyph-name="trademark" unicode="&#x2122;" horiz-adv-x="642" 
d="M173 417h-57v233h-86v48h229v-48h-86v-233zM347 417h-52v281h68l67 -128h2l65 128h68v-281h-52v120l3 85h-4l-83 -153l-81 153h-4l3 -85v-120z" />
    <glyph glyph-name="Omega" unicode="&#x2126;" horiz-adv-x="716" 
d="M56 0v79h159v10q-69 37 -112 111.5t-43 178.5q0 88 31 161t100 121.5t167 48.5t167 -48.5t100 -121.5t31 -161q0 -103 -43.5 -178t-111.5 -112v-10h159v-79h-237v121q50 18 90 81t40 134v93q0 76 -53.5 135t-141.5 59t-141.5 -59t-53.5 -135v-93q0 -71 40 -134t90 -81
v-121h-237z" />
    <glyph glyph-name="uni212E" unicode="&#x212e;" horiz-adv-x="724" 
d="M187 349v-244q71 -64 175 -64q164 0 244 149l48 -26q-42 -80 -116 -128t-176 -48q-143 0 -235 99t-92 262t92 262t235 99t235 -99t92 -262h-502zM187 399h350v197q-71 64 -175 64t-175 -64v-197z" />
    <glyph glyph-name="uni2150" unicode="&#x2150;" horiz-adv-x="861" 
d="M693 0h-75l144 313h-145v-67h-60v123h275v-59zM239 0h-80l494 698h80zM324 329h-271v56h106v252l-101 -52l-27 50l123 63h75v-313h95v-56z" />
    <glyph glyph-name="uni2151" unicode="&#x2151;" horiz-adv-x="882" 
d="M845 230q0 -72 -42.5 -132.5t-100.5 -97.5h-96q77 51 115 92t51 95l-5 1q-28 -55 -91 -55q-52 0 -85.5 31.5t-33.5 83.5q0 57 39.5 92t104.5 35q67 0 105.5 -39t38.5 -106zM701 186q33 0 52 16.5t19 47.5v8q0 31 -19 47.5t-52 16.5t-52 -16.5t-19 -47.5v-8
q0 -31 19 -47.5t52 -16.5zM239 0h-80l494 698h80zM324 329h-271v56h106v252l-101 -52l-27 50l123 63h75v-313h95v-56z" />
    <glyph glyph-name="uni2153" unicode="&#x2153;" horiz-adv-x="875" 
d="M644 219h38q71 0 71 48v4q0 22 -16 35t-45 13q-53 0 -83 -44l-46 39q45 61 131 61q60 0 97 -26t37 -70q0 -34 -22 -56t-56 -28v-4q37 -6 60.5 -29t23.5 -60q0 -49 -40 -78.5t-106 -29.5q-91 0 -140 68l53 38q31 -50 87 -50q34 0 53 15t19 42v5q0 50 -74 50h-42v57zM239 0
h-80l494 698h80zM324 329h-271v56h106v252l-101 -52l-27 50l123 63h75v-313h95v-56z" />
    <glyph glyph-name="uni2154" unicode="&#x2154;" horiz-adv-x="865" 
d="M634 219h38q71 0 71 48v4q0 22 -16 35t-45 13q-53 0 -83 -44l-46 39q45 61 131 61q60 0 97 -26t37 -70q0 -34 -22 -56t-56 -28v-4q37 -6 60.5 -29t23.5 -60q0 -49 -40 -78.5t-106 -29.5q-91 0 -140 68l53 38q31 -50 87 -50q34 0 53 15t19 42v5q0 50 -74 50h-42v57zM229 0
h-80l494 698h80zM313 385v-56h-275v63l128 102q61 50 61 94v6q0 24 -16.5 37.5t-44.5 13.5q-54 0 -74 -55l-60 22q30 92 139 92q62 0 96.5 -30.5t34.5 -79.5q0 -41 -25 -74t-74 -68l-89 -67h199z" />
    <glyph glyph-name="uni2155" unicode="&#x2155;" horiz-adv-x="873" 
d="M817 312h-179l-11 -127h4q15 27 33.5 40t51.5 13q53 0 87.5 -31.5t34.5 -84.5q0 -57 -39 -92.5t-107 -35.5q-90 0 -135 68l50 38q33 -50 86 -50q71 0 71 63v6q0 63 -71 63q-39 0 -65 -28l-58 8l14 207h233v-57zM239 0h-80l494 698h80zM324 329h-271v56h106v252l-101 -52
l-27 50l123 63h75v-313h95v-56z" />
    <glyph glyph-name="uni2156" unicode="&#x2156;" horiz-adv-x="863" 
d="M807 312h-179l-11 -127h4q15 27 33.5 40t51.5 13q53 0 87.5 -31.5t34.5 -84.5q0 -57 -39 -92.5t-107 -35.5q-90 0 -135 68l50 38q33 -50 86 -50q71 0 71 63v6q0 63 -71 63q-39 0 -65 -28l-58 8l14 207h233v-57zM229 0h-80l494 698h80zM313 385v-56h-275v63l128 102
q61 50 61 94v6q0 24 -16.5 37.5t-44.5 13.5q-54 0 -74 -55l-60 22q30 92 139 92q62 0 96.5 -30.5t34.5 -79.5q0 -41 -25 -74t-74 -68l-89 -67h199z" />
    <glyph glyph-name="uni2157" unicode="&#x2157;" horiz-adv-x="855" 
d="M799 312h-179l-11 -127h4q15 27 33.5 40t51.5 13q53 0 87.5 -31.5t34.5 -84.5q0 -57 -39 -92.5t-107 -35.5q-90 0 -135 68l50 38q33 -50 86 -50q71 0 71 63v6q0 63 -71 63q-39 0 -65 -28l-58 8l14 207h233v-57zM221 0h-80l494 698h80zM116 548h38q71 0 71 48v4
q0 22 -16 35t-45 13q-53 0 -83 -44l-46 39q45 61 131 61q60 0 97 -26t37 -70q0 -34 -22 -56t-56 -28v-4q37 -6 60.5 -29t23.5 -60q0 -49 -40 -78.5t-106 -29.5q-91 0 -140 68l53 38q31 -50 87 -50q34 0 53 15t19 42v5q0 50 -74 50h-42v57z" />
    <glyph glyph-name="uni2158" unicode="&#x2158;" horiz-adv-x="859" 
d="M803 312h-179l-11 -127h4q15 27 33.5 40t51.5 13q53 0 87.5 -31.5t34.5 -84.5q0 -57 -39 -92.5t-107 -35.5q-90 0 -135 68l50 38q33 -50 86 -50q71 0 71 63v6q0 63 -71 63q-39 0 -65 -28l-58 8l14 207h233v-57zM225 0h-80l494 698h80zM271 329h-67v72h-185v58l161 239h91
v-244h54v-53h-54v-72zM204 454v177h-5l-120 -177h125z" />
    <glyph glyph-name="uni2159" unicode="&#x2159;" horiz-adv-x="859" 
d="M681 -6q-68 0 -106 39t-38 106q0 72 42.5 132.5t100.5 97.5h96q-77 -51 -115 -92t-51 -95l4 -1q31 54 92 54q52 0 85.5 -31t33.5 -83q0 -57 -39.5 -92t-104.5 -35zM681 47q33 0 52 16.5t19 47.5v7q0 31 -19 47.5t-52 16.5t-52 -16.5t-19 -47.5v-7q0 -31 19 -47.5
t52 -16.5zM239 0h-80l494 698h80zM324 329h-271v56h106v252l-101 -52l-27 50l123 63h75v-313h95v-56z" />
    <glyph glyph-name="uni215A" unicode="&#x215a;" horiz-adv-x="844" 
d="M666 -6q-68 0 -106 39t-38 106q0 72 42.5 132.5t100.5 97.5h96q-77 -51 -115 -92t-51 -95l4 -1q31 54 92 54q52 0 85.5 -31t33.5 -83q0 -57 -39.5 -92t-104.5 -35zM666 47q33 0 52 16.5t19 47.5v7q0 31 -19 47.5t-52 16.5t-52 -16.5t-19 -47.5v-7q0 -31 19 -47.5
t52 -16.5zM224 0h-80l494 698h80zM294 698v-57h-179l-11 -127h4q15 27 33.5 40t51.5 13q53 0 87.5 -31.5t34.5 -84.5q0 -57 -39 -92.5t-107 -35.5q-90 0 -135 68l50 38q33 -50 86 -50q71 0 71 63v6q0 63 -71 63q-39 0 -65 -28l-58 8l14 207h233z" />
    <glyph glyph-name="uni215B" unicode="&#x215b;" horiz-adv-x="895" 
d="M708 -6q-69 0 -107.5 30t-38.5 77q0 35 21.5 58t58.5 32v4q-67 22 -67 84q0 44 35 70t98 26t98 -26t35 -70q0 -62 -67 -84v-4q80 -20 80 -90q0 -47 -38.5 -77t-107.5 -30zM708 47q71 0 71 53v12q0 53 -71 53t-71 -53v-12q0 -53 71 -53zM708 215q65 0 65 49v9q0 49 -65 49
t-65 -49v-9q0 -49 65 -49zM239 0h-80l494 698h80zM324 329h-271v56h106v252l-101 -52l-27 50l123 63h75v-313h95v-56z" />
    <glyph glyph-name="uni215C" unicode="&#x215c;" horiz-adv-x="877" 
d="M690 -6q-69 0 -107.5 30t-38.5 77q0 35 21.5 58t58.5 32v4q-67 22 -67 84q0 44 35 70t98 26t98 -26t35 -70q0 -62 -67 -84v-4q80 -20 80 -90q0 -47 -38.5 -77t-107.5 -30zM690 47q71 0 71 53v12q0 53 -71 53t-71 -53v-12q0 -53 71 -53zM690 215q65 0 65 49v9q0 49 -65 49
t-65 -49v-9q0 -49 65 -49zM221 0h-80l494 698h80zM116 548h38q71 0 71 48v4q0 22 -16 35t-45 13q-53 0 -83 -44l-46 39q45 61 131 61q60 0 97 -26t37 -70q0 -34 -22 -56t-56 -28v-4q37 -6 60.5 -29t23.5 -60q0 -49 -40 -78.5t-106 -29.5q-91 0 -140 68l53 38q31 -50 87 -50
q34 0 53 15t19 42v5q0 50 -74 50h-42v57z" />
    <glyph glyph-name="uni215D" unicode="&#x215d;" horiz-adv-x="880" 
d="M693 -6q-69 0 -107.5 30t-38.5 77q0 35 21.5 58t58.5 32v4q-67 22 -67 84q0 44 35 70t98 26t98 -26t35 -70q0 -62 -67 -84v-4q80 -20 80 -90q0 -47 -38.5 -77t-107.5 -30zM693 47q71 0 71 53v12q0 53 -71 53t-71 -53v-12q0 -53 71 -53zM693 215q65 0 65 49v9q0 49 -65 49
t-65 -49v-9q0 -49 65 -49zM224 0h-80l494 698h80zM294 698v-57h-179l-11 -127h4q15 27 33.5 40t51.5 13q53 0 87.5 -31.5t34.5 -84.5q0 -57 -39 -92.5t-107 -35.5q-90 0 -135 68l50 38q33 -50 86 -50q71 0 71 63v6q0 63 -71 63q-39 0 -65 -28l-58 8l14 207h233z" />
    <glyph glyph-name="uni215E" unicode="&#x215e;" horiz-adv-x="843" 
d="M656 -6q-69 0 -107.5 30t-38.5 77q0 35 21.5 58t58.5 32v4q-67 22 -67 84q0 44 35 70t98 26t98 -26t35 -70q0 -62 -67 -84v-4q80 -20 80 -90q0 -47 -38.5 -77t-107.5 -30zM656 47q71 0 71 53v12q0 53 -71 53t-71 -53v-12q0 -53 71 -53zM656 215q65 0 65 49v9q0 49 -65 49
t-65 -49v-9q0 -49 65 -49zM187 0h-80l494 698h80zM164 329h-75l144 313h-145v-68h-60v124h275v-59z" />
    <glyph glyph-name="uni2190" unicode="&#x2190;" horiz-adv-x="835" 
d="M63 349l213 213l55 -54l-82 -81l-49 -41l1 -3l94 5h478v-78h-478l-94 5l-1 -3l49 -41l82 -81l-55 -54z" />
    <glyph glyph-name="uni2191" unicode="&#x2191;" horiz-adv-x="835" 
d="M418 710l213 -213l-54 -55l-81 82l-42 49l-3 -1l6 -94v-478h-79v478l6 94l-3 1l-41 -49l-81 -82l-54 55z" />
    <glyph glyph-name="uni2192" unicode="&#x2192;" horiz-adv-x="835" 
d="M772 349l-213 -213l-55 54l81 81l49 41l-1 3l-93 -5h-478v78h478l93 -5l1 3l-49 41l-81 81l55 54z" />
    <glyph glyph-name="uni2193" unicode="&#x2193;" horiz-adv-x="835" 
d="M418 -12l-213 213l54 55l81 -82l41 -49l3 1l-6 94v478h79v-478l-6 -94l3 -1l42 49l81 82l54 -55z" />
    <glyph glyph-name="uni2194" unicode="&#x2194;" horiz-adv-x="835" 
d="M63 349l213 213l55 -54l-82 -81l-49 -41l1 -3l94 5h246l94 -5l1 3l-49 41l-82 81l55 54l213 -213l-213 -213l-55 54l82 81l49 41l-1 3l-94 -5h-246l-94 5l-1 -3l49 -41l82 -81l-55 -54z" />
    <glyph glyph-name="uni2195" unicode="&#x2195;" horiz-adv-x="835" 
d="M418 -12l-213 213l54 55l81 -82l41 -49l3 1l-6 94v258l6 94l-3 1l-41 -49l-81 -82l-54 55l213 213l213 -213l-54 -55l-81 82l-42 49l-3 -1l6 -94v-258l-6 -94l3 -1l42 49l81 82l54 -55z" />
    <glyph glyph-name="uni2196" unicode="&#x2196;" horiz-adv-x="835" 
d="M174 616h302v-77h-115l-64 6l-1 -3l70 -63l338 -338l-55 -55l-339 338l-62 70l-3 -2l6 -63v-115h-77v302z" />
    <glyph glyph-name="uni2197" unicode="&#x2197;" horiz-adv-x="835" 
d="M661 616v-302h-77v115l6 63l-3 2l-62 -70l-338 -338l-56 55l339 338l69 63l-1 3l-64 -6h-115v77h302z" />
    <glyph glyph-name="uni2198" unicode="&#x2198;" horiz-adv-x="835" 
d="M661 97h-302v77h115l64 -6l1 3l-69 62l-339 339l56 55l338 -338l62 -70l3 1l-6 64v115h77v-302z" />
    <glyph glyph-name="uni2199" unicode="&#x2199;" horiz-adv-x="835" 
d="M174 97v302h77v-115l-6 -64l3 -1l62 70l338 338l56 -55l-339 -339l-69 -62l1 -3l64 6h115v-77h-302z" />
    <glyph glyph-name="uni21A9" unicode="&#x21a9;" horiz-adv-x="835" 
d="M63 287l213 213l55 -54l-82 -81l-49 -41l1 -3l94 5h267q53 0 88.5 28t35.5 83q0 56 -35.5 83.5t-88.5 27.5v77q90 0 150.5 -49.5t60.5 -139.5t-60.5 -139t-150.5 -49h-267l-94 5l-1 -3l49 -41l82 -81l-55 -54z" />
    <glyph glyph-name="uni21AA" unicode="&#x21aa;" horiz-adv-x="835" 
d="M773 287l-213 -213l-55 54l82 81l49 41l-1 3l-94 -5h-267q-90 0 -150.5 49t-60.5 139t60.5 139.5t150.5 49.5v-77q-53 0 -88.5 -27.5t-35.5 -83.5q0 -55 35.5 -83t88.5 -28h267l94 -5l1 3l-49 41l-82 81l55 54z" />
    <glyph glyph-name="uni21B0" unicode="&#x21b0;" horiz-adv-x="835" 
d="M140 485l213 213l54 -54l-81 -81l-48 -41l1 -4l93 6h272v-524h-78v446h-194l-93 5l-1 -3l48 -41l81 -81l-54 -54z" />
    <glyph glyph-name="uni21B1" unicode="&#x21b1;" horiz-adv-x="835" 
d="M695 485l-213 -213l-54 54l81 81l49 41l-1 3l-93 -5h-194v-446h-79v524h273l93 -6l1 4l-49 41l-81 81l54 54z" />
    <glyph glyph-name="uni21B2" unicode="&#x21b2;" horiz-adv-x="835" 
d="M140 213l213 213l54 -54l-81 -81l-48 -41l1 -3l93 5h194v446h78v-524h-272l-93 6l-1 -4l48 -41l81 -81l-54 -54z" />
    <glyph glyph-name="uni21B3" unicode="&#x21b3;" horiz-adv-x="835" 
d="M695 213l-213 -213l-54 54l81 81l49 41l-1 4l-93 -6h-273v524h79v-446h194l93 -5l1 3l-49 41l-81 81l54 54z" />
    <glyph glyph-name="uni21B6" unicode="&#x21b6;" horiz-adv-x="835" 
d="M229 45l-214 213l55 55l81 -82l41 -48l3 1l-6 93v45q0 147 82.5 244.5t232.5 97.5q151 0 233 -97.5t82 -244.5h-78q0 114 -60 191t-177 78q-117 0 -176.5 -77.5t-59.5 -191.5v-45l-6 -93l3 -1l42 48l81 82l54 -55z" />
    <glyph glyph-name="uni21B7" unicode="&#x21b7;" horiz-adv-x="835" 
d="M607 45l-213 213l54 55l81 -82l41 -48l3 1l-5 93v45q0 114 -60 191.5t-177 77.5q-117 -1 -176.5 -78t-59.5 -191h-79q0 147 82.5 244.5t232.5 97.5t232.5 -97.5t82.5 -244.5v-45l-6 -93l3 -1l42 48l81 82l54 -55z" />
    <glyph glyph-name="uni21BA" unicode="&#x21ba;" horiz-adv-x="835" 
d="M403 698h302v-77h-109l-67 5l-1 -3l44 -36q35 -29 49 -41.5t44 -44.5t43.5 -57.5t25.5 -66t12 -84.5q0 -128 -95 -216.5t-230 -88.5q-140 0 -236 90t-96 224q0 91 45.5 166.5t124.5 126.5l44 -57q-68 -45 -101.5 -101.5t-33.5 -134.5q0 -106 73 -173t180 -67
q105 0 175.5 66t70.5 165q0 54 -20 98t-46 71t-76 69l-47 40l-3 -1l5 -65v-109h-77v302z" />
    <glyph glyph-name="uni21BB" unicode="&#x21bb;" horiz-adv-x="835" 
d="M431 698v-302h-76v109l4 65l-3 1l-47 -40q-75 -63 -108 -111.5t-33 -126.5q0 -99 70.5 -165t174.5 -66q107 0 180.5 66.5t73.5 173.5q0 79 -34 135t-102 101l45 57q79 -51 124.5 -126.5t45.5 -166.5q0 -134 -96.5 -224t-236.5 -90q-135 0 -229.5 88.5t-94.5 216.5
q0 44 12 84.5t25.5 66.5t42.5 57t44.5 44.5t49.5 41.5l44 36l-1 3l-68 -5h-108v77h301z" />
    <glyph glyph-name="uni21C4" unicode="&#x21c4;" horiz-adv-x="835" 
d="M63 201l213 213l55 -54l-82 -81l-49 -41l1 -3l94 5h478v-78h-478l-94 5l-1 -3l49 -41l82 -81l-55 -54zM772 497l-213 -213l-55 54l81 81l49 41l-1 3l-93 -5h-478v78h478l93 -5l1 3l-49 41l-81 81l55 54z" />
    <glyph glyph-name="uni21C6" unicode="&#x21c6;" horiz-adv-x="835" 
d="M63 497l213 213l55 -54l-82 -81l-49 -41l1 -3l94 5h478v-78h-478l-94 5l-1 -3l49 -41l82 -81l-55 -54zM772 201l-213 -213l-55 54l81 81l49 41l-1 3l-93 -5h-478v78h478l93 -5l1 3l-49 41l-81 81l55 54z" />
    <glyph glyph-name="partialdiff" unicode="&#x2202;" horiz-adv-x="591" 
d="M529 270q0 -140 -62 -211t-171 -71q-111 0 -174.5 70t-63.5 190q0 116 59 186t157 70q85 0 131 -63l4 2q-45 133 -278 255h144q36 -22 65 -43.5t66 -61t62.5 -82.5t43 -106t17.5 -135zM293 65q64 0 100.5 38t36.5 110v66q0 72 -36.5 110t-100.5 38t-100.5 -38t-36.5 -110
v-66q0 -72 36.5 -110t100.5 -38z" />
    <glyph glyph-name="Delta" unicode="&#x2206;" horiz-adv-x="650" 
d="M50 0v84l212 614h127l211 -614v-84h-550zM498 85l-170 515h-10l-169 -515h349z" />
    <glyph glyph-name="product" unicode="&#x220f;" horiz-adv-x="712" 
d="M225 -200h-97v812h-84v86h624v-86h-84v-812h-97v812h-262v-812z" />
    <glyph glyph-name="summation" unicode="&#x2211;" horiz-adv-x="514" 
d="M478 -117v-83h-454v86l252 361v4l-252 361v86h454v-83h-349l234 -335v-62l-234 -335h349z" />
    <glyph glyph-name="minus" unicode="&#x2212;" 
d="M533 266h-466v78h466v-78z" />
    <glyph glyph-name="radical" unicode="&#x221a;" 
d="M369 0h-125l-124 443h-94v75h162l48 -178l69 -262h6l72 262l100 358h87z" />
    </font>
</defs>
</svg>
