<?xml version="1.0" encoding="UTF-8"?>
<svg width="1157px" height="542px" viewBox="0 0 1157 542" version="1.1" xmlns="http://www.w3.org/2000/svg" xmlns:xlink="http://www.w3.org/1999/xlink">
    <!-- Generator: Sketch 54.1 (76490) - https://sketchapp.com -->
    <title>logo--black</title>
    <desc>Created with Sketch.</desc>
    <g id="Page-1" stroke="none" stroke-width="1" fill="none" fill-rule="evenodd">
        <g id="logo--black" fill="#FFFFFF" fill-rule="nonzero">
            <g id="former_x0D_">
                <g id="Group">
                    <path d="M23.8,223.7 L34.7,223.7 L34.7,225.7 L0.7,225.7 L0.7,223.7 L11.4,223.7 L11.4,4.2 L0.7,4.2 L0.7,2.2 L56,2.2 L56,61.5 L53.7,61.5 C53.7,38.3 52.4,22.9 50,15.4 C47.5,8 41.7,4.2 32.7,4.2 L23.8,4.2 L23.8,101.5 C28.4,101.5 31.9,99.4 34.3,95.3 C36.7,91.2 37.9,83.1 37.9,71 L40.2,71 L40.2,134.1 L37.9,134.1 C37.9,122 36.8,113.9 34.6,109.8 C32.4,105.7 29.1,103.6 24.7,103.6 L23.8,223.7 Z" id="Path"></path>
                    <path d="M256.8,207.8 C256.8,213.6 254.9,218.3 251,221.9 C247.2,225.5 241.9,227.4 235.2,227.4 C228.5,227.4 223.1,225.4 218.9,221.5 C214.8,217.6 212.7,212.6 212.7,206.7 L212.7,21.2 C212.7,15.3 214.8,10.3 218.9,6.4 C223,2.5 228.4,0.5 235.2,0.5 C241.5,0.5 246.7,2.7 250.8,7.1 C254.8,11.5 256.8,16.7 256.8,22.7 L256.8,207.8 L256.8,207.8 Z M225.1,215.4 C225.1,218.3 225.9,220.7 227.6,222.6 C229.3,224.5 231.8,225.5 235.2,225.5 C238,225.5 240.2,224.5 241.9,222.6 C243.6,220.7 244.4,218.3 244.4,215.4 L244.4,12.5 C244.4,5.8 241.3,2.4 235.2,2.4 C232.2,2.4 229.8,3.4 227.9,5.3 C226,7.2 225.1,9.6 225.1,12.5 L225.1,215.4 L225.1,215.4 Z" id="Shape"></path>
                    <path d="M455.8,207 L455.8,122.6 C455.8,118.1 454.8,115.2 452.8,113.9 C450.8,112.6 448.7,112 446.4,112 L437.9,112 L437.9,224.3 L448.8,224.3 L448.8,226.3 L414.8,226.3 L414.8,224.3 L425.5,224.3 L425.5,4.2 L414.8,4.2 L414.8,2.2 L446.5,2.2 C453,2.2 458.3,4.5 462.2,9 C466.1,13.5 468.1,18.7 468.1,24.7 L468.1,92.6 C468.1,101 464.2,106.9 456.3,110.2 C464.2,113.6 468.1,120.2 468.1,129.7 L468.1,213.9 C468.1,218.3 469.1,221.1 471.1,222.4 C473.1,223.6 475.3,224.3 477.6,224.3 L478.5,226.3 L467.7,226.3 C463.6,226.3 460.6,224.4 458.7,220.7 C456.7,216.9 455.8,212.4 455.8,207 Z M437.9,109.9 L446.4,109.9 C449.2,109.9 451.5,108.9 453.2,107 C454.9,105.1 455.8,102.8 455.8,100.1 L455.8,14.3 C455.8,7.6 452.7,4.2 446.4,4.2 L437.9,4.2 L437.9,109.9 L437.9,109.9 Z" id="Shape"></path>
                    <polygon id="Path" points="704.5 2.2 731.6 2.2 731.6 4.2 720.7 4.2 720.7 223.7 731.6 223.7 731.6 225.7 697.6 225.7 697.6 223.7 708.3 223.7 708.3 4.2 677.2 225.7 673.2 225.7 648.1 4.2 648.1 223.7 659 223.7 659 225.7 633.1 225.7 633.1 223.7 644 223.7 644 4.2 633.1 4.2 633.1 2.2 660.3 2.2 680 176.7"></polygon>
                    <path d="M939.9,225.7 L884.6,225.7 L884.6,223.7 L895.3,223.7 L895.3,4.2 L884.6,4.2 L884.6,2.2 L939.9,2.2 L939.9,61.5 L937.6,61.5 C937.6,38.3 936.3,22.9 933.9,15.4 C931.4,7.9 925.6,4.2 916.6,4.2 L907.7,4.2 L907.7,101.5 C912.3,101.5 915.8,99.4 918.2,95.3 C920.6,91.2 921.8,83.1 921.8,71 L924.1,71 L924.1,134.1 L921.8,134.1 C921.8,122 920.7,113.9 918.5,109.8 C916.3,105.7 913,103.6 908.6,103.6 L907.7,223.7 L916.6,223.7 C925.4,223.7 931.1,219.9 933.7,212.3 C936.3,204.7 937.6,189.4 937.6,166.4 L939.9,166.4 L939.9,225.7 L939.9,225.7 Z" id="Path"></path>
                    <path d="M1133.4,207 L1133.4,122.6 C1133.4,118.1 1132.4,115.2 1130.4,113.9 C1128.4,112.6 1126.3,112 1124,112 L1115.5,112 L1115.5,224.3 L1126.4,224.3 L1126.4,226.3 L1092.4,226.3 L1092.4,224.3 L1103.1,224.3 L1103.1,4.2 L1092.4,4.2 L1092.4,2.2 L1124.1,2.2 C1130.6,2.2 1135.9,4.5 1139.8,9 C1143.7,13.5 1145.7,18.7 1145.7,24.7 L1145.7,92.6 C1145.7,101 1141.8,106.9 1133.9,110.2 C1141.8,113.6 1145.7,120.2 1145.7,129.7 L1145.7,213.9 C1145.7,218.3 1146.7,221.1 1148.7,222.4 C1150.7,223.6 1152.9,224.3 1155.2,224.3 L1156.1,226.3 L1145.3,226.3 C1141.2,226.3 1138.2,224.4 1136.3,220.7 C1134.4,217 1133.4,212.4 1133.4,207 Z M1115.6,109.9 L1124.1,109.9 C1126.9,109.9 1129.2,108.9 1130.9,107 C1132.6,105.1 1133.5,102.8 1133.5,100.1 L1133.5,14.3 C1133.5,7.6 1130.4,4.2 1124.1,4.2 L1115.6,4.2 L1115.6,109.9 L1115.6,109.9 Z" id="Shape"></path>
                </g>
            </g>
            <g id="s_x0D__x0D__1_" transform="translate(5.000000, 314.000000)">
                <path d="M41.2,124.1 C43.5,127.9 44.7,132.4 44.7,137.3 L44.7,206.4 C44.7,212.4 42.6,217.3 38.5,221.2 C34.4,225.1 28.9,227.1 22.2,227.1 C15.5,227.1 10.2,225.3 6.4,221.6 C2.6,218 0.6,213.2 0.6,207.5 L0.6,147 L13,147 L13,215 C13,217.9 13.8,220.3 15.5,222.2 C17.2,224.1 19.4,225.1 22.2,225.1 C25.2,225.1 27.6,224.1 29.5,222.2 C31.4,220.3 32.3,217.9 32.3,215 L32.3,141.2 L32.3,137.5 C32.3,135.6 32.2,134.2 31.9,133.2 C31.6,132.2 31,130.8 30,128.9 L2.6,86.3 C1.3,84.4 0.6,79.5 0.6,71.6 L0.6,21 C0.6,15.1 2.7,10.1 6.8,6.2 C10.9,2.3 16.3,0.3 23.1,0.3 C29.4,0.3 34.6,2.6 38.7,7.1 C42.7,11.6 44.7,16.8 44.7,22.8 L44.7,73.8 L32.3,73.8 L32.3,12.5 C32.3,5.8 29.2,2.4 23.1,2.4 C20.1,2.4 17.7,3.4 15.8,5.3 C13.9,7.2 13,9.6 13,12.5 L13,72 C13,74.3 13,76.3 13.1,77.9 C13.2,79.5 13.7,81.1 14.5,82.6 L41.2,124.1 Z" id="Path"></path>
            </g>
            <g id="s_x0D__x0D_" transform="translate(1100.000000, 314.000000)">
                <path d="M41.2,124.1 C43.5,127.9 44.7,132.4 44.7,137.3 L44.7,206.4 C44.7,212.4 42.6,217.3 38.5,221.2 C34.4,225.1 28.9,227.1 22.2,227.1 C15.5,227.1 10.2,225.3 6.4,221.6 C2.6,218 0.6,213.2 0.6,207.5 L0.6,147 L13,147 L13,215 C13,217.9 13.8,220.3 15.5,222.2 C17.2,224.1 19.4,225.1 22.2,225.1 C25.2,225.1 27.6,224.1 29.5,222.2 C31.4,220.3 32.3,217.9 32.3,215 L32.3,141.2 L32.3,137.5 C32.3,135.6 32.2,134.2 31.9,133.2 C31.6,132.2 31,130.8 30,128.9 L2.6,86.3 C1.3,84.4 0.6,79.5 0.6,71.6 L0.6,21 C0.6,15.1 2.7,10.1 6.8,6.2 C10.9,2.3 16.3,0.3 23.1,0.3 C29.4,0.3 34.6,2.6 38.7,7.1 C42.7,11.6 44.7,16.8 44.7,22.8 L44.7,73.8 L32.3,73.8 L32.3,12.5 C32.3,5.8 29.2,2.4 23.1,2.4 C20.1,2.4 17.7,3.4 15.8,5.3 C13.9,7.2 13,9.6 13,12.5 L13,72 C13,74.3 13,76.3 13.1,77.9 C13.2,79.5 13.7,81.1 14.5,82.6 L41.2,124.1 Z" id="Path"></path>
            </g>
            <g id="e_x0D__1_" transform="translate(205.000000, 318.000000)">
                <path d="M55.9,223.5 L0.6,223.5 L0.6,221.5 L11.3,221.5 L11.3,2 L0.6,2 L0.6,0 L55.9,0 L55.9,59.3 L53.6,59.3 C53.6,36.1 52.3,20.7 49.9,13.2 C47.4,5.7 41.6,2 32.6,2 L23.7,2 L23.7,99.3 C28.3,99.3 31.8,97.2 34.2,93.1 C36.6,89 37.8,80.9 37.8,68.8 L40.1,68.8 L40.1,131.9 L37.8,131.9 C37.8,119.8 36.7,111.7 34.5,107.6 C32.3,103.5 29,101.4 24.6,101.4 L23.7,221.5 L32.6,221.5 C41.4,221.5 47.1,217.7 49.7,210.1 C52.3,202.5 53.6,187.2 53.6,164.2 L55.9,164.2 L55.9,223.5 L55.9,223.5 Z" id="Path"></path>
            </g>
            <g id="e_x0D_" transform="translate(883.000000, 318.000000)">
                <path d="M55.9,223.5 L0.6,223.5 L0.6,221.5 L11.3,221.5 L11.3,2 L0.6,2 L0.6,0 L55.9,0 L55.9,59.3 L53.6,59.3 C53.6,36.1 52.3,20.7 49.9,13.2 C47.4,5.7 41.6,2 32.6,2 L23.7,2 L23.7,99.3 C28.3,99.3 31.8,97.2 34.2,93.1 C36.6,89 37.8,80.9 37.8,68.8 L40.1,68.8 L40.1,131.9 L37.8,131.9 C37.8,119.8 36.7,111.7 34.5,107.6 C32.3,103.5 29,101.4 24.6,101.4 L23.7,221.5 L32.6,221.5 C41.4,221.5 47.1,217.7 49.7,210.1 C52.3,202.5 53.6,187.2 53.6,164.2 L55.9,164.2 L55.9,223.5 L55.9,223.5 Z" id="Path"></path>
            </g>
            <g id="l_x0D_" transform="translate(415.000000, 318.000000)">
                <path d="M32.5,221.5 C41.3,221.5 47,217.7 49.6,210.1 C52.2,202.5 53.5,187.2 53.5,164.2 L55.8,164.2 L55.8,223.5 L0.5,223.5 L0.5,221.5 L11.2,221.5 L11.2,2 L0.5,2 L0.5,0 L34.5,0 L34.5,2 L23.6,2 L23.6,221.5 L32.5,221.5 Z" id="Path"></path>
            </g>
            <g id="v_x0D_" transform="translate(636.000000, 318.000000)">
                <polygon id="Path" points="43.1 174.5 67.5 2 56.6 2 56.6 0 82.5 0 82.5 2 71.6 2 40.5 223.5 36.2 223.5 11.4 2 0.5 2 0.5 0 34.5 0 34.5 2 23.6 2"></polygon>
            </g>
        </g>
    </g>
</svg>